<svg width="335.000000" height="292.288086" viewBox="0 0 335 292.288" fill="none" xmlns="http://www.w3.org/2000/svg" xmlns:xlink="http://www.w3.org/1999/xlink">
	<desc>
			Created with Pixso.
	</desc>
	<defs/>
	<g style="mix-blend-mode:normal">
		<path id="Path 22671" d="M309.94 292.1C309.94 292.21 244.75 292.28 164.36 292.28C83.96 292.28 18.77 292.21 18.77 292.1C18.77 292 83.95 291.93 164.36 291.93C244.76 291.93 309.94 292.01 309.94 292.1Z" fill="#263238" fill-opacity="1.000000" fill-rule="nonzero"/>
		<path id="Path 22671" d="M164.36 292.28C83.96 292.28 18.77 292.21 18.77 292.1C18.77 292 83.95 291.93 164.36 291.93C244.76 291.93 309.94 292.01 309.94 292.1C309.94 292.21 244.75 292.28 164.36 292.28Z" stroke="#707070" stroke-opacity="0" stroke-width="1.000000"/>
	</g>
	<g style="mix-blend-mode:normal">
		<rect id="Rectangle 1407" x="79.525391" y="73.670898" width="58.172260" height="60.639675" transform="rotate(180 79.525391 73.670898)" fill="#E0E0E0" fill-opacity="1.000000"/>
		<rect id="Rectangle 1407" x="79.525391" y="73.670898" width="58.172260" height="60.639675" transform="rotate(180 79.525391 73.670898)" stroke="#707070" stroke-opacity="0" stroke-width="1.000000"/>
	</g>
	<g style="mix-blend-mode:normal">
		<rect id="Rectangle 1408" x="83.468750" y="73.670898" width="58.172260" height="60.639675" transform="rotate(180 83.468750 73.670898)" fill="#FAFAFA" fill-opacity="1.000000"/>
		<rect id="Rectangle 1408" x="83.468750" y="73.670898" width="58.172260" height="60.639675" transform="rotate(180 83.468750 73.670898)" stroke="#707070" stroke-opacity="0" stroke-width="1.000000"/>
	</g>
	<g style="mix-blend-mode:normal">
		<rect id="Rectangle 1425" x="335.000000" y="178.244141" width="29.086874" height="30.321289" transform="rotate(180 335.000000 178.244141)" fill="#FAFAFA" fill-opacity="1.000000"/>
		<rect id="Rectangle 1425" x="335.000000" y="178.244141" width="29.086874" height="30.321289" transform="rotate(180 335.000000 178.244141)" stroke="#707070" stroke-opacity="0" stroke-width="1.000000"/>
	</g>
	<g style="mix-blend-mode:normal">
		<path id="Path 22624" d="M25.27 13.01L83.48 13.01L83.48 73.68L25.27 73.68L25.27 13.01ZM83.48 13.01L25.27 13.01L25.27 73.68L83.48 73.68L83.48 13.01Z" fill="#E0E0E0" fill-opacity="1.000000" fill-rule="nonzero"/>
		<path id="Path 22624" d="M83.48 13.01L83.48 73.68L25.27 73.68L25.27 13.01L83.48 13.01Z" stroke="#707070" stroke-opacity="0" stroke-width="1.000000"/>
	</g>
	<g style="mix-blend-mode:normal">
		<rect id="Rectangle 1409" x="75.648438" y="65.517578" width="42.533897" height="44.338326" transform="rotate(180 75.648438 65.517578)" fill="#FFFFFF" fill-opacity="1.000000"/>
		<rect id="Rectangle 1409" x="75.648438" y="65.517578" width="42.533897" height="44.338326" transform="rotate(180 75.648438 65.517578)" stroke="#707070" stroke-opacity="0" stroke-width="1.000000"/>
	</g>
	<g style="mix-blend-mode:normal">
		<rect id="Rectangle 1427" x="331.089844" y="174.166992" width="21.267492" height="22.170223" transform="rotate(180 331.089844 174.166992)" fill="#FFFFFF" fill-opacity="1.000000"/>
		<rect id="Rectangle 1427" x="331.089844" y="174.166992" width="21.267492" height="22.170223" transform="rotate(180 331.089844 174.166992)" stroke="#707070" stroke-opacity="0" stroke-width="1.000000"/>
	</g>
	<g style="mix-blend-mode:normal">
		<path id="Path 22625" d="M89.14 65.95C89.44 66.4 89.79 66.81 90.19 67.18C90.88 67.89 91.83 68.86 92.93 69.91C94.03 70.96 94.98 71.9 95.71 72.57C96.08 72.96 96.49 73.3 96.94 73.59C96.64 73.15 96.29 72.74 95.89 72.38C95.21 71.66 94.25 70.69 93.16 69.64C92.07 68.6 91.11 67.65 90.38 66.98C90.01 66.59 89.59 66.24 89.14 65.95Z" fill="#E0E0E0" fill-opacity="1.000000" fill-rule="nonzero"/>
		<path id="Path 22625" d="M90.19 67.18C90.88 67.89 91.83 68.86 92.93 69.91C94.03 70.96 94.98 71.9 95.71 72.57C96.08 72.96 96.49 73.3 96.94 73.59C96.64 73.15 96.29 72.74 95.89 72.38C95.21 71.66 94.25 70.69 93.16 69.64C92.07 68.6 91.11 67.65 90.38 66.98C90.01 66.59 89.59 66.24 89.14 65.95C89.44 66.4 89.79 66.81 90.19 67.18Z" stroke="#707070" stroke-opacity="0" stroke-width="1.000000"/>
	</g>
	<g style="mix-blend-mode:normal">
		<path id="Path 22626" d="M33.11 65.84C32.66 66.14 32.25 66.49 31.89 66.89C31.18 67.57 30.21 68.52 29.16 69.59C28.11 70.65 27.16 71.64 26.49 72.37C26.1 72.74 25.76 73.15 25.48 73.6C25.92 73.3 26.32 72.95 26.68 72.55C27.37 71.87 28.38 70.92 29.42 69.82C30.46 68.72 31.42 67.77 32.08 67.04C32.48 66.68 32.82 66.28 33.11 65.84Z" fill="#E0E0E0" fill-opacity="1.000000" fill-rule="nonzero"/>
		<path id="Path 22626" d="M31.89 66.89C31.18 67.57 30.21 68.52 29.16 69.59C28.11 70.65 27.16 71.64 26.49 72.37C26.1 72.74 25.76 73.15 25.48 73.6C25.92 73.3 26.32 72.95 26.68 72.55C27.37 71.87 28.38 70.92 29.42 69.82C30.46 68.72 31.42 67.77 32.08 67.04C32.48 66.68 32.82 66.28 33.11 65.84C32.66 66.14 32.25 66.49 31.89 66.89Z" stroke="#707070" stroke-opacity="0" stroke-width="1.000000"/>
	</g>
	<g style="mix-blend-mode:normal">
		<path id="Path 22627" d="M33.23 21.29C32.92 20.85 32.57 20.44 32.18 20.07C31.5 19.39 30.55 18.38 29.45 17.34C28.35 16.29 27.4 15.34 26.67 14.68C26.3 14.29 25.89 13.95 25.44 13.66C25.74 14.1 26.09 14.51 26.48 14.87C27.16 15.59 28.12 16.56 29.22 17.61C30.31 18.65 31.27 19.6 32 20.26C32.36 20.66 32.78 21 33.23 21.29Z" fill="#E0E0E0" fill-opacity="1.000000" fill-rule="nonzero"/>
		<path id="Path 22627" d="M32.18 20.07C31.5 19.39 30.55 18.38 29.45 17.34C28.35 16.29 27.4 15.34 26.67 14.68C26.3 14.29 25.89 13.95 25.44 13.66C25.74 14.1 26.09 14.51 26.48 14.87C27.16 15.59 28.12 16.56 29.22 17.61C30.31 18.65 31.27 19.6 32 20.26C32.36 20.66 32.78 21 33.23 21.29C32.92 20.85 32.57 20.44 32.18 20.07Z" stroke="#707070" stroke-opacity="0" stroke-width="1.000000"/>
	</g>
	<g style="mix-blend-mode:normal">
		<path id="Path 22628" d="M89.27 21.39C89.72 21.09 90.13 20.74 90.49 20.34C91.17 19.66 92.17 18.71 93.23 17.61C94.28 16.51 95.22 15.56 95.89 14.83C96.27 14.46 96.61 14.05 96.91 13.6C96.46 13.91 96.05 14.27 95.69 14.69C94.97 15.37 94 16.32 92.95 17.42C91.91 18.52 90.96 19.47 90.29 20.2C89.9 20.56 89.56 20.95 89.27 21.39Z" fill="#E0E0E0" fill-opacity="1.000000" fill-rule="nonzero"/>
		<path id="Path 22628" d="M90.49 20.34C91.17 19.66 92.17 18.71 93.23 17.61C94.28 16.51 95.22 15.56 95.89 14.83C96.27 14.46 96.61 14.05 96.91 13.6C96.46 13.91 96.05 14.27 95.69 14.69C94.97 15.37 94 16.32 92.95 17.42C91.91 18.52 90.96 19.47 90.29 20.2C89.9 20.56 89.56 20.95 89.27 21.39C89.72 21.09 90.13 20.74 90.49 20.34Z" stroke="#707070" stroke-opacity="0" stroke-width="1.000000"/>
	</g>
	<g style="mix-blend-mode:normal">
		<path id="Path 22629" d="M33.23 65.51C33.23 65.44 33.23 65.37 33.23 65.29C33.23 65.14 33.23 64.94 33.23 64.68C33.23 64.12 33.23 63.31 33.23 62.29C33.23 60.18 33.23 57.13 33.27 53.25C33.27 45.49 33.32 34.42 33.35 21.17L33.19 21.34L75.6 21.34L75.41 21.15C75.41 37.42 75.41 52.64 75.41 65.48L75.58 65.32L44.87 65.4L36.24 65.45L33.96 65.45L33.36 65.45L33.96 65.45L36.24 65.45L44.87 65.4L75.59 65.58L75.75 65.58L75.75 65.42C75.75 52.57 75.75 37.35 75.75 21.08L75.75 20.89L75.56 20.89L33.15 20.89L32.98 20.89L32.98 21.06C32.98 34.34 33.04 45.44 33.06 53.24C33.06 57.1 33.06 60.15 33.11 62.24C33.11 63.26 33.11 64.05 33.11 64.6C33.11 64.86 33.11 65.05 33.11 65.2C33.11 65.34 33.23 65.51 33.23 65.51Z" fill="#E0E0E0" fill-opacity="1.000000" fill-rule="nonzero"/>
		<path id="Path 22629" d="M44.87 65.4L75.59 65.58L75.75 65.58L75.75 65.42C75.75 52.57 75.75 37.35 75.75 21.08L75.75 20.89L75.56 20.89L33.15 20.89L32.98 20.89L32.98 21.06C32.98 34.34 33.04 45.44 33.06 53.24C33.06 57.1 33.06 60.15 33.11 62.24C33.11 63.26 33.11 64.05 33.11 64.6C33.11 64.86 33.11 65.05 33.11 65.2C33.11 65.34 33.23 65.51 33.23 65.51C33.23 65.44 33.23 65.37 33.23 65.29C33.23 65.14 33.23 64.94 33.23 64.68C33.23 64.12 33.23 63.31 33.23 62.29C33.23 60.18 33.23 57.13 33.27 53.25C33.27 45.49 33.32 34.42 33.35 21.17L33.19 21.34L75.6 21.34L75.41 21.15C75.41 37.42 75.41 52.64 75.41 65.48L75.58 65.32L44.87 65.4L36.24 65.45L33.96 65.45L33.36 65.45" stroke="#707070" stroke-opacity="0" stroke-width="1.000000"/>
	</g>
	<g style="mix-blend-mode:normal">
		<path id="Path 22876" d="M309.88 174.16C309.88 174.13 309.88 174.09 309.88 174.05C309.88 173.98 309.88 173.88 309.88 173.75C309.88 173.47 309.88 173.06 309.88 172.55C309.88 171.5 309.88 169.97 309.9 168.03C309.9 164.15 309.92 158.62 309.94 151.99L331.06 152.07C331.06 160.21 330.97 167.73 330.97 174.15L315.7 174.11L311.38 174.13L310.24 174.13L309.88 174.16L310.24 174.13L311.38 174.13L315.7 174.11L330.97 174.15L331.14 174.2C331.14 167.77 331.14 160.08 331.14 151.94L309.84 151.85C309.84 158.5 309.78 164.13 309.79 168.02C309.79 169.96 309.85 171.5 309.88 172.55C309.88 173.06 309.88 173.47 309.88 173.75C309.88 173.88 309.88 173.98 309.88 174.05C309.88 174.12 309.88 174.16 309.88 174.16Z" fill="#E0E0E0" fill-opacity="1.000000" fill-rule="nonzero"/>
		<path id="Path 22876" d="M309.88 174.16C309.88 174.13 309.88 174.09 309.88 174.05M309.88 172.55C309.85 171.5 309.79 169.96 309.79 168.02C309.78 164.13 309.84 158.5 309.84 151.85L331.14 151.94C331.14 160.08 331.14 167.77 331.14 174.2L330.97 174.15L315.7 174.11L311.38 174.13L310.24 174.13L309.88 174.16C309.88 174.16 309.88 174.12 309.88 174.05C309.88 173.98 309.88 173.88 309.88 173.75C309.88 173.47 309.88 173.06 309.88 172.55C309.88 171.5 309.88 169.97 309.9 168.03C309.9 164.15 309.92 158.62 309.94 151.99L331.06 152.07C331.06 160.21 330.97 167.73 330.97 174.15M309.88 172.55C309.88 173.06 309.88 173.47 309.88 173.75M309.88 173.75C309.88 173.88 309.88 173.98 309.88 174.05" stroke="#707070" stroke-opacity="0" stroke-width="1.000000"/>
	</g>
	<g style="mix-blend-mode:normal">
		<rect id="Rectangle 1410" x="70.115234" y="50.446289" width="14.189357" height="14.189357" transform="rotate(180 70.115234 50.446289)" fill="#EBEBEB" fill-opacity="1.000000"/>
		<rect id="Rectangle 1410" x="70.115234" y="50.446289" width="14.189357" height="14.189357" transform="rotate(180 70.115234 50.446289)" stroke="#707070" stroke-opacity="0" stroke-width="1.000000"/>
	</g>
	<g style="mix-blend-mode:normal">
		<rect id="Rectangle 1426" x="328.324219" y="166.630859" width="7.094860" height="7.095018" transform="rotate(180 328.324219 166.630859)" fill="#EBEBEB" fill-opacity="1.000000"/>
		<rect id="Rectangle 1426" x="328.324219" y="166.630859" width="7.094860" height="7.095018" transform="rotate(180 328.324219 166.630859)" stroke="#707070" stroke-opacity="0" stroke-width="1.000000"/>
	</g>
	<g style="mix-blend-mode:normal">
		<rect id="Rectangle 1411" x="75.041016" y="285.528320" width="70.017235" height="132.358810" transform="rotate(180 75.041016 285.528320)" fill="#E0E0E0" fill-opacity="1.000000"/>
		<rect id="Rectangle 1411" x="75.041016" y="285.528320" width="70.017235" height="132.358810" transform="rotate(180 75.041016 285.528320)" stroke="#707070" stroke-opacity="0" stroke-width="1.000000"/>
	</g>
	<g style="mix-blend-mode:normal">
		<rect id="Rectangle 1412" x="93.042969" y="285.528320" width="70.017235" height="132.358810" transform="rotate(180 93.042969 285.528320)" fill="#F5F5F5" fill-opacity="1.000000"/>
		<rect id="Rectangle 1412" x="93.042969" y="285.528320" width="70.017235" height="132.358810" transform="rotate(180 93.042969 285.528320)" stroke="#707070" stroke-opacity="0" stroke-width="1.000000"/>
	</g>
	<g style="mix-blend-mode:normal">
		<path id="Path 22630" d="M28.18 159.18L88.29 159.18L88.29 180.16L28.18 180.16L28.18 159.18ZM87.54 159.92L28.92 159.92L28.92 179.42L87.54 179.42L87.54 159.92Z" fill="#E0E0E0" fill-opacity="1.000000" fill-rule="nonzero"/>
		<path id="Path 22630" d="M88.29 159.18L88.29 180.16L28.18 180.16L28.18 159.18L88.29 159.18ZM28.92 159.92L28.92 179.42L87.54 179.42L87.54 159.92L28.92 159.92Z" stroke="#707070" stroke-opacity="0" stroke-width="1.000000"/>
	</g>
	<g style="mix-blend-mode:normal">
		<path id="Path 22631" d="M75.12 163.71L59.08 163.71C57.21 163.71 55.69 162.19 55.69 160.33L55.69 159.53L78.5 159.53L78.5 160.33C78.5 162.19 76.99 163.71 75.12 163.71Z" fill="#EBEBEB" fill-opacity="1.000000" fill-rule="nonzero"/>
		<path id="Path 22631" d="M59.08 163.71C57.21 163.71 55.69 162.19 55.69 160.33L55.69 159.53L78.5 159.53L78.5 160.33C78.5 162.19 76.99 163.71 75.12 163.71L59.08 163.71Z" stroke="#707070" stroke-opacity="0" stroke-width="1.000000"/>
	</g>
	<g style="mix-blend-mode:normal">
		<path id="Path 22632" d="M28.18 185.89L88.29 185.89L88.29 206.87L28.18 206.87L28.18 185.89ZM87.54 186.63L28.92 186.63L28.92 206.13L87.54 206.13L87.54 186.63Z" fill="#E0E0E0" fill-opacity="1.000000" fill-rule="nonzero"/>
		<path id="Path 22632" d="M88.29 185.89L88.29 206.87L28.18 206.87L28.18 185.89L88.29 185.89ZM28.92 186.63L28.92 206.13L87.54 206.13L87.54 186.63L28.92 186.63Z" stroke="#707070" stroke-opacity="0" stroke-width="1.000000"/>
	</g>
	<g style="mix-blend-mode:normal">
		<path id="Path 22633" d="M75.12 190.41L59.08 190.41C57.21 190.41 55.69 188.9 55.69 187.03L55.69 186.23L78.5 186.23L78.5 187.03C78.5 188.9 76.99 190.41 75.12 190.41Z" fill="#EBEBEB" fill-opacity="1.000000" fill-rule="nonzero"/>
		<path id="Path 22633" d="M59.08 190.41C57.21 190.41 55.69 188.9 55.69 187.03L55.69 186.23L78.5 186.23L78.5 187.03C78.5 188.9 76.99 190.41 75.12 190.41L59.08 190.41Z" stroke="#707070" stroke-opacity="0" stroke-width="1.000000"/>
	</g>
	<g style="mix-blend-mode:normal">
		<path id="Path 22634" d="M28.18 212.6L88.29 212.6L88.29 233.58L28.18 233.58L28.18 212.6ZM87.54 213.34L28.92 213.34L28.92 232.84L87.54 232.84L87.54 213.34Z" fill="#E0E0E0" fill-opacity="1.000000" fill-rule="nonzero"/>
		<path id="Path 22634" d="M88.29 212.6L88.29 233.58L28.18 233.58L28.18 212.6L88.29 212.6ZM28.92 213.34L28.92 232.84L87.54 232.84L87.54 213.34L28.92 213.34Z" stroke="#707070" stroke-opacity="0" stroke-width="1.000000"/>
	</g>
	<g style="mix-blend-mode:normal">
		<path id="Path 22635" d="M75.12 217.12L59.08 217.12C57.21 217.12 55.69 215.6 55.69 213.74L55.69 212.94L78.5 212.94L78.5 213.74C78.5 215.6 76.99 217.12 75.12 217.12Z" fill="#EBEBEB" fill-opacity="1.000000" fill-rule="nonzero"/>
		<path id="Path 22635" d="M59.08 217.12C57.21 217.12 55.69 215.6 55.69 213.74L55.69 212.94L78.5 212.94L78.5 213.74C78.5 215.6 76.99 217.12 75.12 217.12L59.08 217.12Z" stroke="#707070" stroke-opacity="0" stroke-width="1.000000"/>
	</g>
	<g style="mix-blend-mode:normal">
		<path id="Path 22636" d="M28.18 239.38L88.29 239.38L88.29 260.36L28.18 260.36L28.18 239.38ZM87.54 240.12L28.92 240.12L28.92 259.63L87.54 259.63L87.54 240.12Z" fill="#E0E0E0" fill-opacity="1.000000" fill-rule="nonzero"/>
		<path id="Path 22636" d="M88.29 239.38L88.29 260.36L28.18 260.36L28.18 239.38L88.29 239.38ZM28.92 240.12L28.92 259.63L87.54 259.63L87.54 240.12L28.92 240.12Z" stroke="#707070" stroke-opacity="0" stroke-width="1.000000"/>
	</g>
	<g style="mix-blend-mode:normal">
		<path id="Path 22637" d="M75.12 243.93L59.08 243.93C57.21 243.93 55.69 242.42 55.69 240.55L55.69 239.75L78.5 239.75L78.5 240.55C78.5 242.42 76.99 243.93 75.12 243.93Z" fill="#EBEBEB" fill-opacity="1.000000" fill-rule="nonzero"/>
		<path id="Path 22637" d="M59.08 243.93C57.21 243.93 55.69 242.42 55.69 240.55L55.69 239.75L78.5 239.75L78.5 240.55C78.5 242.42 76.99 243.93 75.12 243.93L59.08 243.93Z" stroke="#707070" stroke-opacity="0" stroke-width="1.000000"/>
	</g>
	<g style="mix-blend-mode:normal">
		<rect id="Rectangle 1413" x="98.921875" y="154.519531" width="76.052490" height="6.595727" transform="rotate(180 98.921875 154.519531)" fill="#EBEBEB" fill-opacity="1.000000"/>
		<rect id="Rectangle 1413" x="98.921875" y="154.519531" width="76.052490" height="6.595727" transform="rotate(180 98.921875 154.519531)" stroke="#707070" stroke-opacity="0" stroke-width="1.000000"/>
	</g>
	<g style="mix-blend-mode:normal">
		<rect id="Rectangle 1414" x="22.869141" y="154.519531" width="22.869741" height="6.595727" transform="rotate(180 22.869141 154.519531)" fill="#E0E0E0" fill-opacity="1.000000"/>
		<rect id="Rectangle 1414" x="22.869141" y="154.519531" width="22.869741" height="6.595727" transform="rotate(180 22.869141 154.519531)" stroke="#707070" stroke-opacity="0" stroke-width="1.000000"/>
	</g>
	<g style="mix-blend-mode:normal">
		<rect id="Rectangle 1415" x="112.015625" y="292.288086" width="3.677203" height="6.759766" transform="rotate(180 112.015625 292.288086)" fill="#E0E0E0" fill-opacity="1.000000"/>
		<rect id="Rectangle 1415" x="112.015625" y="292.288086" width="3.677203" height="6.759766" transform="rotate(180 112.015625 292.288086)" stroke="#707070" stroke-opacity="0" stroke-width="1.000000"/>
	</g>
	<g style="mix-blend-mode:normal">
		<rect id="Rectangle 1416" x="85.287109" y="292.288086" width="3.677203" height="6.759766" transform="rotate(180 85.287109 292.288086)" fill="#E0E0E0" fill-opacity="1.000000"/>
		<rect id="Rectangle 1416" x="85.287109" y="292.288086" width="3.677203" height="6.759766" transform="rotate(180 85.287109 292.288086)" stroke="#707070" stroke-opacity="0" stroke-width="1.000000"/>
	</g>
	<g style="mix-blend-mode:normal">
		<rect id="Rectangle 1417" x="31.556641" y="292.288086" width="3.677203" height="6.759766" transform="rotate(180 31.556641 292.288086)" fill="#E0E0E0" fill-opacity="1.000000"/>
		<rect id="Rectangle 1417" x="31.556641" y="292.288086" width="3.677203" height="6.759766" transform="rotate(180 31.556641 292.288086)" stroke="#707070" stroke-opacity="0" stroke-width="1.000000"/>
	</g>
	<g style="mix-blend-mode:normal">
		<rect id="Rectangle 1418" x="10.792969" y="292.288086" width="3.677203" height="6.759766" transform="rotate(180 10.792969 292.288086)" fill="#E0E0E0" fill-opacity="1.000000"/>
		<rect id="Rectangle 1418" x="10.792969" y="292.288086" width="3.677203" height="6.759766" transform="rotate(180 10.792969 292.288086)" stroke="#707070" stroke-opacity="0" stroke-width="1.000000"/>
	</g>
	<g style="mix-blend-mode:normal">
		<rect id="Rectangle 1419" x="205.541016" y="21.792969" width="22.199917" height="32.930790" transform="rotate(-79.0099 205.541016 21.792969)" fill="#F5F5F5" fill-opacity="1.000000"/>
		<rect id="Rectangle 1419" x="205.541016" y="21.792969" width="22.199917" height="32.930790" transform="rotate(-79.0099 205.541016 21.792969)" stroke="#707070" stroke-opacity="0" stroke-width="1.000000"/>
	</g>
	<g style="mix-blend-mode:normal">
		<path id="Path 22638" d="M242.43 6.56C242.32 6.65 242.2 6.73 242.07 6.79L241.02 7.41L237.11 9.62L224.12 16.83L224.02 16.9L223.75 16.57L214.03 5.09L211.14 1.56C210.81 1.17 210.55 0.85 210.36 0.6C210.26 0.49 210.17 0.38 210.1 0.25C210.21 0.35 210.27 0.49 210.36 0.6L211.14 1.56L214.21 4.91C216.73 7.85 220.18 11.88 223.99 16.33C224.06 16.41 224.12 16.48 224.18 16.56L224 16.53L236.99 9.38L240.96 7.31L242.07 6.79C242.2 6.72 242.29 6.61 242.43 6.56Z" fill="#E0E0E0" fill-opacity="1.000000" fill-rule="nonzero"/>
		<path id="Path 22638" d="M210.36 0.6C210.55 0.85 210.81 1.17 211.14 1.56L214.03 5.09L223.75 16.57L224.02 16.9L224.12 16.83L237.11 9.62L241.02 7.41L242.07 6.79C242.2 6.72 242.29 6.61 242.43 6.56C242.32 6.65 242.2 6.73 242.07 6.79M210.36 0.6C210.26 0.49 210.17 0.38 210.1 0.25C210.21 0.35 210.27 0.49 210.36 0.6L211.14 1.56M211.14 1.56L214.21 4.91C216.73 7.85 220.18 11.88 223.99 16.33C224.06 16.41 224.12 16.48 224.18 16.56L224 16.53L236.99 9.38L240.96 7.31L242.07 6.79" stroke="#707070" stroke-opacity="0" stroke-width="1.000000"/>
	</g>
	<g style="mix-blend-mode:normal">
		<path id="Path 22639" d="M202.73 22.07C202.68 22 205.69 19.49 209.46 16.45C213.22 13.42 216.29 10.98 216.37 11.07C216.44 11.15 213.41 13.64 209.64 16.68C205.88 19.73 202.78 22.14 202.73 22.07Z" fill="#E0E0E0" fill-opacity="1.000000" fill-rule="nonzero"/>
		<path id="Path 22639" d="M209.46 16.45C213.22 13.42 216.29 10.98 216.37 11.07C216.44 11.15 213.41 13.64 209.64 16.68C205.88 19.73 202.78 22.14 202.73 22.07C202.68 22 205.69 19.49 209.46 16.45Z" stroke="#707070" stroke-opacity="0" stroke-width="1.000000"/>
	</g>
	<g style="mix-blend-mode:normal">
		<path id="Path 22640" d="M230.88 12.89C230.96 12.85 232.78 16.31 234.98 20.55C237.18 24.8 238.87 28.32 238.8 28.35C238.72 28.38 236.9 24.93 234.7 20.69C232.5 16.44 230.81 12.92 230.88 12.89Z" fill="#E0E0E0" fill-opacity="1.000000" fill-rule="nonzero"/>
		<path id="Path 22640" d="M234.98 20.55C237.18 24.8 238.87 28.32 238.8 28.35C238.72 28.38 236.9 24.93 234.7 20.69C232.5 16.44 230.81 12.92 230.88 12.89C230.96 12.85 232.78 16.31 234.98 20.55Z" stroke="#707070" stroke-opacity="0" stroke-width="1.000000"/>
	</g>
	<g style="mix-blend-mode:normal">
		<rect id="Rectangle 1420" x="303.933594" y="40.560547" width="25.836111" height="17.415453" transform="rotate(-26.6698 303.933594 40.560547)" fill="#F5F5F5" fill-opacity="1.000000"/>
		<rect id="Rectangle 1420" x="303.933594" y="40.560547" width="25.836111" height="17.415453" transform="rotate(-26.6698 303.933594 40.560547)" stroke="#707070" stroke-opacity="0" stroke-width="1.000000"/>
	</g>
	<g style="mix-blend-mode:normal">
		<path id="Path 22641" d="M327.19 29.12C327.16 29.22 327.13 29.33 327.08 29.43C326.99 29.66 326.87 29.95 326.72 30.32L325.35 33.56L320.76 44.26L320.62 44.34L320.4 44.3L308.86 41.82L305.37 41.04L304.43 40.82C304.32 40.8 304.21 40.77 304.1 40.73C304.21 40.73 304.32 40.8 304.43 40.82L305.37 41.04L308.9 41.64L320.44 44.04L320.68 44.09L320.54 44.16C322.36 40 324 36.24 325.2 33.5L326.72 30.32L327.08 29.43C327.13 29.33 327.13 29.21 327.19 29.12Z" fill="#E0E0E0" fill-opacity="1.000000" fill-rule="nonzero"/>
		<path id="Path 22641" d="M304.43 40.82C304.32 40.8 304.21 40.77 304.1 40.73C304.21 40.73 304.32 40.8 304.43 40.82L305.37 41.04L308.86 41.82L320.4 44.3L320.62 44.34L320.76 44.26L325.35 33.56L326.72 30.32L327.08 29.43C327.13 29.33 327.13 29.21 327.19 29.12C327.16 29.22 327.13 29.33 327.08 29.43M327.08 29.43C326.99 29.66 326.87 29.95 326.72 30.32M305.37 41.04L308.9 41.64L320.44 44.04L320.68 44.09L320.54 44.16C322.36 40 324 36.24 325.2 33.5L326.72 30.32" stroke="#707070" stroke-opacity="0" stroke-width="1.000000"/>
	</g>
	<g style="mix-blend-mode:normal">
		<path id="Path 22642" d="M311.91 56.24C311.85 56.24 312.51 53.22 313.39 49.53C314.27 45.84 315.04 42.86 315.1 42.87C315.17 42.89 314.5 45.9 313.62 49.59C312.74 53.28 311.97 56.29 311.91 56.24Z" fill="#E0E0E0" fill-opacity="1.000000" fill-rule="nonzero"/>
		<path id="Path 22642" d="M313.39 49.53C314.27 45.84 315.04 42.86 315.1 42.87C315.17 42.89 314.5 45.9 313.62 49.59C312.74 53.28 311.97 56.29 311.91 56.24C311.85 56.24 312.51 53.22 313.39 49.53Z" stroke="#707070" stroke-opacity="0" stroke-width="1.000000"/>
	</g>
	<g style="mix-blend-mode:normal">
		<path id="Path 22643" d="M322.68 38.86C322.68 38.79 325.49 40.05 328.89 41.66C332.28 43.26 335.04 44.62 335 44.67C334.95 44.73 332.19 43.48 328.79 41.87C325.39 40.26 322.65 38.91 322.68 38.86Z" fill="#E0E0E0" fill-opacity="1.000000" fill-rule="nonzero"/>
		<path id="Path 22643" d="M328.89 41.66C332.28 43.26 335.04 44.62 335 44.67C334.95 44.73 332.19 43.48 328.79 41.87C325.39 40.26 322.65 38.91 322.68 38.86C322.68 38.79 325.49 40.05 328.89 41.66Z" stroke="#707070" stroke-opacity="0" stroke-width="1.000000"/>
	</g>
	<g style="mix-blend-mode:normal">
		<rect id="Rectangle 1421" x="195.449219" y="109.093750" width="13.293978" height="19.725666" transform="rotate(-78.4403 195.449219 109.093750)" fill="#F5F5F5" fill-opacity="1.000000"/>
		<rect id="Rectangle 1421" x="195.449219" y="109.093750" width="13.293978" height="19.725666" transform="rotate(-78.4403 195.449219 109.093750)" stroke="#707070" stroke-opacity="0" stroke-width="1.000000"/>
	</g>
	<g style="mix-blend-mode:normal">
		<path id="Path 22644" d="M217.64 100.19L217.43 100.33L216.79 100.68L214.45 101.98L206.65 106.22L206.53 106.2L206.42 106.06C204.18 103.33 202.15 100.92 200.68 99.13L198.95 97.01L198.48 96.43C198.42 96.37 198.37 96.3 198.33 96.22C198.4 96.28 198.43 96.36 198.48 96.43L198.95 97.01L200.77 99.02C202.26 100.81 204.31 103.24 206.56 105.93L206.68 106.06L206.56 106.06L214.39 101.87L216.79 100.68L217.43 100.33C217.5 100.29 217.56 100.22 217.64 100.19Z" fill="#E0E0E0" fill-opacity="1.000000" fill-rule="nonzero"/>
		<path id="Path 22644" d="M198.48 96.43C198.42 96.37 198.37 96.3 198.33 96.22C198.4 96.28 198.43 96.36 198.48 96.43L198.95 97.01L200.68 99.13C202.15 100.92 204.18 103.33 206.42 106.06L206.53 106.2L206.65 106.22L214.45 101.98L216.79 100.68L217.43 100.33C217.5 100.29 217.56 100.22 217.64 100.19L217.43 100.33M198.95 97.01L200.77 99.02C202.26 100.81 204.31 103.24 206.56 105.93L206.68 106.06L206.56 106.06L214.39 101.87L216.79 100.68" stroke="#707070" stroke-opacity="0" stroke-width="1.000000"/>
	</g>
	<g style="mix-blend-mode:normal">
		<path id="Path 22645" d="M193.93 109.26C193.93 109.22 195.72 107.74 197.99 105.94C200.26 104.14 202.13 102.71 202.17 102.75C202.2 102.8 200.37 104.28 198.1 106.08C195.84 107.87 193.96 109.3 193.93 109.26Z" fill="#E0E0E0" fill-opacity="1.000000" fill-rule="nonzero"/>
		<path id="Path 22645" d="M197.99 105.94C200.26 104.14 202.13 102.71 202.17 102.75C202.2 102.8 200.37 104.28 198.1 106.08C195.84 107.87 193.96 109.3 193.93 109.26C193.93 109.22 195.72 107.74 197.99 105.94Z" stroke="#707070" stroke-opacity="0" stroke-width="1.000000"/>
	</g>
	<g style="mix-blend-mode:normal">
		<path id="Path 22646" d="M210.85 103.91C210.89 103.91 211.96 105.96 213.24 108.52C214.52 111.08 215.52 113.2 215.48 113.22C215.44 113.24 214.36 111.17 213.08 108.6C211.8 106.04 210.79 103.93 210.85 103.91Z" fill="#E0E0E0" fill-opacity="1.000000" fill-rule="nonzero"/>
		<path id="Path 22646" d="M213.24 108.52C214.52 111.08 215.52 113.2 215.48 113.22C215.44 113.24 214.36 111.17 213.08 108.6C211.8 106.04 210.79 103.93 210.85 103.91C210.89 103.91 211.96 105.96 213.24 108.52Z" stroke="#707070" stroke-opacity="0" stroke-width="1.000000"/>
	</g>
	<g style="mix-blend-mode:normal">
		<path id="Path 22647" d="M262.91 81.95L293.84 78.4L296.97 99.35L264.88 102.5L262.91 81.95Z" fill="#EBEBEB" fill-opacity="1.000000" fill-rule="nonzero"/>
		<path id="Path 22647" d="M293.84 78.4L296.97 99.35L264.88 102.5L262.91 81.95L293.84 78.4Z" stroke="#707070" stroke-opacity="0" stroke-width="1.000000"/>
	</g>
	<g style="mix-blend-mode:normal">
		<path id="Path 22648" d="M262.94 81.93L276.32 68.49C276.89 67.92 277.78 67.83 278.45 68.27L293.88 78.37L262.94 81.93Z" fill="#E0E0E0" fill-opacity="1.000000" fill-rule="nonzero"/>
		<path id="Path 22648" d="M262.94 81.93L276.32 68.49C276.89 67.92 277.78 67.83 278.45 68.27L293.88 78.37" stroke="#707070" stroke-opacity="0" stroke-width="1.000000"/>
	</g>
	<g style="mix-blend-mode:normal">
		<path id="Path 22649" d="M254.06 102.52C254.02 102.52 256.21 99.52 258.95 95.88C261.69 92.25 263.95 89.33 263.99 89.36C264.03 89.39 261.84 92.36 259.1 96C256.36 99.63 254.1 102.55 254.06 102.52Z" fill="#E0E0E0" fill-opacity="1.000000" fill-rule="nonzero"/>
		<path id="Path 22649" d="M258.95 95.88C261.69 92.25 263.95 89.33 263.99 89.36C264.03 89.39 261.84 92.36 259.1 96C256.36 99.63 254.1 102.55 254.06 102.52C254.02 102.52 256.21 99.52 258.95 95.88Z" stroke="#707070" stroke-opacity="0" stroke-width="1.000000"/>
	</g>
	<g style="mix-blend-mode:normal">
		<path id="Path 22650" d="M296.97 99.37C296.93 99.4 294.24 97.01 290.94 94.03C287.65 91.04 285.01 88.56 285.04 88.56C285.08 88.56 287.78 90.92 291.07 93.9C294.37 96.89 297.01 99.33 296.97 99.37Z" fill="#E0E0E0" fill-opacity="1.000000" fill-rule="nonzero"/>
		<path id="Path 22650" d="M290.94 94.03C287.65 91.04 285.01 88.56 285.04 88.56C285.08 88.56 287.78 90.92 291.07 93.9C294.37 96.89 297.01 99.33 296.97 99.37C296.93 99.4 294.24 97.01 290.94 94.03Z" stroke="#707070" stroke-opacity="0" stroke-width="1.000000"/>
	</g>
	<g style="mix-blend-mode:normal">
		<path id="Path 22651" d="M256.3 82.91L255.21 73.25L282.29 70.02L283.68 80.16L271.32 92.3L256.3 82.91Z" fill="#FAFAFA" fill-opacity="1.000000" fill-rule="nonzero"/>
		<path id="Path 22651" d="M255.21 73.25L282.29 70.02L283.68 80.16L271.32 92.3L256.3 82.91L255.21 73.25Z" stroke="#707070" stroke-opacity="0" stroke-width="1.000000"/>
	</g>
	<g style="mix-blend-mode:normal">
		<path id="Path 22652" d="M256.32 82.91L256.62 83.07L257.43 83.56L260.49 85.42L271.42 92.18L271.24 92.18L283.58 80.01L283.53 80.16C283.27 78.22 282.98 76.19 282.7 74.13C282.51 72.76 282.32 71.4 282.13 70.03L282.33 70.18L255.25 73.35L255.35 73.22C255.66 76.24 255.92 78.65 256.09 80.32C256.17 81.13 256.23 81.77 256.28 82.23C256.28 82.43 256.28 82.6 256.32 82.73C256.33 82.79 256.33 82.86 256.32 82.91C256.32 82.86 256.31 82.78 256.32 82.73L256.28 82.23C256.22 81.77 256.2 81.12 256.09 80.32C255.89 78.64 255.51 76.28 255.15 73.25L255.15 73.14L255.35 73.22L282.32 69.84L282.5 69.84L282.5 70.01C282.68 71.38 282.87 72.74 283.07 74.11C283.36 76.16 283.64 78.21 283.9 80.14L283.84 80.29L271.45 92.42L271.27 92.43L260.34 85.53L257.43 83.56L256.62 83.07C256.54 83.01 256.4 82.98 256.32 82.91Z" fill="#E0E0E0" fill-opacity="1.000000" fill-rule="nonzero"/>
		<path id="Path 22652" d="M256.32 82.91L256.62 83.07L257.43 83.56L260.49 85.42L271.42 92.18L271.24 92.18L283.58 80.01L283.53 80.16C283.27 78.22 282.98 76.19 282.7 74.13C282.51 72.76 282.32 71.4 282.13 70.03L282.33 70.18L255.25 73.35L255.35 73.22M255.35 73.22C255.66 76.24 255.92 78.65 256.09 80.32C256.17 81.13 256.23 81.77 256.28 82.23L256.32 82.73C256.33 82.79 256.33 82.86 256.32 82.91M256.28 82.23C256.28 82.43 256.28 82.6 256.32 82.73M256.62 83.07C256.54 83.01 256.4 82.98 256.32 82.91C256.32 82.86 256.31 82.78 256.32 82.73M256.28 82.23C256.22 81.77 256.2 81.12 256.09 80.32M256.09 80.32C255.89 78.64 255.51 76.28 255.15 73.25L255.15 73.14L255.35 73.22L282.32 69.84L282.5 69.84L282.5 70.01C282.68 71.38 282.87 72.74 283.07 74.11C283.36 76.16 283.64 78.21 283.9 80.14L283.84 80.29L271.45 92.42L271.27 92.43L260.34 85.53L257.43 83.56" stroke="#707070" stroke-opacity="0" stroke-width="1.000000"/>
	</g>
	<g style="mix-blend-mode:normal">
		<path id="Path 22653" d="M277.88 75.35C277.88 75.44 273.77 75.99 268.64 76.57C263.51 77.15 259.38 77.55 259.37 77.45C259.37 77.34 263.48 76.8 268.61 76.22C273.74 75.64 277.87 75.25 277.88 75.35Z" fill="#E0E0E0" fill-opacity="1.000000" fill-rule="nonzero"/>
		<path id="Path 22653" d="M268.64 76.57C263.51 77.15 259.38 77.55 259.37 77.45C259.37 77.34 263.48 76.8 268.61 76.22C273.74 75.64 277.87 75.25 277.88 75.35C277.88 75.44 273.77 75.99 268.64 76.57Z" stroke="#707070" stroke-opacity="0" stroke-width="1.000000"/>
	</g>
	<g style="mix-blend-mode:normal">
		<path id="Path 22654" d="M278.22 78.08C278.22 78.18 274.12 78.73 268.99 79.31C263.86 79.89 259.73 80.28 259.72 80.18C259.71 80.09 263.82 79.54 268.96 78.96C274.09 78.37 278.22 77.98 278.22 78.08Z" fill="#E0E0E0" fill-opacity="1.000000" fill-rule="nonzero"/>
		<path id="Path 22654" d="M268.99 79.31C263.86 79.89 259.73 80.28 259.72 80.18C259.71 80.09 263.82 79.54 268.96 78.96C274.09 78.37 278.22 77.98 278.22 78.08C278.22 78.18 274.12 78.73 268.99 79.31Z" stroke="#707070" stroke-opacity="0" stroke-width="1.000000"/>
	</g>
	<g style="mix-blend-mode:normal">
		<path id="Path 22655" d="M278.63 81.24C278.63 81.33 274.53 81.92 269.4 82.47C264.26 83.01 260.13 83.44 260.12 83.34C260.11 83.25 264.22 82.66 269.35 82.11C274.49 81.57 278.62 81.14 278.63 81.24Z" fill="#E0E0E0" fill-opacity="1.000000" fill-rule="nonzero"/>
		<path id="Path 22655" d="M269.4 82.47C264.26 83.01 260.13 83.44 260.12 83.34C260.11 83.25 264.22 82.66 269.35 82.11C274.49 81.57 278.62 81.14 278.63 81.24C278.63 81.33 274.53 81.92 269.4 82.47Z" stroke="#707070" stroke-opacity="0" stroke-width="1.000000"/>
	</g>
	<g style="mix-blend-mode:normal">
		<path id="Path 22656" d="M279.05 84.39C279.05 84.49 275.12 85.02 270.25 85.57C265.38 86.12 261.41 86.49 261.36 86.4C261.32 86.3 265.29 85.77 270.18 85.21C275.06 84.66 279.05 84.29 279.05 84.39Z" fill="#E0E0E0" fill-opacity="1.000000" fill-rule="nonzero"/>
		<path id="Path 22656" d="M270.25 85.57C265.38 86.12 261.41 86.49 261.36 86.4C261.32 86.3 265.29 85.77 270.18 85.21C275.06 84.66 279.05 84.29 279.05 84.39C279.05 84.49 275.12 85.02 270.25 85.57Z" stroke="#707070" stroke-opacity="0" stroke-width="1.000000"/>
	</g>
	<g style="mix-blend-mode:normal">
		<path id="Path 22657" d="M275.53 87.53C275.03 87.69 274.51 87.8 273.99 87.84C273.02 87.98 271.69 88.15 270.22 88.34C268.75 88.52 267.41 88.66 266.43 88.74C265.91 88.82 265.38 88.84 264.86 88.79C265.36 88.63 265.88 88.53 266.41 88.49C267.37 88.34 268.7 88.17 270.18 87.98C271.64 87.8 272.99 87.67 273.95 87.59C274.48 87.51 275.01 87.49 275.53 87.53Z" fill="#E0E0E0" fill-opacity="1.000000" fill-rule="nonzero"/>
		<path id="Path 22657" d="M273.99 87.84C273.02 87.98 271.69 88.15 270.22 88.34C268.75 88.52 267.41 88.66 266.43 88.74C265.91 88.82 265.38 88.84 264.86 88.79C265.36 88.63 265.88 88.53 266.41 88.49C267.37 88.34 268.7 88.17 270.18 87.98C271.64 87.8 272.99 87.67 273.95 87.59C274.48 87.51 275.01 87.49 275.53 87.53C275.03 87.69 274.51 87.8 273.99 87.84Z" stroke="#707070" stroke-opacity="0" stroke-width="1.000000"/>
	</g>
	<g style="mix-blend-mode:normal">
		<path id="Path 22658" d="M271.97 90.61C271.34 90.84 270.68 90.98 270.01 91C269.35 91.11 268.68 91.11 268.01 91C268.64 90.75 269.3 90.61 269.97 90.61C270.63 90.49 271.31 90.49 271.97 90.61Z" fill="#E0E0E0" fill-opacity="1.000000" fill-rule="nonzero"/>
		<path id="Path 22658" d="M270.01 91C269.35 91.11 268.68 91.11 268.01 91C268.64 90.75 269.3 90.61 269.97 90.61C270.63 90.49 271.31 90.49 271.97 90.61C271.34 90.84 270.68 90.98 270.01 91Z" stroke="#707070" stroke-opacity="0" stroke-width="1.000000"/>
	</g>
	<g style="mix-blend-mode:normal">
		<path id="Path 22784" d="M276.81 17.85L282.89 25.71L285 38.65L289.6 35.42L294.2 42.27L334.99 3.64L276.81 17.85Z" fill="#FE4E00" fill-opacity="1.000000" fill-rule="nonzero"/>
		<path id="Path 22784" d="M282.89 25.71L285 38.65L289.6 35.42L294.2 42.27L334.99 3.64L276.81 17.85L282.89 25.71Z" stroke="#707070" stroke-opacity="0" stroke-width="1.000000"/>
	</g>
	<g opacity="0.300000" style="mix-blend-mode:normal">
		<path id="Path 22785" d="M289.54 35.5L287.46 36.92L285.99 29.67L289.54 35.5Z" fill="#000000" fill-opacity="1.000000" fill-rule="nonzero"/>
		<path id="Path 22785" d="M287.46 36.92L285.99 29.67L289.54 35.5L287.46 36.92Z" stroke="#707070" stroke-opacity="0" stroke-width="1.000000"/>
	</g>
	<g opacity="0.300000" style="mix-blend-mode:normal">
		<path id="Path 22786" d="M282.89 25.71L334.99 3.64L286.3 28.94L285 38.65L282.89 25.71Z" fill="#000000" fill-opacity="1.000000" fill-rule="nonzero"/>
		<path id="Path 22786" d="M334.99 3.64L286.3 28.94L285 38.65L282.89 25.71L334.99 3.64Z" stroke="#707070" stroke-opacity="0" stroke-width="1.000000"/>
	</g>
	<g style="mix-blend-mode:normal">
		<path id="Path 22787" d="M335 3.62C334.81 3.78 334.61 3.91 334.39 4.02L332.6 5.03L325.93 8.63L303.76 20.3L286.02 29.5L286.14 29.12C288.38 33.18 290.4 36.44 291.85 38.69C292.55 39.77 293.1 40.64 293.55 41.32C293.77 41.62 293.95 41.93 294.1 42.27C293.84 42.01 293.6 41.72 293.4 41.41C292.97 40.85 292.35 39.99 291.59 38.89C290.05 36.68 287.94 33.46 285.64 29.41L285.5 29.16L285.76 29.01L303.45 19.72L325.65 8.24L332.42 4.83L334.27 3.92C334.5 3.79 334.74 3.68 335 3.62Z" fill="#263238" fill-opacity="1.000000" fill-rule="nonzero"/>
		<path id="Path 22787" d="M334.39 4.02L332.6 5.03L325.93 8.63L303.76 20.3L286.02 29.5L286.14 29.12C288.38 33.18 290.4 36.44 291.85 38.69C292.55 39.77 293.1 40.64 293.55 41.32C293.77 41.62 293.95 41.93 294.1 42.27C293.84 42.01 293.6 41.72 293.4 41.41C292.97 40.85 292.35 39.99 291.59 38.89C290.05 36.68 287.94 33.46 285.64 29.41L285.5 29.16L285.76 29.01L303.45 19.72L325.65 8.24L332.42 4.83L334.27 3.92C334.5 3.79 334.74 3.68 335 3.62C334.81 3.78 334.61 3.91 334.39 4.02Z" stroke="#707070" stroke-opacity="0" stroke-width="1.000000"/>
	</g>
	<g style="mix-blend-mode:normal">
		<path id="Path 22788" d="M334.99 3.62C335.07 3.79 323.4 8.88 308.92 15.1C294.44 21.32 282.62 26.12 282.62 25.95C282.62 25.78 294.22 20.69 308.69 14.47C323.17 8.25 334.93 3.46 334.99 3.62Z" fill="#263238" fill-opacity="1.000000" fill-rule="nonzero"/>
		<path id="Path 22788" d="M308.92 15.1C294.44 21.32 282.62 26.12 282.62 25.95C282.62 25.78 294.22 20.69 308.69 14.47C323.17 8.25 334.93 3.46 334.99 3.62C335.07 3.79 323.4 8.88 308.92 15.1Z" stroke="#707070" stroke-opacity="0" stroke-width="1.000000"/>
	</g>
	<g style="mix-blend-mode:normal">
		<path id="Path 22789" d="M285 38.65C284.82 37.07 284.86 35.47 285.13 33.91C285.18 32.32 285.46 30.75 285.95 29.24C286.13 30.81 286.08 32.41 285.81 33.97C285.77 35.56 285.5 37.14 285 38.65Z" fill="#263238" fill-opacity="1.000000" fill-rule="nonzero"/>
		<path id="Path 22789" d="M285.13 33.91C285.18 32.32 285.46 30.75 285.95 29.24C286.13 30.81 286.08 32.41 285.81 33.97C285.77 35.56 285.5 37.14 285 38.65C284.82 37.07 284.86 35.47 285.13 33.91Z" stroke="#707070" stroke-opacity="0" stroke-width="1.000000"/>
	</g>
	<g style="mix-blend-mode:normal">
		<path id="Path 22790" d="M234.99 70.69C234.99 70.87 234.32 71.12 233.4 71.25C232.48 71.38 231.74 71.25 231.73 71.13C231.71 71.02 232.43 70.69 233.31 70.57C234.19 70.45 234.95 70.48 234.99 70.69Z" fill="#263238" fill-opacity="1.000000" fill-rule="nonzero"/>
		<path id="Path 22790" d="M233.4 71.25C232.48 71.38 231.74 71.25 231.73 71.13C231.71 71.02 232.43 70.69 233.31 70.57C234.19 70.45 234.95 70.48 234.99 70.69C234.99 70.87 234.32 71.12 233.4 71.25Z" stroke="#707070" stroke-opacity="0" stroke-width="1.000000"/>
	</g>
	<g style="mix-blend-mode:normal">
		<path id="Path 22791" d="M246.71 65.43C246.81 65.57 245.73 66.58 244.18 67.5C243.28 68.16 242.23 68.57 241.13 68.7C241.05 68.52 242.32 67.81 243.83 66.91C244.7 66.27 245.68 65.77 246.71 65.43Z" fill="#263238" fill-opacity="1.000000" fill-rule="nonzero"/>
		<path id="Path 22791" d="M244.18 67.5C243.28 68.16 242.23 68.57 241.13 68.7C241.05 68.52 242.32 67.81 243.83 66.91C244.7 66.27 245.68 65.77 246.71 65.43C246.81 65.57 245.73 66.58 244.18 67.5Z" stroke="#707070" stroke-opacity="0" stroke-width="1.000000"/>
	</g>
	<g style="mix-blend-mode:normal">
		<path id="Path 22792" d="M255.19 55.77C254.96 56.86 254.47 57.87 253.74 58.71C252.7 60.19 251.6 61.17 251.45 61.05C251.89 60.05 252.48 59.13 253.19 58.31C254.2 56.88 255.02 55.68 255.19 55.77Z" fill="#263238" fill-opacity="1.000000" fill-rule="nonzero"/>
		<path id="Path 22792" d="M253.74 58.71C252.7 60.19 251.6 61.17 251.45 61.05C251.89 60.05 252.48 59.13 253.19 58.31C254.2 56.88 255.02 55.68 255.19 55.77C254.96 56.86 254.47 57.87 253.74 58.71Z" stroke="#707070" stroke-opacity="0" stroke-width="1.000000"/>
	</g>
	<g style="mix-blend-mode:normal">
		<path id="Path 22793" d="M258.28 43.39C258.7 44.42 258.8 45.56 258.57 46.65C258.56 47.76 258.23 48.85 257.62 49.79C257.57 48.71 257.65 47.64 257.88 46.58C257.89 45.51 258.02 44.43 258.28 43.39Z" fill="#263238" fill-opacity="1.000000" fill-rule="nonzero"/>
		<path id="Path 22793" d="M258.57 46.65C258.56 47.76 258.23 48.85 257.62 49.79C257.57 48.71 257.65 47.64 257.88 46.58C257.89 45.51 258.02 44.43 258.28 43.39C258.7 44.42 258.8 45.56 258.57 46.65Z" stroke="#707070" stroke-opacity="0" stroke-width="1.000000"/>
	</g>
	<g style="mix-blend-mode:normal">
		<path id="Path 22794" d="M250.45 34.5C251.57 34.27 252.74 34.48 253.7 35.09C255.41 35.94 256.18 37.35 256.04 37.42C255.91 37.48 254.93 36.46 253.41 35.69C251.9 34.93 250.43 34.71 250.45 34.5Z" fill="#263238" fill-opacity="1.000000" fill-rule="nonzero"/>
		<path id="Path 22794" d="M253.7 35.09C255.41 35.94 256.18 37.35 256.04 37.42C255.91 37.48 254.93 36.46 253.41 35.69C251.9 34.93 250.43 34.71 250.45 34.5C251.57 34.27 252.74 34.48 253.7 35.09Z" stroke="#707070" stroke-opacity="0" stroke-width="1.000000"/>
	</g>
	<g style="mix-blend-mode:normal">
		<path id="Path 22795" d="M240.2 40.77C240.25 39.63 240.72 38.56 241.51 37.75C242.14 36.79 243.11 36.12 244.22 35.87C244.33 36.04 243.13 36.84 242.05 38.18C240.97 39.52 240.38 40.84 240.2 40.77Z" fill="#263238" fill-opacity="1.000000" fill-rule="nonzero"/>
		<path id="Path 22795" d="M241.51 37.75C242.14 36.79 243.11 36.12 244.22 35.87C244.33 36.04 243.13 36.84 242.05 38.18C240.97 39.52 240.38 40.84 240.2 40.77C240.25 39.63 240.72 38.56 241.51 37.75Z" stroke="#707070" stroke-opacity="0" stroke-width="1.000000"/>
	</g>
	<g style="mix-blend-mode:normal">
		<path id="Path 22796" d="M242.31 52.95C241.37 52.32 240.65 51.39 240.29 50.32C239.73 49.34 239.5 48.21 239.66 47.1C240.18 48.04 240.62 49.02 240.97 50.04C241.63 51.66 242.49 52.8 242.31 52.95Z" fill="#263238" fill-opacity="1.000000" fill-rule="nonzero"/>
		<path id="Path 22796" d="M240.29 50.32C239.73 49.34 239.5 48.21 239.66 47.1C240.18 48.04 240.62 49.02 240.97 50.04C241.63 51.66 242.49 52.8 242.31 52.95C241.37 52.32 240.65 51.39 240.29 50.32Z" stroke="#707070" stroke-opacity="0" stroke-width="1.000000"/>
	</g>
	<g style="mix-blend-mode:normal">
		<path id="Path 22797" d="M253.57 58.63C252.48 58.87 251.35 58.78 250.31 58.38C249.21 58.19 248.18 57.68 247.38 56.91C248.44 57.06 249.49 57.33 250.49 57.72C251.55 57.9 252.59 58.2 253.57 58.63Z" fill="#263238" fill-opacity="1.000000" fill-rule="nonzero"/>
		<path id="Path 22797" d="M250.31 58.38C249.21 58.19 248.18 57.68 247.38 56.91C248.44 57.06 249.49 57.33 250.49 57.72C251.55 57.9 252.59 58.2 253.57 58.63C252.48 58.87 251.35 58.78 250.31 58.38Z" stroke="#707070" stroke-opacity="0" stroke-width="1.000000"/>
	</g>
	<g style="mix-blend-mode:normal">
		<path id="Path 22798" d="M266.08 56C265.27 56.75 264.29 57.28 263.22 57.54C262.22 58.02 261.11 58.22 260 58.12C260.93 57.57 261.94 57.16 262.99 56.89C263.97 56.44 265.01 56.14 266.08 56Z" fill="#263238" fill-opacity="1.000000" fill-rule="nonzero"/>
		<path id="Path 22798" d="M263.22 57.54C262.22 58.02 261.11 58.22 260 58.12C260.93 57.57 261.94 57.16 262.99 56.89C263.97 56.44 265.01 56.14 266.08 56C265.27 56.75 264.29 57.28 263.22 57.54Z" stroke="#707070" stroke-opacity="0" stroke-width="1.000000"/>
	</g>
	<g style="mix-blend-mode:normal">
		<path id="Path 22799" d="M276.57 48.52C276.7 48.65 275.68 49.69 274.28 50.82C273.51 51.59 272.59 52.2 271.57 52.61C271.45 52.45 272.48 51.41 273.86 50.29C274.63 49.52 275.56 48.92 276.57 48.52Z" fill="#263238" fill-opacity="1.000000" fill-rule="nonzero"/>
		<path id="Path 22799" d="M274.28 50.82C273.51 51.59 272.59 52.2 271.57 52.61C271.45 52.45 272.48 51.41 273.86 50.29C274.63 49.52 275.56 48.92 276.57 48.52C276.7 48.65 275.68 49.69 274.28 50.82Z" stroke="#707070" stroke-opacity="0" stroke-width="1.000000"/>
	</g>
	<g style="mix-blend-mode:normal">
		<path id="Path 22800" d="M282.99 41.21C283.16 41.28 282.99 42.03 282.4 42.8C281.8 43.56 281.26 44.02 281.08 43.9C280.9 43.78 281.29 43.12 281.8 42.4C282.32 41.68 282.82 41.13 282.99 41.21Z" fill="#263238" fill-opacity="1.000000" fill-rule="nonzero"/>
		<path id="Path 22800" d="M282.4 42.8C281.8 43.56 281.26 44.02 281.08 43.9C280.9 43.78 281.29 43.12 281.8 42.4C282.32 41.68 282.82 41.13 282.99 41.21C283.16 41.28 282.99 42.03 282.4 42.8Z" stroke="#707070" stroke-opacity="0" stroke-width="1.000000"/>
	</g>
	<g style="mix-blend-mode:normal">
		<path id="Path 22801" d="M53.33 9.4C53.33 9.4 51.33 13.64 50.3 15.7C50.3 15.7 51.96 29 60.9 33.83C60.9 33.83 60.82 22.06 65 17.5C65 17.5 59.7 7.35 53.33 9.4Z" fill="#613621" fill-opacity="1.000000" fill-rule="nonzero"/>
	</g>
	<g style="mix-blend-mode:normal">
		<path id="Path 22802" d="M61.77 24.25C61.77 24.25 59.7 22.03 57.1 23.67C54.49 25.31 55.79 33.94 63.12 34.33C63.12 34.33 68.48 44.26 75.47 44.65C82.46 45.04 86.66 41.37 84.83 30.57C82.99 19.77 83.52 14.46 83.52 14.46C83.52 14.46 73.74 8.21 65 17.5C63.37 19.24 62.43 21.53 61.77 24.25Z" fill="#FFBD81" fill-opacity="1.000000" fill-rule="nonzero"/>
	</g>
	<g style="mix-blend-mode:normal">
		<path id="Path 22803" d="M83.45 16.34C83.45 16.34 86.51 3.63 74.55 0C74.55 0 76.77 1.02 76.77 2.83C76.77 2.83 71.47 -0.26 62.11 1.62C52.75 3.51 49.38 11.06 49.38 11.06C49.38 11.06 50.73 10.03 55.36 10.29L52.56 12.52C52.56 12.52 57.96 16.89 65 17.5C65 17.5 75.65 10.93 83.45 16.34Z" fill="#84492D" fill-opacity="1.000000" fill-rule="nonzero"/>
	</g>
	<g style="mix-blend-mode:normal">
		<path id="Path 22804" d="M75.1 24.28C75.1 24.28 75.42 22.27 74.62 21.48C74.62 21.48 74.75 21.97 74.62 22.32C74.62 22.32 74.23 21.6 73.98 21.48C73.72 21.36 70.34 19.49 68.7 20.14C67.06 20.78 65.49 24.28 65.49 24.28C65.49 24.28 68.7 19.72 75.1 24.28Z" fill="#663923" fill-opacity="1.000000" fill-rule="nonzero"/>
	</g>
	<g style="mix-blend-mode:normal">
		<path id="Path 22805" d="M80.08 21.05C80.08 21.05 79.84 23.11 80.04 23.91C80.04 23.91 81.17 22.64 82.19 22.55C83.22 22.46 83.78 22.8 83.78 22.8C83.78 22.8 84.05 20.83 82.95 20.57C82.34 20.43 80.62 21.02 80.62 21.02C80.62 21.02 80.57 21.47 80.47 21.89C80.47 21.89 80.23 21.59 80.08 21.05Z" fill="#663923" fill-opacity="1.000000" fill-rule="nonzero"/>
	</g>
	<g style="mix-blend-mode:normal">
		<path id="Path 22806" d="M83.81 52.17C83.81 52.17 83.43 59.12 75.18 59.7C66.92 60.27 55.86 52.66 55.86 52.66C55.86 52.66 59.65 49.76 60.95 46.72C61.23 46.07 61.43 45.11 61.57 44C62.07 40.01 61.77 34.15 61.77 34.15L63.9 32.57C63.9 32.57 64.31 32.86 65 33.35C68.4 35.75 78.5 43.01 78.48 44.68C78.45 46.68 83.81 52.17 83.81 52.17Z" fill="#FFBD81" fill-opacity="1.000000" fill-rule="nonzero"/>
	</g>
	<g style="mix-blend-mode:normal">
		<path id="Path 22807" d="M82.61 50.89C74.17 56.75 63.39 43.07 61.81 40.74L61.77 34.15L65 33.35L76.77 43.16L82.61 50.89Z" fill="#E0875A" fill-opacity="1.000000" fill-rule="nonzero"/>
	</g>
	<g style="mix-blend-mode:normal">
		<path id="Path 22808" d="M85.84 44.1C85.54 45.34 85.25 46.09 85.25 46.09C85.44 44.98 84.73 43.34 84.73 43.34C84.49 46.14 81.79 52.12 81.79 52.12C81.16 51.2 79.57 51.05 76.77 49.75C73.98 48.45 70.33 44.98 70.33 44.98C70.11 46.11 70.54 47.28 70.56 47.34C66.71 44.59 64.43 41.28 62.98 37.03C61.83 33.66 61.79 27.34 61.83 24.9C61.83 24.27 61.85 23.9 61.85 23.9C61.34 20.76 63.41 19.66 63.41 19.66C64.09 28.82 68.08 34.14 71.27 36.92C75.98 41.03 82.61 38.37 83.85 36.63C85.1 34.9 84.77 30.18 84.77 30.18C87.42 35.27 86.57 41.12 85.84 44.1Z" fill="#663923" fill-opacity="1.000000" fill-rule="nonzero"/>
	</g>
	<g style="mix-blend-mode:normal">
		<path id="Path 22809" d="M79.39 24.78C79.52 25.45 79.76 26.1 80.13 26.65C80.32 26.93 80.54 27.17 80.8 27.37L81.22 27.67C81.29 27.72 81.35 27.78 81.42 27.84C81.49 27.9 81.55 27.96 81.61 28.03C82.09 28.54 82.44 29.15 82.75 29.76C83.06 30.38 83.31 31.03 83.53 31.67L83.51 31.83C83.18 32.2 82.79 32.47 82.36 32.68C81.94 32.9 81.47 33.01 81 33.04C80.53 33.06 80.07 33.04 79.61 32.96C79.16 32.88 78.71 32.78 78.28 32.59C78.72 32.72 79.17 32.79 79.63 32.83C80.08 32.86 80.53 32.86 80.98 32.81C81.42 32.76 81.85 32.63 82.23 32.42C82.62 32.22 82.98 31.94 83.26 31.62L83.23 31.78C83 31.14 82.75 30.52 82.46 29.91C82.16 29.31 81.83 28.72 81.4 28.22C81.34 28.16 81.29 28.1 81.23 28.04C81.17 27.99 81.11 27.92 81.05 27.88L80.64 27.56C80.37 27.33 80.15 27.05 79.98 26.75C79.8 26.45 79.67 26.12 79.58 25.79C79.48 25.46 79.41 25.12 79.39 24.78Z" fill="#663923" fill-opacity="1.000000" fill-rule="nonzero"/>
	</g>
	<g style="mix-blend-mode:normal">
		<path id="Path 22810" d="M68.99 26.21C68.99 26.21 70.34 24.99 71.88 24.99C74.04 24.99 74.78 25.96 75.16 26.73C75.16 26.73 74.44 27.12 73.29 27.33C72.14 27.53 70.18 27.56 68.99 26.21Z" fill="#FFFFFF" fill-opacity="1.000000" fill-rule="nonzero"/>
	</g>
	<mask id="mask1_9323" mask-type="alpha" maskUnits="userSpaceOnUse" x="68.996094" y="24.996094" width="6.171875" height="2.440430">
		<g style="mix-blend-mode:normal">
			<path id="Path 22812" d="M68.99 26.21C68.99 26.21 70.34 24.99 71.88 24.99C74.04 24.99 74.78 25.96 75.16 26.73C75.16 26.73 74.44 27.12 73.29 27.33C72.14 27.53 70.18 27.56 68.99 26.21Z" fill="#FFFFFF" fill-opacity="1.000000" fill-rule="nonzero"/>
		</g>
	</mask>
	<g mask="url(#mask1_9323)">
		<g style="mix-blend-mode:normal">
			<path id="Path 22811" d="M73.38 26.25C73.35 27.14 72.69 27.84 71.89 27.82C71.09 27.8 70.46 27.06 70.49 26.17C70.51 25.28 71.18 24.58 71.98 24.6C72.77 24.62 73.4 25.36 73.38 26.25Z" fill="#4F2C1B" fill-opacity="1.000000" fill-rule="nonzero"/>
		</g>
	</g>
	<g style="mix-blend-mode:normal">
		<path id="Path 22813" d="M75.16 26.73C75.16 26.73 74.62 24.88 72.46 24.78C70.31 24.69 68.7 26.21 68.7 26.21L69.16 26.39C69.16 26.39 73.3 24.35 75.16 26.73Z" fill="#4F2C1B" fill-opacity="1.000000" fill-rule="nonzero"/>
	</g>
	<g style="mix-blend-mode:normal">
		<ellipse id="Ellipse 431" cx="70.679688" cy="26.463867" rx="0.582421" ry="0.370380" fill="#FFFFFF" fill-opacity="1.000000"/>
	</g>
	<g style="mix-blend-mode:normal">
		<path id="Path 22814" d="M79.91 25.84C79.91 25.84 80.24 24.42 81.15 24.03C82.06 23.63 83.21 23.75 83.79 24.6C83.79 24.6 82.93 26.83 79.91 25.84Z" fill="#FFFFFF" fill-opacity="1.000000" fill-rule="nonzero"/>
	</g>
	<mask id="mask1_9330" mask-type="alpha" maskUnits="userSpaceOnUse" x="79.914062" y="23.815430" width="3.876953" height="2.279297">
		<g style="mix-blend-mode:normal">
			<path id="Path 22817" d="M79.91 25.84C79.91 25.84 80.24 24.42 81.15 24.03C82.06 23.63 83.21 23.75 83.79 24.6C83.79 24.6 82.93 26.83 79.91 25.84Z" fill="#FFFFFF" fill-opacity="1.000000" fill-rule="nonzero"/>
		</g>
	</mask>
	<g mask="url(#mask1_9330)">
		<g style="mix-blend-mode:normal">
			<path id="Path 22815" d="M82.11 25.23C82.11 25.84 81.67 26.33 81.12 26.33C80.57 26.33 80.13 25.84 80.13 25.23C80.13 24.62 80.57 24.13 81.12 24.13C81.67 24.13 82.11 24.62 82.11 25.23Z" fill="#4F2C1B" fill-opacity="1.000000" fill-rule="nonzero"/>
		</g>
	</g>
	<g mask="url(#mask1_9330)">
		<g style="mix-blend-mode:normal">
			<path id="Path 22816" d="M80.54 25.57C80.54 25.72 80.38 25.85 80.17 25.85C79.96 25.85 79.8 25.72 79.8 25.57C79.8 25.42 79.96 25.29 80.17 25.29C80.38 25.29 80.54 25.42 80.54 25.57Z" fill="#FFFFFF" fill-opacity="1.000000" fill-rule="nonzero"/>
		</g>
	</g>
	<g style="mix-blend-mode:normal">
		<path id="Path 22818" d="M79.91 25.84C79.91 25.84 79.8 24.67 80.82 24.03C81.84 23.39 83.28 23.5 83.97 24.43L83.79 24.6C83.79 24.6 80.98 22.95 79.91 25.84Z" fill="#4F2C1B" fill-opacity="1.000000" fill-rule="nonzero"/>
	</g>
	<g style="mix-blend-mode:normal">
		<path id="Path 22819" d="M57.19 26.21C57.41 26.03 57.67 25.89 57.94 25.78C58.22 25.67 58.51 25.6 58.81 25.58C59.11 25.56 59.41 25.61 59.7 25.71C59.99 25.81 60.26 25.97 60.49 26.17C60.93 26.59 61.23 27.12 61.43 27.67C61.62 28.22 61.73 28.79 61.77 29.36C61.59 28.82 61.41 28.28 61.18 27.77C61.13 27.64 61.06 27.52 61 27.39C60.93 27.28 60.86 27.15 60.78 27.04C60.64 26.81 60.46 26.6 60.26 26.42C59.87 26.06 59.35 25.86 58.81 25.85C58.27 25.83 57.71 25.98 57.19 26.21Z" fill="#663923" fill-opacity="1.000000" fill-rule="nonzero"/>
	</g>
	<g style="mix-blend-mode:normal">
		<path id="Path 22820" d="M73.58 35.89C73.52 35.81 80.2 35.95 83.38 34.22C83.38 34.22 83.16 35.76 82.39 36.47C81.61 37.17 75.99 39.07 73.58 35.89Z" fill="#FFFFFF" fill-opacity="1.000000" fill-rule="nonzero"/>
	</g>
	<g style="mix-blend-mode:normal">
		<path id="Path 22821" d="M86.57 33.19C85.67 35.18 84.14 34.09 83.14 33.99C82.16 33.89 81.59 34.78 81.56 34.83C81.52 34.81 81.17 34.64 80.41 34.64C79.08 34.65 77.35 37.59 74.62 37.01C73.13 36.7 72.48 35.45 72.41 35.29C73.44 36.51 77.77 33.61 78.99 33.38C80.21 33.16 81.53 34.02 81.53 34.02C82.75 31.32 84.48 33.19 84.97 33.38C86.09 33.83 86.57 33.19 86.57 33.19Z" fill="#663923" fill-opacity="1.000000" fill-rule="nonzero"/>
	</g>
	<g style="mix-blend-mode:normal">
		<path id="Path 22822" d="M55.24 52.49C52.18 54.07 47.11 54.83 44.22 60.03C41.33 65.24 46.82 81.01 52.47 87.38C52.47 87.38 59.47 80.87 68.99 81.88L90.75 80.29C90.75 80.29 98.33 76.38 103.97 80.43C103.97 80.43 103.87 54.01 83.81 52.17L83.35 51.69C84.51 57.45 71.14 61.16 57.41 51.32C57.41 51.32 55.69 52.25 55.24 52.49Z" fill="#263238" fill-opacity="1.000000" fill-rule="nonzero"/>
	</g>
	<g style="mix-blend-mode:normal">
		<path id="Path 22823" d="M70.89 279.84C70.89 279.84 71.85 276.46 71.71 272.12L79.37 272.12C79.37 272.12 80.74 280.89 81.16 282.91L71.71 285.09L70.89 279.84Z" fill="#E0875A" fill-opacity="1.000000" fill-rule="nonzero"/>
	</g>
	<g style="mix-blend-mode:normal">
		<path id="Path 22824" d="M78.47 210.16C78.35 212.64 78.29 215.34 78.29 218.3C78.29 229.33 80.98 275.59 80.98 275.59L71.21 275.59L69.75 275.59C69.75 275.59 62.3 246.95 60.86 233.64C59.41 220.33 66.21 218.3 57.96 194.29C50.74 173.23 53.27 136.42 53.27 136.42L62.7 133.55L63.72 133.24L77.93 140.47C77.93 140.47 82.33 156.89 82.27 177.41C82.27 177.92 82.26 178.42 82.24 178.92C81.93 187.84 79.22 194.77 78.47 210.16Z" fill="#1A2949" fill-opacity="1.000000" fill-rule="nonzero"/>
	</g>
	<g style="mix-blend-mode:multiply">
		<g style="mix-blend-mode:normal">
			<path id="Path 22825" d="M65.49 224.09C62.36 235.28 69.71 268.95 71.21 275.59L69.75 275.59C69.75 275.59 62.3 246.95 60.86 233.64C59.41 220.33 66.21 218.3 57.96 194.29C50.74 173.23 53.27 136.42 53.27 136.42L62.7 133.55L66.36 134.68L82.24 178.92C81.93 187.84 79.22 194.77 78.47 210.16C75.75 210.96 68.3 214.01 65.49 224.09Z" fill="#B1BDE0" fill-opacity="1.000000" fill-rule="nonzero"/>
		</g>
	</g>
	<g style="mix-blend-mode:normal">
		<path id="Path 22826" d="M55.86 88.97C55.86 88.97 60.76 114.14 57.19 121.08C53.62 128.03 53.27 136.42 53.27 136.42C62.01 135.26 71.14 136.42 71.14 136.42L74.17 96.2L55.86 88.97Z" fill="#263238" fill-opacity="1.000000" fill-rule="nonzero"/>
	</g>
	<g style="mix-blend-mode:normal">
		<path id="Path 22827" d="M112.07 279.26C112.07 279.26 112.75 278.1 112.3 273.94L121.19 273.94L123.93 279.26L121.52 285.09C121.52 285.09 112.97 282.96 112.07 279.26Z" fill="#E0875A" fill-opacity="1.000000" fill-rule="nonzero"/>
	</g>
	<g style="mix-blend-mode:normal">
		<path id="Path 22828" d="M121.64 274.82L112.37 275.44L110.04 275.59C110.04 275.59 88.72 232.48 90.41 220.91C91.97 210.29 89.41 200.14 84.96 190.72C84.56 189.88 84.14 189.04 83.71 188.2L85.1 188.98L105.2 200.31C105.2 200.31 105.96 206.43 107.29 215.23C110.13 233.94 115.54 264.78 121.64 274.82Z" fill="#384469" fill-opacity="1.000000" fill-rule="nonzero"/>
	</g>
	<g style="mix-blend-mode:multiply">
		<g style="mix-blend-mode:normal">
			<path id="Path 22829" d="M112.37 275.44L110.05 275.59C110.05 275.59 88.72 232.48 90.41 220.91C91.97 210.29 89.41 200.14 84.96 190.72L85.1 188.98L105.2 200.31C105.2 200.31 105.97 206.43 107.3 215.23C107.21 215.17 101.42 211.42 97.36 220.04C93.4 228.43 111.17 272.49 112.37 275.44Z" fill="#1A2949" fill-opacity="1.000000" fill-rule="nonzero"/>
		</g>
	</g>
	<g style="mix-blend-mode:normal">
		<path id="Path 22830" d="M108.79 199.98C93.55 201.91 60.67 198.24 60.67 198.24C55.94 156.77 61.77 124.36 61.77 124.36C59.88 122.43 56.14 123.37 56.14 123.37C56.1 123.21 56.06 123.05 56.03 122.9C55.28 119.35 58.06 118.3 58.06 118.3C61.65 118.82 63.99 115.81 65.49 111.11C66.54 107.79 67.18 103.64 67.55 99.29C67.7 97.5 67.8 95.68 67.87 93.88C68.01 90.1 67.99 86.36 67.9 83.08C67.51 69 53.17 53.39 53.17 53.39C54.3 52.17 55.83 52.17 55.83 52.17C57.68 54.15 69.25 67.27 71.76 69.78C74.26 72.28 87.67 71.08 89.99 69.35C92.3 67.61 83.81 52.17 83.81 52.17C83.81 52.17 86.01 52.19 86.57 52.61C92.75 57.2 96.25 72.67 97.22 81.48C97.5 84.06 97.3 88 96.95 92.67C96.89 93.46 96.83 94.26 96.76 95.09C96.5 98.4 96.18 102 95.92 105.67C95.8 107.45 95.69 109.24 95.6 111.03C95.26 117.87 95.27 124.66 96.25 130.15C98.95 145.2 108.79 199.98 108.79 199.98Z" fill="#FE4E00" fill-opacity="1.000000" fill-rule="nonzero"/>
	</g>
	<g style="mix-blend-mode:multiply">
		<g style="mix-blend-mode:normal">
			<path id="Path 22831" d="M96.76 95.09C96.5 98.4 96.18 102 95.92 105.67C87.45 103.17 81.04 111.09 75.71 112.21C71.8 113.04 67.58 111.85 65.49 111.11C66.54 107.79 67.18 103.64 67.55 99.29L89.79 92.15L96.76 95.09Z" fill="#263238" fill-opacity="1.000000" fill-rule="nonzero"/>
		</g>
	</g>
	<g style="mix-blend-mode:normal">
		<path id="Path 22832" d="M92.11 96.99C92.11 96.99 76.31 112.25 69.13 108.71C69.08 108.69 69.04 108.67 68.99 108.64C61.9 104.85 52.47 87.38 52.47 87.38C62.45 79.27 68.99 81.88 68.99 81.88L72.4 93.6L82.19 89.1L84.76 91.15L92.11 96.99Z" fill="#FFBD81" fill-opacity="1.000000" fill-rule="nonzero"/>
	</g>
	<g style="mix-blend-mode:multiply">
		<g style="mix-blend-mode:normal">
			<path id="Path 22833" d="M92.11 96.99C92.11 96.99 76.31 112.25 69.13 108.71C79.18 105.4 72.4 93.6 72.4 93.6L84.76 91.15L92.11 96.99Z" fill="#FFE2C7" fill-opacity="1.000000" fill-rule="nonzero"/>
		</g>
	</g>
	<g style="mix-blend-mode:normal">
		<path id="Path 22834" d="M103.97 80.43C103.97 80.43 111.18 94.31 106.72 101.7C103.93 106.31 88.51 95.96 84.39 93.89C81.42 92.39 80.98 93.76 77.73 94.01C74.01 94.29 72.4 93.6 72.4 93.6L68.99 83.24C68.99 83.24 70.37 82.45 74.77 82.1C76.46 81.96 81.84 86.11 83.79 86.31C90.77 87.04 97.79 88.79 97.79 88.79C97.79 88.79 97.7 85.37 96.85 78.61C96.85 78.61 101.06 78.26 103.97 80.43Z" fill="#FFBD81" fill-opacity="1.000000" fill-rule="nonzero"/>
	</g>
	<g style="mix-blend-mode:normal">
		<path id="Path 22835" d="M52.47 87.38C52.47 87.38 61.79 79.61 68.99 81.88C68.99 81.88 65.34 70.41 61.32 64.45L52.47 87.38Z" fill="#263238" fill-opacity="1.000000" fill-rule="nonzero"/>
	</g>
	<g style="mix-blend-mode:normal">
		<path id="Path 22836" d="M70.89 279.84C69.73 281.48 68.86 286.02 71.37 292.28L88.54 292.28C88.54 292.28 90.87 287.61 87 285.38C81.69 282.34 82.65 281 81.5 279.26C80.36 277.53 74.72 277.06 73.95 280.14C73.17 283.23 72.91 283.5 72.91 283.5L70.89 279.84Z" fill="#FE4E00" fill-opacity="1.000000" fill-rule="nonzero"/>
	</g>
	<g style="mix-blend-mode:normal">
		<path id="Path 22837" d="M112.07 279.26C112.07 279.26 110.86 281.97 110.66 285.72C110.43 290.06 112.07 292.28 112.07 292.28L118.44 292.28L143.13 292.28C143.13 292.28 143.51 288.71 141.58 287.74C139.66 286.78 129.82 285.09 127.37 281.85C124.31 277.8 123.45 277.89 123.45 277.89C123.45 277.89 121.52 279.06 121.14 281.76C120.75 284.47 116.41 282.15 114.58 280.41C112.75 278.68 112.07 279.26 112.07 279.26Z" fill="#FE4E00" fill-opacity="1.000000" fill-rule="nonzero"/>
	</g>
	<g style="mix-blend-mode:normal">
		<path id="Path 22838" d="M72.78 29.72C73.06 29.59 73.33 29.45 73.58 29.31C73.84 29.16 74.09 29 74.33 28.83C74.57 28.65 74.8 28.46 75 28.25C75.21 28.03 75.39 27.79 75.55 27.54C75.45 27.82 75.2 28.01 75 28.25C74.81 28.48 74.68 28.78 74.43 28.96C73.94 29.32 73.38 29.59 72.78 29.72Z" fill="#663923" fill-opacity="1.000000" fill-rule="nonzero"/>
	</g>
	<g style="mix-blend-mode:normal">
		<path id="Path 22839" d="M80.98 26.83L81.93 27.4L82.41 27.68C82.57 27.78 82.73 27.87 82.88 27.98C82.51 27.89 82.17 27.73 81.85 27.54C81.69 27.44 81.53 27.34 81.39 27.22C81.24 27.11 81.1 26.98 80.98 26.83Z" fill="#663923" fill-opacity="1.000000" fill-rule="nonzero"/>
	</g>
	<g style="mix-blend-mode:normal">
		<path id="Path 22840" d="M68.99 126.36C68.99 126.36 82.56 131.21 94.71 129.47C94.71 129.47 98.47 145.1 97.02 148.86C95.58 152.62 77.91 153.49 73.58 148.86C69.25 144.23 68.99 126.36 68.99 126.36Z" fill="#203052" fill-opacity="1.000000" fill-rule="nonzero"/>
	</g>
	<g style="mix-blend-mode:multiply">
		<g style="mix-blend-mode:normal">
			<path id="Path 22841" d="M100.92 77.9C100.92 77.9 105.6 89.89 105.36 91.15C105.36 91.15 103.89 89.63 95.78 88.65L96.38 78.33L100.92 77.9Z" fill="#FFE2C7" fill-opacity="1.000000" fill-rule="nonzero"/>
		</g>
	</g>
	<g style="mix-blend-mode:normal">
		<path id="Path 22842" d="M107.59 85.66C107.21 86.68 106.54 86.45 106.54 86.45C106.54 86.45 107.32 87.55 106.54 88.3C106.04 88.78 105.27 88.65 104.19 88.8C103.52 88.89 102.48 89.51 102.27 89.78L96.76 88.8L88.47 87.01C88.47 87.01 90.5 84.53 90.72 83.96C90.94 83.39 91.61 80.22 92.84 79.32C93.15 79.08 93.53 78.87 93.93 78.65C95.09 78.03 96.43 77.47 96.85 76.76C97.4 75.81 98.13 75.58 98.13 75.58C98.13 75.58 98.95 75.33 98.84 76.76C98.75 78.01 97.19 79.68 96.82 80.07C96.85 80.06 97.09 80 97.56 79.81C98.47 79.43 99.91 78.86 100.64 78.64C101.75 78.3 104.53 79.09 105.09 79.54C105.65 80 106.76 81.13 106.54 81.69C106.54 81.69 107.32 82.37 107.54 82.94C107.76 83.51 107.1 84.3 107.1 84.3C107.1 84.3 107.97 84.64 107.59 85.66Z" fill="#FFBD81" fill-opacity="1.000000" fill-rule="nonzero"/>
	</g>
	<g style="mix-blend-mode:normal">
		<path id="Path 22843" d="M106.54 81.7C106.17 81.53 105.79 81.38 105.41 81.26C105.02 81.13 104.64 81.01 104.24 80.93C103.85 80.85 103.45 80.78 103.05 80.76C102.65 80.74 102.25 80.76 101.87 80.85L101.83 80.69C102.24 80.61 102.65 80.6 103.06 80.64C103.47 80.67 103.85 80.83 104.24 80.93C104.64 81.03 105.03 81.12 105.41 81.26C105.79 81.4 106.18 81.51 106.54 81.7Z" fill="#D18D4F" fill-opacity="1.000000" fill-rule="nonzero"/>
	</g>
	<g style="mix-blend-mode:normal">
		<path id="Path 22844" d="M107.1 84.3C106.83 84.06 106.51 83.9 106.18 83.76C105.86 83.63 105.52 83.53 105.17 83.46C104.83 83.39 104.48 83.36 104.12 83.33C103.95 83.32 103.77 83.32 103.6 83.32L103.07 83.34L103.06 83.17L103.6 83.17C103.78 83.18 103.96 83.19 104.13 83.21C104.49 83.25 104.83 83.37 105.17 83.46C105.52 83.55 105.86 83.61 106.18 83.76C106.51 83.91 106.84 84.05 107.1 84.3Z" fill="#D18D4F" fill-opacity="1.000000" fill-rule="nonzero"/>
	</g>
	<g style="mix-blend-mode:normal">
		<path id="Path 22845" d="M106.33 86.41C106.18 86.25 105.96 86.17 105.75 86.1C105.54 86.03 105.32 85.99 105.1 85.96C104.88 85.93 104.66 85.91 104.44 85.9C104.22 85.9 103.99 85.9 103.77 85.9L103.77 85.74C104 85.75 104.22 85.76 104.45 85.78C104.67 85.8 104.88 85.91 105.1 85.96C105.32 86 105.54 86.02 105.75 86.1C105.96 86.18 106.18 86.24 106.33 86.41Z" fill="#D18D4F" fill-opacity="1.000000" fill-rule="nonzero"/>
	</g>
	<g style="mix-blend-mode:normal">
		<path id="Path 22846" d="M100.17 78.79L96.63 80.18L96.4 80.27L96.63 80.18C96.93 79.97 97.17 79.67 97.42 79.41C97.55 79.28 97.66 79.14 97.77 78.99C97.89 78.85 97.98 78.7 98.08 78.54C97.99 78.7 97.88 78.85 97.77 78.99C97.67 79.14 97.54 79.27 97.42 79.41C97.18 79.68 96.93 79.96 96.63 80.18L100.11 78.64L100.17 78.79Z" fill="#D18D4F" fill-opacity="1.000000" fill-rule="nonzero"/>
	</g>
	<g style="mix-blend-mode:normal">
		<path id="Path 22847" d="M105.43 91.47C105.41 91.4 104.56 89.78 88.46 87.09L88.49 86.92C104.96 89.68 105.58 91.35 105.59 91.42L105.43 91.47Z" fill="#D18D4F" fill-opacity="1.000000" fill-rule="nonzero"/>
	</g>
	<g style="mix-blend-mode:normal">
		<path id="Path 22848" d="M72.32 93.6C72.11 89.84 69.3 83.19 69.27 83.12L69.42 83.06C69.45 83.12 72.28 89.81 72.48 93.59L72.32 93.6Z" fill="#D18D4F" fill-opacity="1.000000" fill-rule="nonzero"/>
	</g>
	<g style="mix-blend-mode:normal">
		<path id="Path 22849" d="M70.89 290.98L89 290.98L88.3 292.28L71.37 292.28L70.89 290.98Z" fill="#C4C4C4" fill-opacity="1.000000" fill-rule="nonzero"/>
	</g>
	<g style="mix-blend-mode:normal">
		<path id="Path 22850" d="M76.39 282.5C76.27 282.5 76.17 282.42 76.14 282.31C76.11 282.17 76.19 282.04 76.33 282C78.94 281.37 82.61 281.67 82.77 281.68C82.91 281.69 83.01 281.81 83 281.95C82.99 282.09 82.87 282.19 82.73 282.18C82.69 282.18 78.92 281.89 76.39 282.5Z" fill="#C4C4C4" fill-opacity="1.000000" fill-rule="nonzero"/>
	</g>
	<g style="mix-blend-mode:normal">
		<path id="Path 22851" d="M76.87 284.47C76.75 284.47 76.64 284.39 76.62 284.27C76.6 284.13 76.69 284 76.83 283.98C77.04 283.94 82.16 283.09 84.76 283.66C84.89 283.69 84.98 283.82 84.95 283.96C84.92 284.09 84.79 284.18 84.65 284.15C82.15 283.6 76.92 284.47 76.87 284.47Z" fill="#C4C4C4" fill-opacity="1.000000" fill-rule="nonzero"/>
	</g>
	<g style="mix-blend-mode:normal">
		<path id="Path 22852" d="M123.39 283.3C123.29 283.3 123.19 283.24 123.15 283.14C123.1 283.01 123.17 282.86 123.3 282.81C123.4 282.78 125.78 281.89 127.33 281.6C127.47 281.58 127.6 281.67 127.62 281.81C127.65 281.94 127.56 282.07 127.42 282.1C125.92 282.37 123.41 283.29 123.39 283.3Z" fill="#C4C4C4" fill-opacity="1.000000" fill-rule="nonzero"/>
	</g>
	<g style="mix-blend-mode:normal">
		<path id="Path 22853" d="M126.6 285.62C126.52 285.62 126.43 285.57 126.38 285.49C126.32 285.37 126.36 285.22 126.48 285.15C126.57 285.1 128.71 283.89 130.4 283.47C130.54 283.44 130.67 283.52 130.7 283.66C130.74 283.79 130.66 283.93 130.52 283.96C128.9 284.36 126.75 285.57 126.73 285.58C126.69 285.61 126.64 285.62 126.6 285.62Z" fill="#C4C4C4" fill-opacity="1.000000" fill-rule="nonzero"/>
	</g>
	<g style="mix-blend-mode:normal">
		<path id="Path 22854" d="M112.07 292.28L111.41 290.98L143.15 291.28L143.13 292.28L112.07 292.28Z" fill="#C4C4C4" fill-opacity="1.000000" fill-rule="nonzero"/>
	</g>
	<g style="mix-blend-mode:normal">
		<path id="Path 22855" d="M106.88 87.38C106.93 87.48 106.94 87.6 106.92 87.71C106.9 87.82 106.86 87.93 106.78 88.02C106.64 88.21 106.44 88.33 106.23 88.43C106.12 88.47 106.02 88.52 105.91 88.55C105.8 88.58 105.69 88.62 105.58 88.64C105.35 88.7 105.13 88.73 104.9 88.77L103.4 89.12L102.09 89.85L102.01 89.71L103.36 89.01L104.9 88.77C105.13 88.74 105.36 88.69 105.58 88.64C105.69 88.62 105.8 88.58 105.91 88.55C106.02 88.52 106.12 88.47 106.23 88.43C106.44 88.33 106.64 88.2 106.78 88.02C106.86 87.94 106.9 87.82 106.92 87.71C106.95 87.6 106.93 87.48 106.88 87.38Z" fill="#D18D4F" fill-opacity="1.000000" fill-rule="nonzero"/>
	</g>
	<g style="mix-blend-mode:normal">
		<path id="Path 22856" d="M103.37 88.54L103.21 88.5C104.65 81.63 100.14 79.2 100.1 79.17L100.18 79.03C100.22 79.05 104.84 81.54 103.37 88.54Z" fill="#D18D4F" fill-opacity="1.000000" fill-rule="nonzero"/>
	</g>
	<g style="mix-blend-mode:multiply">
		<g style="mix-blend-mode:normal">
			<path id="Path 22857" d="M81.56 34.83C81.52 34.81 81.17 34.64 80.41 34.64C79.09 34.65 77.35 37.59 74.62 37.01C73.13 36.7 72.48 35.45 72.41 35.29C72.49 35.45 73.23 36.72 75.55 35.95C78.02 35.12 79.62 33.17 81.56 34.83Z" fill="#D9C3B8" fill-opacity="1.000000" fill-rule="nonzero"/>
		</g>
	</g>
	<g style="mix-blend-mode:multiply">
		<g style="mix-blend-mode:normal">
			<path id="Path 22858" d="M86.58 33.19C85.67 35.18 84.15 34.1 83.14 33.99C82.16 33.89 81.59 34.78 81.56 34.83C81.59 34.76 82.37 33.07 83.1 33.35C83.84 33.64 85.54 35.25 86.58 33.19Z" fill="#D9C3B8" fill-opacity="1.000000" fill-rule="nonzero"/>
		</g>
	</g>
	<g style="mix-blend-mode:multiply">
		<g style="mix-blend-mode:normal">
			<path id="Path 22859" d="M85.25 46.09C85.44 44.98 84.73 43.34 84.73 43.34C84.49 46.14 81.79 52.12 81.79 52.12C81.16 51.2 79.57 51.05 76.77 49.75C73.97 48.45 70.32 44.98 70.32 44.98C70.1 46.11 70.53 47.28 70.56 47.34C66.71 44.59 64.42 41.28 62.98 37.03C61.83 33.66 61.79 27.34 61.83 24.9L62.09 25.42L62.04 25.66C62.04 25.66 63.41 35.52 67.63 40.66L67.63 38.78C67.63 38.78 71.45 44.62 75.16 46.15C75.16 46.15 74.77 45.11 74.82 44.54C74.82 44.54 77.39 47.11 78.88 48.14C80.36 49.16 81.39 49.68 81.56 50.48C81.56 50.48 84.64 45.34 84.64 41.12L85.84 44.1C85.53 45.34 85.25 46.09 85.25 46.09Z" fill="#D9C3B8" fill-opacity="1.000000" fill-rule="nonzero"/>
		</g>
	</g>
	<g style="mix-blend-mode:normal">
		<path id="Path 22860" d="M49.9 10.81C58.45 5.71 66.12 10.29 66.12 10.29C61.33 9.55 55.36 10.29 55.36 10.29L49.9 10.81Z" fill="#663923" fill-opacity="1.000000" fill-rule="nonzero"/>
	</g>
	<g style="mix-blend-mode:normal">
		<path id="Path 22861" d="M79.13 7.53C79.13 7.53 78.79 1.62 74.55 0L76.77 2.83C76.77 2.83 78.62 4.96 79.13 7.53Z" fill="#663923" fill-opacity="1.000000" fill-rule="nonzero"/>
	</g>
	<g style="mix-blend-mode:normal">
		<path id="Path 22862" d="M210.33 161.89L158.8 161.89C158.8 161.89 158.22 159.46 157.32 155.5C153.73 139.55 145.11 98.85 149.27 92.6C152.17 88.26 169.94 84.45 186.71 82.61C200.03 81.14 212.71 80.92 216.83 82.64C226.14 86.54 210.33 161.89 210.33 161.89Z" fill="#203052" fill-opacity="1.000000" fill-rule="nonzero"/>
	</g>
	<g style="mix-blend-mode:normal">
		<path id="Path 22863" d="M171.87 186.9C171.87 186.9 176.42 206.38 178.36 207.36C180.31 208.33 190.7 208.33 192.65 207.36C194.6 206.38 197.85 186.9 197.85 186.9L171.87 186.9Z" fill="#757575" fill-opacity="1.000000" fill-rule="nonzero"/>
	</g>
	<g style="mix-blend-mode:normal">
		<path id="Path 22864" d="M152.52 180.72C152.52 180.72 152.52 186.25 155.45 187.55C158.37 188.84 214.55 188.52 216.5 187.55C218.45 186.57 219.76 179.88 219.76 179.88L152.52 180.72Z" fill="#1C1E31" fill-opacity="1.000000" fill-rule="nonzero"/>
	</g>
	<g style="mix-blend-mode:normal">
		<path id="Path 22865" d="M147.62 166.95C143 165.38 140.11 160.36 139.03 152.05C138.27 146.19 138.7 140.83 138.72 140.6L142.08 140.88C141.61 146.46 141.9 161.44 148.71 163.76L147.62 166.95ZM142.08 140.88L140.4 140.74L142.08 140.88Z" fill="#878787" fill-opacity="1.000000" fill-rule="nonzero"/>
	</g>
	<g style="mix-blend-mode:normal">
		<path id="Path 22866" d="M220.77 166.95L219.68 163.76C223.8 162.36 225.4 156.38 226.02 151.61C226.74 146.11 226.32 140.93 226.31 140.88L229.67 140.6C229.69 140.83 230.12 146.19 229.36 152.05C228.28 160.36 225.39 165.38 220.77 166.95Z" fill="#878787" fill-opacity="1.000000" fill-rule="nonzero"/>
	</g>
	<g style="mix-blend-mode:normal">
		<path id="Path 22867" d="M158.8 161.89C158.8 161.89 146.68 159.94 144.08 166.11C141.48 172.28 149.6 182.35 149.6 182.35L223.32 179.75C223.32 179.75 228.84 163.84 225.27 161.89C221.7 159.94 158.8 161.89 158.8 161.89Z" fill="#203052" fill-opacity="1.000000" fill-rule="nonzero"/>
	</g>
	<g style="mix-blend-mode:normal">
		<rect id="Rectangle 1422" x="182.267578" y="208.082031" width="5.512083" height="53.190247" fill="#999999" fill-opacity="1.000000"/>
	</g>
	<g style="mix-blend-mode:normal">
		<rect id="Rectangle 1423" x="178.183594" y="247.307617" width="13.315598" height="27.930286" fill="#757575" fill-opacity="1.000000"/>
	</g>
	<g style="mix-blend-mode:normal">
		<path id="Path 22868" d="M151.04 288.55C152.2 287.9 178.18 275.23 178.18 275.23L191.5 275.23L221.37 288.55L151.04 288.55Z" fill="#999999" fill-opacity="1.000000" fill-rule="nonzero"/>
	</g>
	<g style="mix-blend-mode:normal">
		<path id="Path 22869" d="M151.04 288.55L151.04 291.93L221.37 291.93L221.37 288.55L191.5 275.23L178.18 275.23C191.5 277.51 212.28 285.32 204.65 286.69C197.02 288.06 151.04 288.55 151.04 288.55Z" fill="#757575" fill-opacity="1.000000" fill-rule="nonzero"/>
	</g>
	<g style="mix-blend-mode:normal">
		<path id="Path 22870" d="M178.18 276.42L159.83 286.69L174.61 286.69L178.18 276.42Z" fill="#CCCCCC" fill-opacity="1.000000" fill-rule="nonzero"/>
	</g>
	<g style="mix-blend-mode:normal">
		<rect id="Rectangle 1424" x="179.644531" y="248.768555" width="2.598169" height="24.195433" fill="#B3B3B3" fill-opacity="1.000000"/>
	</g>
	<g style="mix-blend-mode:normal">
		<path id="Path 22871" d="M175.69 191.33L179.64 204.31L182.24 204.31L175.69 191.33Z" fill="#B3B3B3" fill-opacity="1.000000" fill-rule="nonzero"/>
	</g>
	<g style="mix-blend-mode:normal">
		<path id="Path 22872" d="M182.24 210.39L186.14 210.39L186.14 247.3L188.03 247.3L188.03 208.03L182.24 207.99L182.24 210.39Z" fill="#757575" fill-opacity="1.000000" fill-rule="nonzero"/>
	</g>
	<g style="mix-blend-mode:multiply">
		<g style="mix-blend-mode:normal">
			<path id="Path 22873" d="M210.33 161.89L158.8 161.89C158.8 161.89 158.22 159.46 157.33 155.5C203.39 158.91 209.59 110.81 207.41 94.06C206.27 85.31 196.35 82.86 186.72 82.61C200.03 81.14 212.71 80.92 216.83 82.64C226.14 86.54 210.33 161.89 210.33 161.89Z" fill="#D99E98" fill-opacity="1.000000" fill-rule="nonzero"/>
		</g>
	</g>
	<g style="mix-blend-mode:normal">
		<path id="Path 22874" d="M153.41 137.07C153.41 137.07 136.5 133.74 134.34 134.39C132.17 135.04 132.39 139.8 133.04 140.45C133.68 141.1 154.1 140.45 154.1 140.45L153.41 137.07Z" fill="#203052" fill-opacity="1.000000" fill-rule="nonzero"/>
	</g>
	<g style="mix-blend-mode:normal">
		<path id="Path 22875" d="M214.97 137.07C214.97 137.07 231.89 133.74 234.05 134.39C236.22 135.04 236 139.8 235.35 140.45C234.7 141.1 214.29 140.45 214.29 140.45L214.97 137.07Z" fill="#203052" fill-opacity="1.000000" fill-rule="nonzero"/>
	</g>
	<g style="mix-blend-mode:normal">
		<rect id="Rectangle 1373" x="273.583984" y="260.316406" width="38.052723" height="5.228611" fill="#263238" fill-opacity="1.000000"/>
	</g>
	<g style="mix-blend-mode:normal">
		<path id="Path 22357" d="M311.7 265.6L273.51 265.6L273.51 260.25L311.7 260.25L311.7 265.6ZM273.65 265.48L311.57 265.48L311.57 260.38L273.65 260.38L273.65 265.48Z" fill="#263238" fill-opacity="1.000000" fill-rule="nonzero"/>
	</g>
	<g style="mix-blend-mode:normal">
		<path id="Path 22358" d="M277.11 263.8L282.59 290.82L302.85 290.82L308.15 265.54L277.11 263.8Z" fill="#263238" fill-opacity="1.000000" fill-rule="nonzero"/>
	</g>
	<g style="mix-blend-mode:normal">
		<path id="Path 22359" d="M277.11 288.27L280.03 292.28L304.66 292.28L308.15 288.27L277.11 288.27Z" fill="#455A64" fill-opacity="1.000000" fill-rule="nonzero"/>
	</g>
	<g style="mix-blend-mode:normal">
		<path id="Path 22360" d="M291.18 264.59C291.1 264.59 291.01 252.07 290.96 236.63C290.92 221.19 290.95 208.67 291.02 208.67C291.1 208.67 291.19 221.19 291.24 236.63C291.28 252.07 291.25 264.59 291.18 264.59Z" fill="#263238" fill-opacity="1.000000" fill-rule="nonzero"/>
	</g>
	<g style="mix-blend-mode:normal">
		<path id="Path 22361" d="M299.65 233.26C299.66 233.27 299.63 233.37 299.55 233.55C299.46 233.77 299.35 234.03 299.21 234.36C299.14 234.54 299.05 234.74 298.96 234.95C298.89 235.17 298.8 235.4 298.71 235.66C298.62 235.91 298.52 236.19 298.42 236.47C298.32 236.76 298.24 237.08 298.14 237.4C297.72 238.7 297.39 240.29 297.07 242.06C296.79 243.84 296.59 245.81 296.48 247.89C296.3 252.05 296.53 255.81 296.78 258.53C296.91 259.89 297.03 260.99 297.12 261.74C297.16 262.1 297.19 262.39 297.21 262.62C297.23 262.82 297.24 262.93 297.23 262.93C297.22 262.93 297.25 262.82 297.21 262.62C297.18 262.39 297.07 262.11 297.01 261.76C296.89 261 296.74 259.91 296.59 258.55C296.29 255.83 296.02 252.05 296.21 247.87C296.32 245.79 296.53 243.81 296.82 242.02C297.16 240.24 297.51 238.64 297.95 237.35C298.06 237.02 298.15 236.71 298.25 236.42C298.36 236.13 298.47 235.86 298.57 235.6C298.67 235.35 298.76 235.12 298.84 234.9C298.94 234.68 299.13 234.54 299.21 234.36C299.37 234.04 299.45 233.76 299.55 233.55C299.64 233.37 299.65 233.26 299.65 233.26Z" fill="#263238" fill-opacity="1.000000" fill-rule="nonzero"/>
	</g>
	<g style="mix-blend-mode:normal">
		<path id="Path 22362" d="M298.68 223.14C298.69 223.14 298.65 223.28 298.56 223.55C298.46 223.84 298.33 224.23 298.16 224.71C298.07 224.97 297.98 225.25 297.87 225.55C297.78 225.86 297.68 226.2 297.57 226.56C297.34 227.29 297.09 228.11 296.86 229.04C296.73 229.5 296.61 229.98 296.47 230.48C296.36 230.99 296.24 231.52 296.12 232.07C295.85 233.16 295.66 234.34 295.42 235.58C295 238.06 294.63 240.81 294.37 243.71C294.13 246.61 294.03 249.39 293.99 251.91C293.98 254.43 294.01 256.7 294.12 258.61C294.15 259.56 294.21 260.42 294.26 261.18C294.3 261.94 294.35 262.59 294.4 263.12C294.44 263.63 294.47 264.04 294.49 264.35C294.51 264.63 294.52 264.77 294.51 264.78C294.5 264.78 294.53 264.63 294.49 264.35C294.46 264.04 294.36 263.64 294.3 263.13C294.23 262.6 294.17 261.95 294.11 261.19C294.05 260.43 293.97 259.57 293.93 258.62C293.8 256.71 293.75 254.43 293.74 251.91C293.76 249.38 293.86 246.6 294.1 243.69C294.36 240.78 294.73 238.02 295.17 235.53C295.42 234.29 295.62 233.11 295.9 232.02C296.03 231.47 296.15 230.94 296.27 230.43C296.41 229.93 296.54 229.45 296.67 228.99C296.91 228.06 297.18 227.24 297.42 226.52C297.54 226.16 297.65 225.82 297.75 225.51C297.86 225.21 298.07 224.97 298.16 224.71C298.35 224.23 298.45 223.84 298.56 223.55C298.66 223.29 298.67 223.13 298.68 223.14Z" fill="#263238" fill-opacity="1.000000" fill-rule="nonzero"/>
	</g>
	<g style="mix-blend-mode:normal">
		<path id="Path 22363" d="M288.77 266.8C288.77 266.8 288.76 266.75 288.75 266.66C288.74 266.54 288.73 266.4 288.71 266.23C288.69 265.83 288.65 265.27 288.6 264.57C288.51 263.11 288.38 261.03 288.22 258.47C287.89 253.32 287.41 246.21 286.55 238.39C286.1 234.48 285.59 230.77 285.06 227.4C284.77 225.72 284.51 224.12 284.22 222.63C283.96 221.14 283.67 219.76 283.4 218.5C283.15 217.23 282.87 216.1 282.65 215.1C282.43 214.1 282.22 213.24 282.04 212.55C281.87 211.86 281.74 211.32 281.64 210.93C281.6 210.76 281.57 210.62 281.55 210.51C281.53 210.42 281.52 210.37 281.52 210.36C281.53 210.36 281.52 210.42 281.55 210.51C281.58 210.62 281.59 210.76 281.64 210.93C281.75 211.32 281.95 211.84 282.14 212.52C282.33 213.21 282.56 214.07 282.8 215.07C283.03 216.06 283.33 217.19 283.59 218.46C283.87 219.72 284.17 221.1 284.44 222.59C284.75 224.08 285.01 225.68 285.3 227.36C285.85 230.73 286.37 234.45 286.82 238.36C287.68 246.19 288.13 253.31 288.41 258.46C288.55 261.04 288.65 263.12 288.71 264.56C288.73 265.27 288.7 265.83 288.71 266.23C288.72 266.4 288.75 266.54 288.75 266.66C288.75 266.76 288.78 266.8 288.77 266.8Z" fill="#263238" fill-opacity="1.000000" fill-rule="nonzero"/>
	</g>
	<g style="mix-blend-mode:normal">
		<path id="Path 22364" d="M290.87 214.69C290.7 212.92 288.91 211.58 287.13 211.56C285.35 211.54 283.69 212.61 282.6 214.02C281.51 215.43 280.91 217.15 280.42 218.86C279.22 223.04 278.56 227.43 279.07 231.75C279.59 236.06 281.34 240.31 284.43 243.36C284.94 243.86 285.59 244.35 286.28 244.21C286.66 244.13 286.97 243.86 287.26 243.6C293.34 238.11 296.85 229.87 296.61 221.68C296.57 220.04 296.35 218.33 295.44 216.96C294.53 215.59 292.41 214.14 290.87 214.69Z" fill="#3F8E8F" fill-opacity="1.000000" fill-rule="nonzero"/>
	</g>
	<g style="mix-blend-mode:normal">
		<path id="Path 22365" d="M291.02 208.67C283.48 204.22 275.94 199.77 268.4 195.32C268.17 195.18 267.92 195.02 267.85 194.77C267.76 194.43 268.01 194.11 268.25 193.86C271.36 190.65 275.88 188.79 280.34 189.11C284.8 189.43 289.09 192.01 291.27 195.91C293.45 199.81 293.52 204.97 291.02 208.67Z" fill="#3F8E8F" fill-opacity="1.000000" fill-rule="nonzero"/>
	</g>
	<g style="mix-blend-mode:normal">
		<path id="Path 22366" d="M271.66 191.06C271.66 191.05 271.76 191.04 271.95 191.02C272.15 191.01 272.44 190.98 272.81 190.98C273.55 190.96 274.63 191.01 275.95 191.23C277.26 191.45 278.81 191.87 280.42 192.59C282.03 193.31 283.7 194.34 285.22 195.7C286.72 197.08 287.92 198.64 288.79 200.17C289.67 201.7 290.25 203.2 290.59 204.48C290.94 205.77 291.1 206.84 291.15 207.58C291.19 207.95 291.18 208.04 291.19 208.24C291.19 208.43 291.02 208.73 291.01 208.73C290.99 208.73 291.14 208.32 291.05 207.59C290.96 206.86 290.77 205.8 290.41 204.53C289.69 202.02 288.03 198.62 285.03 195.9C282.04 193.2 278.49 191.88 275.91 191.42C274.62 191.18 273.55 191.1 272.81 191.09C272.07 191.07 271.66 191.08 271.66 191.06Z" fill="#263238" fill-opacity="1.000000" fill-rule="nonzero"/>
	</g>
	<g style="mix-blend-mode:normal">
		<path id="Path 22367" d="M287.96 199.46C287.97 199.49 287.53 199.69 286.81 199.98C286.09 200.26 285.09 200.62 283.96 200.98C282.83 201.34 281.8 201.62 281.05 201.81C280.3 201.99 279.82 202.08 279.81 202.04C279.8 202.01 280.26 201.85 281 201.62C281.83 201.36 282.8 201.06 283.88 200.72C284.95 200.38 285.92 200.06 286.75 199.8C287.49 199.56 287.94 199.42 287.96 199.46Z" fill="#263238" fill-opacity="1.000000" fill-rule="nonzero"/>
	</g>
	<g style="mix-blend-mode:normal">
		<path id="Path 22368" d="M284.4 189.89C284.47 189.88 284.63 191.01 284.66 192.41C284.7 193.81 284.6 194.95 284.52 194.94C284.45 194.94 284.43 193.81 284.39 192.42C284.36 191.02 284.32 189.89 284.4 189.89Z" fill="#263238" fill-opacity="1.000000" fill-rule="nonzero"/>
	</g>
	<g style="mix-blend-mode:normal">
		<path id="Path 22369" d="M268.2 195.07C268.19 195.03 268.81 194.81 269.84 194.49C270.87 194.17 272.3 193.77 273.9 193.39C275.49 193 276.95 192.71 278.01 192.52C279.07 192.34 279.73 192.25 279.74 192.29C279.74 192.33 279.1 192.48 278.05 192.71C277 192.94 275.55 193.27 273.96 193.65C272.37 194.03 270.93 194.41 269.89 194.67C268.85 194.94 268.21 195.11 268.2 195.07Z" fill="#263238" fill-opacity="1.000000" fill-rule="nonzero"/>
	</g>
	<g style="mix-blend-mode:normal">
		<path id="Path 22370" d="M281.48 210.84C279.53 209.37 277.47 209.08 275.03 209.17C272.59 209.27 270.22 210.01 267.98 210.99C264.17 212.66 260.58 215.13 258.3 218.61C256.02 222.1 255.23 226.71 256.93 230.51C257.11 230.89 257.33 231.28 257.71 231.45C258.11 231.62 258.57 231.49 258.99 231.35C263.32 229.93 267.69 228.51 271.68 226.29C275.67 224.07 279.3 220.99 281.44 216.96C281.96 215.99 282.39 214.96 282.47 213.86C282.56 212.77 282.26 211.61 281.48 210.84Z" fill="#3F8E8F" fill-opacity="1.000000" fill-rule="nonzero"/>
	</g>
	<g style="mix-blend-mode:normal">
		<path id="Path 22371" d="M281.51 210.38C281.52 210.39 281.41 210.44 281.2 210.51C280.97 210.59 280.67 210.7 280.29 210.82C280.09 210.89 279.87 210.96 279.63 211.04C279.4 211.13 279.14 211.24 278.86 211.34C278.32 211.56 277.68 211.79 277.01 212.11C276.67 212.27 276.31 212.43 275.94 212.6C275.57 212.77 275.21 212.98 274.82 213.18C274.03 213.56 273.24 214.06 272.39 214.56C270.72 215.61 268.96 216.87 267.25 218.37C265.55 219.88 264.07 221.46 262.82 222.98C262.21 223.75 261.62 224.48 261.14 225.21C260.89 225.57 260.64 225.91 260.42 226.25C260.21 226.6 260 226.93 259.8 227.25C259.4 227.87 259.1 228.48 258.8 228.99C258.66 229.25 258.52 229.49 258.41 229.72C258.3 229.94 258.2 230.15 258.11 230.34C257.93 230.7 257.79 230.98 257.68 231.2C257.58 231.4 257.52 231.5 257.52 231.5C257.51 231.49 257.6 231.41 257.68 231.2C257.78 230.98 257.95 230.71 258.11 230.34C258.19 230.15 258.19 229.89 258.29 229.66C258.4 229.43 258.53 229.19 258.67 228.92C258.95 228.4 259.24 227.78 259.64 227.15C259.83 226.83 260.03 226.49 260.24 226.14C260.46 225.79 260.71 225.45 260.95 225.08C261.43 224.34 262.02 223.61 262.62 222.82C263.87 221.28 265.36 219.68 267.07 218.16C268.8 216.66 270.57 215.39 272.26 214.34C273.11 213.85 273.92 213.36 274.71 212.97C275.11 212.78 275.48 212.57 275.85 212.41C276.23 212.24 276.59 212.09 276.93 211.94C277.61 211.62 278.26 211.41 278.81 211.2C279.09 211.1 279.35 211 279.59 210.92C279.84 210.85 280.06 210.78 280.26 210.72C280.64 210.61 280.96 210.58 281.2 210.51C281.41 210.45 281.51 210.37 281.51 210.38Z" fill="#263238" fill-opacity="1.000000" fill-rule="nonzero"/>
	</g>
	<g style="mix-blend-mode:normal">
		<path id="Path 22372" d="M266.32 218.61C266.34 218.69 264.22 219.37 261.58 220.14C258.95 220.91 256.79 221.48 256.77 221.41C256.75 221.33 258.87 220.65 261.51 219.88C264.14 219.11 266.29 218.54 266.32 218.61Z" fill="#263238" fill-opacity="1.000000" fill-rule="nonzero"/>
	</g>
	<g style="mix-blend-mode:normal">
		<path id="Path 22373" d="M266.12 229.06C266.08 229.06 266.04 228.5 266.02 227.58C265.99 226.67 265.99 225.41 266.03 224.02C266.07 222.63 266.14 221.37 266.22 220.46C266.29 219.55 266.36 218.99 266.4 219C266.44 219 266.43 219.56 266.41 220.47C266.38 221.47 266.34 222.69 266.3 224.03C266.26 225.37 266.23 226.59 266.21 227.58C266.18 228.49 266.16 229.06 266.12 229.06Z" fill="#263238" fill-opacity="1.000000" fill-rule="nonzero"/>
	</g>
	<g style="mix-blend-mode:normal">
		<path id="Path 22374" d="M275.07 224.5C274.99 224.51 274.75 221.94 274.53 218.78C274.32 215.62 274.2 213.05 274.27 213.04C274.35 213.04 274.59 215.6 274.81 218.76C275.02 221.93 275.14 224.5 275.07 224.5Z" fill="#263238" fill-opacity="1.000000" fill-rule="nonzero"/>
	</g>
	<g style="mix-blend-mode:normal">
		<path id="Path 22375" d="M263.93 212.79C263.93 212.76 264.51 212.74 265.45 212.75C266.38 212.76 267.67 212.78 269.1 212.83C270.52 212.88 271.81 212.93 272.75 212.99C273.68 213.05 274.26 213.1 274.26 213.14C274.26 213.17 273.68 213.19 272.74 213.18C271.81 213.18 270.52 213.15 269.09 213.1C267.66 213.05 266.37 213 265.44 212.94C264.5 212.88 263.93 212.83 263.93 212.79Z" fill="#263238" fill-opacity="1.000000" fill-rule="nonzero"/>
	</g>
	<g style="mix-blend-mode:normal">
		<path id="Path 22376" d="M285.41 243.96C285.4 243.96 285.39 243.85 285.37 243.65C285.36 243.43 285.35 243.14 285.34 242.78C285.3 242.03 285.29 240.93 285.32 239.58C285.35 238.23 285.44 236.62 285.6 234.83C285.78 233.05 286.03 231.1 286.4 229.06C286.77 227.03 287.22 225.11 287.68 223.38C288.16 221.65 288.64 220.11 289.1 218.83C289.55 217.55 289.94 216.53 290.24 215.83C290.38 215.5 290.49 215.24 290.58 215.03C290.66 214.84 290.71 214.75 290.72 214.75C290.73 214.76 290.65 214.84 290.58 215.03C290.51 215.24 290.36 215.49 290.24 215.83C289.97 216.54 289.7 217.61 289.28 218.89C288.85 220.17 288.39 221.72 287.93 223.44C287.48 225.17 287.04 227.08 286.67 229.11C286.3 231.14 286.04 233.08 285.85 234.86C285.67 236.63 285.56 238.24 285.51 239.59C285.46 240.93 285.44 242.03 285.44 242.78C285.43 243.14 285.38 243.43 285.37 243.65C285.37 243.85 285.42 243.96 285.41 243.96Z" fill="#263238" fill-opacity="1.000000" fill-rule="nonzero"/>
	</g>
	<g style="mix-blend-mode:normal">
		<path id="Path 22377" d="M286.6 229.14C286.62 229.17 286.28 229.55 285.7 230.14C285.11 230.72 284.28 231.5 283.33 232.33C282.38 233.16 281.5 233.89 280.84 234.39C280.19 234.89 279.76 235.18 279.74 235.16C279.72 235.13 280.1 234.78 280.72 234.24C281.42 233.64 282.24 232.92 283.15 232.13C284.06 231.33 284.88 230.61 285.57 229.99C286.18 229.45 286.57 229.12 286.6 229.14Z" fill="#263238" fill-opacity="1.000000" fill-rule="nonzero"/>
	</g>
	<g style="mix-blend-mode:normal">
		<path id="Path 22378" d="M293.76 234.91C293.73 234.93 293.37 234.42 292.8 233.58C292.18 232.68 291.41 231.56 290.56 230.32C289.69 229.09 288.91 227.98 288.28 227.09C287.69 226.26 287.34 225.75 287.37 225.72C287.4 225.7 287.81 226.18 288.43 226.97C289.06 227.77 289.9 228.89 290.79 230.16C291.67 231.43 292.43 232.61 292.96 233.48C293.49 234.34 293.79 234.89 293.76 234.91Z" fill="#263238" fill-opacity="1.000000" fill-rule="nonzero"/>
	</g>
	<g style="mix-blend-mode:normal">
		<path id="Path 22379" d="M290.01 216.77C290.05 216.83 287.67 218.43 284.7 220.35C281.72 222.26 279.28 223.76 279.24 223.7C279.2 223.63 281.57 222.03 284.55 220.12C287.52 218.21 289.97 216.71 290.01 216.77Z" fill="#263238" fill-opacity="1.000000" fill-rule="nonzero"/>
	</g>
	<g style="mix-blend-mode:normal">
		<path id="Path 22380" d="M296.72 224.01C296.66 224.06 295.05 222.58 293.12 220.69C291.18 218.8 289.66 217.22 289.71 217.17C289.76 217.11 291.37 218.6 293.31 220.49C295.24 222.38 296.77 223.96 296.72 224.01Z" fill="#263238" fill-opacity="1.000000" fill-rule="nonzero"/>
	</g>
	<g style="mix-blend-mode:normal">
		<path id="Path 22381" d="M298.4 223.87L300.44 223.7C301.89 223.58 303.3 223.15 304.57 222.43C305.19 222.08 305.82 221.74 306.49 221.47C309.01 220.46 311.83 220.64 314.55 220.5C318.98 220.28 323.37 219.16 327.37 217.22C327.6 217.11 327.8 216.94 327.93 216.72C328.35 215.95 327.57 215.27 326.9 214.86C323.46 212.74 319.95 210.59 316.05 209.54C312.15 208.49 307.72 208.66 304.4 210.96C300.49 213.64 299.06 219.17 298.4 223.87Z" fill="#3F8E8F" fill-opacity="1.000000" fill-rule="nonzero"/>
	</g>
	<g style="mix-blend-mode:normal">
		<path id="Path 22382" d="M327.97 216.46C327.97 216.47 327.85 216.42 327.63 216.3C327.38 216.18 327.06 216.01 326.66 215.8C325.82 215.35 324.61 214.7 323.09 213.97C321.56 213.25 319.7 212.43 317.55 211.84C315.41 211.24 312.93 210.93 310.38 211.26C307.84 211.59 305.5 212.58 303.84 214.06C302.17 215.54 301.15 217.33 300.43 218.85C299.72 220.38 299.28 221.68 298.95 222.57C298.8 223 298.68 223.34 298.59 223.6C298.51 223.84 298.46 223.96 298.45 223.95C298.44 223.95 298.52 223.84 298.59 223.6C298.67 223.34 298.82 223 298.95 222.57C299.25 221.67 299.56 220.32 300.26 218.77C300.96 217.23 301.98 215.4 303.68 213.88C305.36 212.35 307.76 211.33 310.34 210.99C312.94 210.66 315.45 210.98 317.62 211.6C319.79 212.21 321.65 213.05 323.17 213.8C324.69 214.56 325.84 215.33 326.66 215.8C327.05 216.03 327.39 216.16 327.63 216.3C327.84 216.43 327.98 216.46 327.97 216.46Z" fill="#263238" fill-opacity="1.000000" fill-rule="nonzero"/>
	</g>
	<g style="mix-blend-mode:normal">
		<path id="Path 22383" d="M323.07 219.1C323.03 219.16 320.36 217.43 317.1 215.24C313.85 213.05 311.25 211.22 311.29 211.16C311.33 211.1 314 212.82 317.26 215.02C320.51 217.21 323.11 219.04 323.07 219.1Z" fill="#263238" fill-opacity="1.000000" fill-rule="nonzero"/>
	</g>
	<g style="mix-blend-mode:normal">
		<path id="Path 22384" d="M320.22 211.02C320.24 211.08 319.37 211.28 318.28 211.37C317.18 211.46 316.29 211.4 316.29 211.34C316.29 211.28 317.18 211.23 318.25 211.14C319.33 211.05 320.21 210.95 320.22 211.02Z" fill="#263238" fill-opacity="1.000000" fill-rule="nonzero"/>
	</g>
	<g style="mix-blend-mode:normal">
		<path id="Path 22385" d="M308.53 209.49C308.59 209.52 308.2 210.14 307.65 210.86C307.1 211.59 306.61 212.15 306.54 212.12C306.48 212.09 306.87 211.48 307.42 210.75C307.97 210.03 308.46 209.46 308.53 209.49Z" fill="#263238" fill-opacity="1.000000" fill-rule="nonzero"/>
	</g>
	<g style="mix-blend-mode:normal">
		<path id="Path 22386" d="M310.92 220.67C310.9 220.7 310.41 220.44 309.64 219.98C308.86 219.51 307.82 218.82 306.71 218.01C305.6 217.2 304.61 216.44 303.91 215.88C303.2 215.32 302.77 214.96 302.8 214.93C302.82 214.9 303.29 215.2 304.02 215.72C304.82 216.31 305.79 217.01 306.87 217.79C307.98 218.6 309 219.31 309.74 219.81C310.48 220.32 310.94 220.64 310.92 220.67Z" fill="#263238" fill-opacity="1.000000" fill-rule="nonzero"/>
	</g>
	<g style="mix-blend-mode:normal">
		<path id="Path 22387" d="M301.41 232.54C299.46 232.03 297.14 233.92 296.74 235.9C296.34 237.87 297.08 239.89 297.94 241.71C299.86 245.73 302.51 249.47 306 252.25C309.49 255.02 313.85 256.8 318.31 256.78C317.49 252.95 318.53 248.96 318.07 245.07C317.67 241.68 316.09 238.44 313.67 236.04C311.24 233.64 307.98 232.09 304.59 231.72C303.34 231.59 301.91 231.39 301.41 232.54Z" fill="#3F8E8F" fill-opacity="1.000000" fill-rule="nonzero"/>
	</g>
	<g style="mix-blend-mode:normal">
		<path id="Path 22388" d="M318.31 256.78C318.31 256.79 318.22 256.74 318.04 256.65C317.86 256.55 317.61 256.4 317.31 256.16C316.7 255.7 316 254.8 315.39 253.59C315.07 252.99 314.73 252.33 314.39 251.61C314.06 250.88 313.71 250.1 313.34 249.29C312.97 248.48 312.56 247.64 312.05 246.81C311.55 245.99 310.95 245.19 310.28 244.4C308.95 242.84 307.52 241.48 306.28 240.19C305.03 238.9 303.98 237.66 303.22 236.53C302.46 235.4 301.99 234.39 301.73 233.68C301.61 233.32 301.51 233.04 301.47 232.84C301.42 232.65 301.4 232.54 301.41 232.54C301.43 232.53 301.45 232.98 301.73 233.68C302.02 234.37 302.6 235.32 303.38 236.42C304.15 237.52 305.2 238.74 306.46 240.02C307.7 241.3 309.14 242.65 310.49 244.23C311.16 245.02 311.77 245.84 312.28 246.68C312.79 247.52 313.2 248.37 313.57 249.19C313.93 250 314.27 250.78 314.59 251.51C314.92 252.23 315.26 252.9 315.56 253.5C316.14 254.72 316.73 255.68 317.31 256.16C317.88 256.65 318.33 256.75 318.31 256.78Z" fill="#263238" fill-opacity="1.000000" fill-rule="nonzero"/>
	</g>
	<g style="mix-blend-mode:normal">
		<path id="Path 22389" d="M308.24 253.6C308.21 253.59 308.27 253.09 308.42 252.29C308.57 251.49 308.82 250.39 309.16 249.19C309.5 247.99 309.86 246.92 310.15 246.15C310.44 245.39 310.65 244.93 310.68 244.94C310.72 244.96 310.57 245.44 310.33 246.22C310.09 246.99 309.76 248.07 309.42 249.26C309.09 250.45 308.81 251.54 308.61 252.33C308.41 253.12 308.28 253.61 308.24 253.6Z" fill="#263238" fill-opacity="1.000000" fill-rule="nonzero"/>
	</g>
	<g style="mix-blend-mode:normal">
		<path id="Path 22390" d="M317.94 244.21C317.93 244.25 317.41 244.12 316.57 243.9C315.73 243.68 314.57 243.38 313.29 243.09C312 242.8 310.82 242.57 309.97 242.41C309.11 242.25 308.59 242.15 308.59 242.11C308.6 242.07 309.14 242.11 310 242.22C310.86 242.33 312.05 242.53 313.35 242.82C314.64 243.12 315.8 243.45 316.63 243.71C317.45 243.98 317.96 244.18 317.94 244.21Z" fill="#263238" fill-opacity="1.000000" fill-rule="nonzero"/>
	</g>
	<g style="mix-blend-mode:normal">
		<path id="Path 22391" d="M301.01 246.94C300.98 246.93 301.06 246.35 301.23 245.42C301.4 244.49 301.67 243.22 302.03 241.82C302.4 240.42 302.79 239.17 303.09 238.28C303.4 237.38 303.61 236.84 303.65 236.85C303.69 236.86 303.53 237.43 303.27 238.34C303.02 239.24 302.66 240.5 302.3 241.89C301.93 243.28 301.63 244.55 301.41 245.46C301.19 246.38 301.05 246.95 301.01 246.94Z" fill="#263238" fill-opacity="1.000000" fill-rule="nonzero"/>
	</g>
	<g style="mix-blend-mode:normal">
		<path id="Path 22392" d="M313.48 236.03C313.47 236.11 311.04 235.91 308.05 235.59C305.05 235.27 302.64 234.96 302.64 234.88C302.65 234.81 305.08 235.01 308.07 235.32C311.07 235.64 313.48 235.96 313.48 236.03Z" fill="#263238" fill-opacity="1.000000" fill-rule="nonzero"/>
	</g>
	<g style="mix-blend-mode:normal">
		<path id="Path 22393" d="M311.7 265.52C311.7 265.59 303.15 265.65 292.61 265.65C282.06 265.65 273.52 265.59 273.52 265.52C273.52 265.44 282.06 265.38 292.61 265.38C303.15 265.38 311.7 265.44 311.7 265.52Z" fill="#455A64" fill-opacity="1.000000" fill-rule="nonzero"/>
	</g>
	<g style="mix-blend-mode:normal">
		<path id="Path 22394" d="M305.75 276.52C305.75 276.59 299.99 276.65 292.89 276.65C285.78 276.65 280.02 276.59 280.02 276.52C280.02 276.44 285.78 276.38 292.89 276.38C299.99 276.38 305.75 276.44 305.75 276.52Z" fill="#455A64" fill-opacity="1.000000" fill-rule="nonzero"/>
	</g>
	<g style="mix-blend-mode:normal">
		<path id="Path 22395" d="M305.52 278.09C305.52 278.17 299.87 278.23 292.89 278.23C285.91 278.23 280.25 278.17 280.25 278.09C280.25 278.01 285.91 277.95 292.89 277.95C299.87 277.95 305.52 278.01 305.52 278.09Z" fill="#455A64" fill-opacity="1.000000" fill-rule="nonzero"/>
	</g>
	<g style="mix-blend-mode:normal">
		<path id="Path 22396" d="M305.97 275.22C305.97 275.3 300.02 275.36 292.67 275.36C285.32 275.36 279.37 275.3 279.37 275.22C279.37 275.15 285.32 275.09 292.67 275.09C300.02 275.09 305.97 275.15 305.97 275.22Z" fill="#455A64" fill-opacity="1.000000" fill-rule="nonzero"/>
	</g>
</svg>
