<svg width="80.000000" height="73.000000" viewBox="0 0 80 73" fill="none" xmlns="http://www.w3.org/2000/svg" xmlns:xlink="http://www.w3.org/1999/xlink">
	<desc>
			Created with Pixso.
	</desc>
	<defs/>
	<g style="mix-blend-mode:normal">
		<rect id="Rectangle 1942" rx="10.000000" width="80.000000" height="73.000000" fill="#000000" fill-opacity="0"/>
		<rect id="Rectangle 1942" x="0.500000" y="0.500000" rx="10.000000" width="79.000000" height="72.000000" stroke="#203052" stroke-opacity="1.000000" stroke-width="1.000000"/>
	</g>
	<g style="mix-blend-mode:normal">
		<path id="Stroke 4" d="M47.09 23.08L47.09 16.27C47.09 15.56 46.51 14.98 45.81 14.98L31.03 14.98C30.33 14.98 29.76 15.56 29.76 16.27L29.76 31.14C29.76 31.85 30.33 32.43 31.03 32.43L37.34 32.43" stroke="#203052" stroke-opacity="1.000000" stroke-width="1.000000" stroke-linejoin="round"/>
	</g>
	<g style="mix-blend-mode:normal">
		<path id="Stroke 6" d="M45.15 30.76L42.79 28.4L42.79 25.05" stroke="#203052" stroke-opacity="1.000000" stroke-width="1.000000" stroke-linejoin="round"/>
	</g>
	<g style="mix-blend-mode:normal">
		<path id="Stroke 8" d="M42.79 35.24C39.01 35.24 35.95 32.18 35.95 28.4C35.95 24.62 39.01 21.55 42.79 21.55C46.57 21.55 49.63 24.62 49.63 28.4C49.63 32.18 46.57 35.24 42.79 35.24Z" stroke="#203052" stroke-opacity="1.000000" stroke-width="1.000000"/>
	</g>
	<mask id="mask1_13474" mask-type="alpha" maskUnits="userSpaceOnUse" x="27.650391" y="11.812500" width="24.098633" height="24.098633">
		<g style="mix-blend-mode:normal">
			<path id="Clip 11" d="M27.65 35.91L51.74 35.91L51.74 11.81L27.65 11.81L27.65 35.91Z" fill="#203052" fill-opacity="1.000000" fill-rule="nonzero"/>
		</g>
	</mask>
	<g mask="url(#mask1_13474)">
		<g style="mix-blend-mode:normal">
			<path id="Fill 10" d="M31.5 18.46L33.72 18.46L33.72 17.01L31.5 17.01L31.5 18.46Z" fill="#203052" fill-opacity="1.000000" fill-rule="nonzero"/>
		</g>
		<g style="mix-blend-mode:normal">
			<path id="Fill 12" d="M34.83 18.46L37.05 18.46L37.05 17.01L34.83 17.01L34.83 18.46Z" fill="#203052" fill-opacity="1.000000" fill-rule="nonzero"/>
		</g>
		<g style="mix-blend-mode:normal">
			<path id="Fill 13" d="M38.16 18.46L40.38 18.46L40.38 17.01L38.16 17.01L38.16 18.46Z" fill="#203052" fill-opacity="1.000000" fill-rule="nonzero"/>
		</g>
		<g style="mix-blend-mode:normal">
			<path id="Fill 14" d="M41.49 18.46L43.71 18.46L43.71 17.01L41.49 17.01L41.49 18.46Z" fill="#203052" fill-opacity="1.000000" fill-rule="nonzero"/>
		</g>
		<g style="mix-blend-mode:normal">
			<path id="Fill 15" d="M31.5 21.02L33.72 21.02L33.72 19.57L31.5 19.57L31.5 21.02Z" fill="#203052" fill-opacity="1.000000" fill-rule="nonzero"/>
		</g>
		<g style="mix-blend-mode:normal">
			<path id="Fill 16" d="M34.83 21.02L37.05 21.02L37.05 19.57L34.83 19.57L34.83 21.02Z" fill="#203052" fill-opacity="1.000000" fill-rule="nonzero"/>
		</g>
		<g style="mix-blend-mode:normal">
			<path id="Fill 17" d="M31.5 23.58L33.72 23.58L33.72 22.13L31.5 22.13L31.5 23.58Z" fill="#203052" fill-opacity="1.000000" fill-rule="nonzero"/>
		</g>
		<g style="mix-blend-mode:normal">
			<path id="Fill 18" d="M31.5 26.15L33.72 26.15L33.72 24.7L31.5 24.7L31.5 26.15Z" fill="#203052" fill-opacity="1.000000" fill-rule="nonzero"/>
		</g>
	</g>
	<g style="mix-blend-mode:normal">
		<path id="Calander" d="M16.32 47.67C18.37 47.67 20.04 48.91 20.42 51L19.19 51C18.89 49.58 17.68 48.83 16.32 48.83C14.47 48.83 13.02 50.26 13.02 52.91C13.02 55.55 14.47 56.98 16.32 56.98C17.68 56.98 18.89 56.22 19.19 54.81L20.42 54.81C20.04 56.9 18.37 58.14 16.32 58.14C13.72 58.14 11.83 56.13 11.83 52.91C11.83 49.68 13.72 47.67 16.32 47.67ZM30.14 47.81L31.32 47.81L31.32 58L30.14 58L30.14 47.81ZM54.66 56.82C54.41 57.24 53.91 58.16 52.44 58.16C50.53 58.16 49.2 56.62 49.2 54.2C49.2 51.79 50.53 50.26 52.46 50.26C53.95 50.26 54.41 51.17 54.66 51.57L54.77 51.57L54.77 47.81L55.94 47.81L55.94 58L54.8 58L54.8 56.82L54.66 56.82ZM67.57 58L66.4 58L66.4 50.36L67.53 50.36L67.53 51.51L67.61 51.51C67.89 50.76 68.68 50.24 69.6 50.24C69.77 50.24 70.08 50.25 70.22 50.26L70.22 51.45C70.14 51.43 69.81 51.37 69.5 51.37C68.39 51.37 67.57 52.13 67.57 53.16L67.57 58ZM26.77 56.96C26.53 57.46 25.83 58.17 24.5 58.17C23.05 58.17 21.89 57.32 21.89 55.83C21.89 54.08 23.44 53.76 24.85 53.58C26.25 53.4 26.82 53.45 26.82 52.89L26.82 52.84C26.82 51.87 26.29 51.29 25.21 51.29C24.1 51.29 23.48 51.89 23.22 52.45L22.11 52.05C22.71 50.66 24.02 50.26 25.17 50.26C26.15 50.26 28 50.54 28 52.96L28 58L26.82 58L26.82 56.96L26.77 56.96ZM37.98 56.96C37.74 57.46 37.04 58.17 35.72 58.17C34.26 58.17 33.11 57.32 33.11 55.83C33.11 54.08 34.66 53.76 36.07 53.58C37.47 53.4 38.04 53.45 38.04 52.89L38.04 52.84C38.04 51.87 37.51 51.29 36.43 51.29C35.31 51.29 34.7 51.89 34.44 52.45L33.33 52.05C33.92 50.66 35.24 50.26 36.39 50.26C37.37 50.26 39.22 50.54 39.22 52.96L39.22 58L38.04 58L38.04 56.96L37.98 56.96ZM44.48 51.31C43.36 51.31 42.53 52.07 42.53 53.4L42.53 58L41.36 58L41.36 50.36L42.5 50.36L42.5 51.55L42.59 51.55C42.95 50.78 43.67 50.26 44.82 50.26C46.37 50.26 47.41 51.19 47.41 53.14L47.41 58L46.23 58L46.23 53.22C46.23 52.02 45.57 51.31 44.48 51.31ZM64.49 56.22C64.13 57.38 63 58.16 61.45 58.16C59.24 58.16 57.89 56.58 57.89 54.24C57.89 51.89 59.26 50.26 61.33 50.26C62.92 50.26 64.61 51.23 64.61 54.08L64.61 54.57L59.06 54.57C59.12 56.21 60.07 57.1 61.45 57.1C62.37 57.1 63.06 56.7 63.35 55.91L64.49 56.22ZM50.37 54.18C50.37 55.81 51.13 57.1 52.6 57.1C54.01 57.1 54.78 55.91 54.78 54.18C54.78 52.47 54.03 51.31 52.6 51.31C51.11 51.31 50.37 52.57 50.37 54.18ZM61.33 51.31C59.98 51.31 59.14 52.37 59.06 53.56L63.42 53.56C63.42 52.27 62.6 51.31 61.33 51.31ZM23.07 55.89C23.07 56.7 23.74 57.12 24.68 57.12C26.07 57.12 26.82 56.19 26.82 55.23L26.82 54.16C26.63 54.4 25.29 54.54 24.8 54.59C23.88 54.71 23.07 54.99 23.07 55.89ZM34.28 55.89C34.28 56.7 34.96 57.12 35.89 57.12C37.28 57.12 38.04 56.19 38.04 55.23L38.04 54.16C37.84 54.4 36.51 54.54 36.01 54.59C35.1 54.71 34.28 54.99 34.28 55.89Z" fill="#203052" fill-opacity="1.000000" fill-rule="evenodd"/>
		<path id="Calander" d="M20.42 51C20.04 48.91 18.37 47.67 16.32 47.67C13.72 47.67 11.83 49.68 11.83 52.91C11.83 56.13 13.72 58.14 16.32 58.14C18.37 58.14 20.04 56.9 20.42 54.81L19.19 54.81C18.89 56.22 17.68 56.98 16.32 56.98C14.47 56.98 13.02 55.55 13.02 52.91C13.02 50.26 14.47 48.83 16.32 48.83C17.68 48.83 18.89 49.58 19.19 51L20.42 51ZM24.5 58.17C25.83 58.17 26.53 57.46 26.77 56.96L26.82 56.96L26.82 58L28 58L28 52.96C28 50.54 26.15 50.26 25.17 50.26C24.02 50.26 22.71 50.66 22.11 52.05L23.22 52.45C23.48 51.89 24.1 51.29 25.21 51.29C26.29 51.29 26.82 51.87 26.82 52.84L26.82 52.89C26.82 53.45 26.25 53.4 24.85 53.58C23.44 53.76 21.89 54.08 21.89 55.83C21.89 57.32 23.05 58.17 24.5 58.17ZM24.68 57.12C23.74 57.12 23.07 56.7 23.07 55.89C23.07 54.99 23.88 54.71 24.8 54.59C25.29 54.54 26.63 54.4 26.82 54.16L26.82 55.23C26.82 56.19 26.07 57.12 24.68 57.12ZM31.32 47.81L30.14 47.81L30.14 58L31.32 58L31.32 47.81ZM35.72 58.17C37.04 58.17 37.74 57.46 37.98 56.96L38.04 56.96L38.04 58L39.22 58L39.22 52.96C39.22 50.54 37.37 50.26 36.39 50.26C35.24 50.26 33.92 50.66 33.33 52.05L34.44 52.45C34.7 51.89 35.31 51.29 36.43 51.29C37.51 51.29 38.04 51.87 38.04 52.84L38.04 52.89C38.04 53.45 37.47 53.4 36.07 53.58C34.66 53.76 33.11 54.08 33.11 55.83C33.11 57.32 34.26 58.17 35.72 58.17ZM35.89 57.12C34.96 57.12 34.28 56.7 34.28 55.89C34.28 54.99 35.1 54.71 36.01 54.59C36.51 54.54 37.84 54.4 38.04 54.16L38.04 55.23C38.04 56.19 37.28 57.12 35.89 57.12ZM42.53 53.4C42.53 52.07 43.36 51.31 44.48 51.31C45.57 51.31 46.23 52.02 46.23 53.22L46.23 58L47.41 58L47.41 53.14C47.41 51.19 46.37 50.26 44.82 50.26C43.67 50.26 42.95 50.78 42.59 51.55L42.5 51.55L42.5 50.36L41.36 50.36L41.36 58L42.53 58L42.53 53.4ZM52.44 58.16C53.91 58.16 54.41 57.24 54.66 56.82L54.8 56.82L54.8 58L55.94 58L55.94 47.81L54.77 47.81L54.77 51.57L54.66 51.57C54.41 51.17 53.95 50.26 52.46 50.26C50.53 50.26 49.2 51.79 49.2 54.2C49.2 56.62 50.53 58.16 52.44 58.16ZM52.6 57.1C51.13 57.1 50.37 55.81 50.37 54.18C50.37 52.57 51.11 51.31 52.6 51.31C54.03 51.31 54.78 52.47 54.78 54.18C54.78 55.91 54.01 57.1 52.6 57.1ZM61.45 58.16C63 58.16 64.13 57.38 64.49 56.22L63.35 55.91C63.06 56.7 62.37 57.1 61.45 57.1C60.07 57.1 59.12 56.21 59.06 54.57L64.61 54.57L64.61 54.08C64.61 51.23 62.92 50.26 61.33 50.26C59.26 50.26 57.89 51.89 57.89 54.24C57.89 56.58 59.24 58.16 61.45 58.16ZM59.06 53.56C59.14 52.37 59.98 51.31 61.33 51.31C62.6 51.31 63.42 52.27 63.42 53.56L59.06 53.56ZM66.4 58L67.57 58L67.57 53.16C67.57 52.13 68.39 51.37 69.5 51.37C69.81 51.37 70.14 51.43 70.22 51.45L70.22 50.26C70.08 50.25 69.77 50.24 69.6 50.24C68.68 50.24 67.89 50.76 67.61 51.51L67.53 51.51L67.53 50.36L66.4 50.36L66.4 58Z" stroke="#707070" stroke-opacity="0" stroke-width="1.000000"/>
	</g>
</svg>
