<svg width="24.000000" height="24.000000" viewBox="0 0 24 24" fill="none" xmlns="http://www.w3.org/2000/svg" xmlns:xlink="http://www.w3.org/1999/xlink">
	<desc>
			Created with Pixso.
	</desc>
	<defs/>
	<g style="mix-blend-mode:normal">
		<line id="Line 1132" x1="15.500000" y1="3.750000" x2="8.500000" y2="3.750000" stroke="#FE4E00" stroke-opacity="1.000000" stroke-width="1.000000"/>
	</g>
	<g style="mix-blend-mode:normal">
		<path id="Path 12825" d="M18.5 3.75L22 3.75L22 7.75L22 23.25L2 23.25L2 7.75L2 3.75L5.5 3.75L18.5 3.75Z" fill="#FE4E00" fill-opacity="1.000000" fill-rule="nonzero"/>
		<path id="Path 12825" d="M18.5 3.75L22 3.75L22 7.75L22 23.25L2 23.25L2 7.75L2 3.75L5.5 3.75" stroke="#FE4E00" stroke-opacity="1.000000" stroke-width="1.000000" stroke-linejoin="round"/>
	</g>
	<g style="mix-blend-mode:normal">
		<line id="Line 1133" x1="22.000000" y1="7.750000" x2="2.000000" y2="7.750000" stroke="#FE4E00" stroke-opacity="1.000000" stroke-width="1.000000"/>
	</g>
	<g style="mix-blend-mode:normal">
		<path id="Path 12826" d="M8.46 14.54L10.69 16.78L16.03 11.29L17.81 13.07L10.69 20.2L6.68 16.19L8.46 14.54Z" fill="#FFFFFF" fill-opacity="1.000000" fill-rule="nonzero"/>
		<path id="Path 12826" d="M10.69 16.78L16.03 11.29L17.81 13.07L10.69 20.2L6.68 16.19L8.46 14.54L10.69 16.78Z" stroke="#FFFFFF" stroke-opacity="1.000000" stroke-width="1.000000" stroke-linejoin="round"/>
	</g>
	<g style="mix-blend-mode:normal">
		<rect id="Rectangle 1069" x="5.500000" y="0.750000" width="3.000000" height="5.000000" fill="#FFFFFF" fill-opacity="1.000000"/>
		<rect id="Rectangle 1069" x="5.500000" y="0.750000" width="3.000000" height="5.000000" stroke="#FE4E00" stroke-opacity="1.000000" stroke-width="1.000000" stroke-linejoin="round"/>
	</g>
	<g style="mix-blend-mode:normal">
		<rect id="Rectangle 1070" x="15.500000" y="0.750000" width="3.000000" height="5.000000" fill="#FFFFFF" fill-opacity="1.000000"/>
		<rect id="Rectangle 1070" x="15.500000" y="0.750000" width="3.000000" height="5.000000" stroke="#FE4E00" stroke-opacity="1.000000" stroke-width="1.000000" stroke-linejoin="round"/>
	</g>
	<g style="mix-blend-mode:normal"/>
</svg>
