<svg width="24.000000" height="24.000000" viewBox="0 0 24 24" fill="none" xmlns="http://www.w3.org/2000/svg" xmlns:xlink="http://www.w3.org/1999/xlink">
	<desc>
			Created with Pixso.
	</desc>
	<defs/>
	<g style="mix-blend-mode:normal">
		<path id="Path 11956" d="M18.73 14.13C17.68 13.08 15.89 13.5 15.47 14.87C15.15 15.81 14.1 16.34 13.16 16.13C11.06 15.6 8.21 12.87 7.69 10.67C7.37 9.73 8 8.68 8.95 8.36C10.31 7.94 10.73 6.15 9.68 5.1L6.74 2.16C5.9 1.43 4.64 1.43 3.9 2.16L1.91 4.16C-0.09 6.26 2.12 11.82 7.06 16.76C12.01 21.7 17.59 24 19.69 21.9L21.69 19.9C22.41 19.06 22.41 17.8 21.67 17.07L18.73 14.13Z" stroke="#F5743B" stroke-opacity="1.000000" stroke-width="1.000000"/>
	</g>
	<g style="mix-blend-mode:normal"/>
</svg>
