<svg width="192.000000" height="168.000977" viewBox="0 0 192 168.001" fill="none" xmlns="http://www.w3.org/2000/svg" xmlns:xlink="http://www.w3.org/1999/xlink">
	<desc>
			Created with Pixso.
	</desc>
	<defs>
		<linearGradient x1="88.096161" y1="20.554688" x2="88.096161" y2="136.524933" id="paint_linear_1_3858_0" gradientUnits="userSpaceOnUse">
			<stop stop-color="#FF402D"/>
			<stop offset="1.000000" stop-color="#FE4E00"/>
		</linearGradient>
	</defs>
	<g style="mix-blend-mode:normal">
		<rect id="Rectangle 1131" width="192.000000" height="168.000000" fill="#FFFFFF" fill-opacity="0"/>
		<rect id="Rectangle 1131" x="0.500000" y="0.500000" width="191.000000" height="167.000000" stroke="#707070" stroke-opacity="0" stroke-width="1.000000"/>
	</g>
	<g style="mix-blend-mode:normal">
		<ellipse id="&lt;Path&gt;" cx="99.906250" cy="162.820312" rx="77.442337" ry="4.522745" fill="#F5F5F5" fill-opacity="1.000000"/>
	</g>
	<g style="mix-blend-mode:normal">
		<path id="Path 13350" d="M74.41 99.2L47.89 99.2L46.28 80.62L72.8 80.62L74.41 99.2Z" fill="#E6E6E6" fill-opacity="1.000000" fill-rule="nonzero"/>
	</g>
	<g style="mix-blend-mode:normal">
		<path id="Path 13351" d="M75.78 99.2L49.26 99.2L47.65 80.62L74.17 80.62L75.78 99.2Z" fill="#F0F0F0" fill-opacity="1.000000" fill-rule="nonzero"/>
	</g>
	<g style="mix-blend-mode:normal">
		<path id="Path 13352" d="M52.89 95.21L52 84.61L70.55 84.61L71.43 95.21L52.89 95.21Z" fill="#FFFFFF" fill-opacity="1.000000" fill-rule="nonzero"/>
	</g>
	<g style="mix-blend-mode:normal">
		<rect id="Rectangle 1098" x="77.267578" y="99.199219" width="3.111766" height="34.641258" fill="#E6E6E6" fill-opacity="1.000000"/>
	</g>
	<g style="mix-blend-mode:normal">
		<rect id="Rectangle 1099" x="79.199219" y="99.199219" width="2.161117" height="34.641258" fill="#F0F0F0" fill-opacity="1.000000"/>
	</g>
	<g style="mix-blend-mode:normal">
		<rect id="Rectangle 1100" x="81.361328" y="103.023438" width="30.119642" height="3.823444" transform="rotate(180 81.361328 103.023438)" fill="#F0F0F0" fill-opacity="1.000000"/>
	</g>
	<g style="mix-blend-mode:normal">
		<rect id="Rectangle 1101" x="49.195312" y="103.023438" width="3.111846" height="30.817816" fill="#E6E6E6" fill-opacity="1.000000"/>
	</g>
	<g style="mix-blend-mode:normal">
		<rect id="Rectangle 1102" x="51.126953" y="103.023438" width="2.161117" height="30.817816" fill="#F0F0F0" fill-opacity="1.000000"/>
	</g>
	<g style="mix-blend-mode:normal">
		<rect id="Rectangle 1103" x="27.042969" y="103.023438" width="3.111846" height="30.817816" fill="#E6E6E6" fill-opacity="1.000000"/>
	</g>
	<g style="mix-blend-mode:normal">
		<rect id="Rectangle 1104" x="28.976562" y="103.023438" width="2.161077" height="30.817816" fill="#F0F0F0" fill-opacity="1.000000"/>
	</g>
	<g style="mix-blend-mode:normal">
		<rect id="Rectangle 1105" x="57.574219" y="103.023438" width="3.111846" height="30.817816" fill="#E6E6E6" fill-opacity="1.000000"/>
	</g>
	<g style="mix-blend-mode:normal">
		<rect id="Rectangle 1106" x="59.507812" y="103.023438" width="2.161077" height="30.817816" fill="#F0F0F0" fill-opacity="1.000000"/>
	</g>
	<g style="mix-blend-mode:normal">
		<rect id="Rectangle 1107" x="27.042969" y="99.199219" width="24.197426" height="3.823444" fill="#E6E6E6" fill-opacity="1.000000"/>
	</g>
	<g style="mix-blend-mode:normal">
		<rect id="Rectangle 1108" x="47.873047" y="12.825195" width="93.595100" height="52.105980" fill="#E0E0E0" fill-opacity="1.000000"/>
	</g>
	<g style="mix-blend-mode:normal">
		<rect id="Rectangle 1109" x="48.345703" y="12.825195" width="98.262276" height="52.105980" fill="#F5F5F5" fill-opacity="1.000000"/>
	</g>
	<g style="mix-blend-mode:normal">
		<rect id="Rectangle 1110" x="145.003906" y="14.429688" width="48.895321" height="95.051216" transform="rotate(90 145.003906 14.429688)" fill="#FFFFFF" fill-opacity="1.000000"/>
	</g>
	<g style="mix-blend-mode:normal">
		<path id="Path 13353" d="M88.43 63.32L106.38 14.42L76.76 14.42L58.82 63.32L88.43 63.32Z" fill="#F5F5F5" fill-opacity="1.000000" fill-rule="nonzero"/>
	</g>
	<g style="mix-blend-mode:normal">
		<path id="Path 13354" d="M116.94 63.32L134.89 14.42L112.54 14.42L94.6 63.32L116.94 63.32Z" fill="#F5F5F5" fill-opacity="1.000000" fill-rule="nonzero"/>
	</g>
	<g style="mix-blend-mode:normal">
		<rect id="Rectangle 1111" x="163.179688" y="84.076172" width="7.955877" height="49.765247" fill="#E6E6E6" fill-opacity="1.000000"/>
	</g>
	<g style="mix-blend-mode:normal">
		<path id="Path 13355" d="M169.04 133.84L171.13 133.84L171.13 130L166.85 130L169.04 133.84Z" fill="#FAFAFA" fill-opacity="1.000000" fill-rule="nonzero"/>
	</g>
	<g style="mix-blend-mode:normal">
		<rect id="Rectangle 1112" x="89.822266" y="84.076172" width="7.956037" height="49.765247" fill="#E6E6E6" fill-opacity="1.000000"/>
	</g>
	<g style="mix-blend-mode:normal">
		<rect id="Rectangle 1113" x="95.953125" y="84.076172" width="75.181137" height="48.731289" fill="#FAFAFA" fill-opacity="1.000000"/>
	</g>
	<g style="mix-blend-mode:normal">
		<path id="Path 13356" d="M169.71 99.79L97.37 99.79L97.37 86.03L169.71 86.03L169.71 99.79ZM97.77 99.39L169.31 99.39L169.31 86.43L97.77 86.43L97.77 99.39Z" fill="#E6E6E6" fill-opacity="1.000000" fill-rule="nonzero"/>
	</g>
	<g style="mix-blend-mode:normal">
		<path id="Path 13357" d="M156.97 92.71L111.51 92.71C109.4 92.71 107.37 91.01 105.93 88.04L105.8 87.75L162.69 87.75L162.55 88.04C161.12 91.01 159.08 92.71 156.97 92.71ZM106.44 88.15C107.79 90.8 109.62 92.31 111.51 92.31L156.97 92.31C158.86 92.31 160.69 90.8 162.05 88.15L106.44 88.15Z" fill="#E6E6E6" fill-opacity="1.000000" fill-rule="nonzero"/>
	</g>
	<g style="mix-blend-mode:normal">
		<path id="Path 13358" d="M98.04 133.84L95.95 133.84L95.95 130L100.23 130L98.04 133.84Z" fill="#FAFAFA" fill-opacity="1.000000" fill-rule="nonzero"/>
	</g>
	<g style="mix-blend-mode:normal">
		<path id="Path 13359" d="M169.71 115.32L97.37 115.32L97.37 101.56L169.71 101.56L169.71 115.32ZM97.77 114.92L169.31 114.92L169.31 101.96L97.77 101.96L97.77 114.92Z" fill="#E6E6E6" fill-opacity="1.000000" fill-rule="nonzero"/>
	</g>
	<g style="mix-blend-mode:normal">
		<path id="Path 13360" d="M156.97 108.24L111.51 108.24C109.4 108.24 107.37 106.53 105.93 103.56L105.8 103.28L162.69 103.28L162.55 103.56C161.12 106.53 159.08 108.24 156.97 108.24ZM106.44 103.68C107.79 106.33 109.62 107.84 111.51 107.84L156.97 107.84C158.86 107.84 160.69 106.33 162.05 103.68L106.44 103.68Z" fill="#E6E6E6" fill-opacity="1.000000" fill-rule="nonzero"/>
	</g>
	<g style="mix-blend-mode:normal">
		<path id="Path 13361" d="M169.71 130.84L97.37 130.84L97.37 117.08L169.71 117.08L169.71 130.84ZM97.77 130.44L169.31 130.44L169.31 117.48L97.77 117.48L97.77 130.44Z" fill="#E6E6E6" fill-opacity="1.000000" fill-rule="nonzero"/>
	</g>
	<g style="mix-blend-mode:normal">
		<path id="Path 13362" d="M156.97 123.76L111.51 123.76C109.4 123.76 107.37 122.06 105.93 119.09L105.8 118.8L162.69 118.8L162.55 119.09C161.12 122.06 159.08 123.76 156.97 123.76ZM106.44 119.2C107.79 121.85 109.62 123.36 111.51 123.36L156.97 123.36C158.86 123.36 160.69 121.85 162.05 119.2L106.44 119.2Z" fill="#E6E6E6" fill-opacity="1.000000" fill-rule="nonzero"/>
	</g>
	<g style="mix-blend-mode:normal">
		<path id="Path 13363" d="M44.46 90.65L44.46 91.62L43.85 91.62L43.34 99.2L35.81 99.2L35.3 91.62L34.68 91.62L34.68 90.65L44.46 90.65Z" fill="#E6E6E6" fill-opacity="1.000000" fill-rule="nonzero"/>
	</g>
	<g style="mix-blend-mode:normal">
		<path id="Path 13364" d="M41.99 71.85C41.37 67.34 35.28 66.05 27.55 65.89C20.2 65.73 17.84 63.13 17.84 63.13C17.84 63.13 17.87 73.66 28.46 77.48C38.52 81.1 42.61 76.37 41.99 71.85Z" fill="#E6E6E6" fill-opacity="1.000000" fill-rule="nonzero"/>
	</g>
	<g style="mix-blend-mode:normal">
		<path id="Path 13365" d="M38.23 82.08C38.36 80.23 41.32 76.82 48.45 78.37C53.6 79.49 55.52 76.82 55.52 76.82C55.52 76.82 55.04 84.36 47.29 86.62C39.93 88.78 38 85.35 38.23 82.08Z" fill="#E6E6E6" fill-opacity="1.000000" fill-rule="nonzero"/>
	</g>
	<g style="mix-blend-mode:normal">
		<path id="Path 13366" d="M39.86 93.5C39.94 93.5 40.01 93.46 40.07 93.4C40.58 92.79 40.16 91.33 39.58 89.3C38.83 86.71 37.89 83.47 38.68 81.12C39.13 79.8 39.68 78.63 40.22 77.5C41.33 75.14 42.3 73.09 41.5 70.96C41.44 70.82 41.28 70.74 41.14 70.8C41 70.85 40.93 71.01 40.98 71.15C41.71 73.07 40.83 74.92 39.72 77.27C39.2 78.36 38.62 79.59 38.16 80.95C37.32 83.46 38.28 86.78 39.05 89.46C39.5 91.03 39.98 92.66 39.65 93.05C39.55 93.16 39.57 93.33 39.68 93.43C39.73 93.48 39.8 93.5 39.86 93.5Z" fill="#E6E6E6" fill-opacity="1.000000" fill-rule="nonzero"/>
	</g>
	<g style="mix-blend-mode:normal">
		<path id="Path 13497" d="M138.26 142.63L139.37 165.83C139.37 165.83 92.3 117.18 86.43 102.95C80.57 88.72 91.61 53.52 91.61 53.52L116.1 68.12L138.26 142.63Z" fill="#FF9688" fill-opacity="1.000000" fill-rule="nonzero"/>
		<path id="Path 13497" d="M139.37 165.83C139.37 165.83 92.3 117.18 86.43 102.95C80.57 88.72 91.61 53.52 91.61 53.52L116.1 68.12L138.26 142.63L139.37 165.83Z" stroke="#707070" stroke-opacity="0" stroke-width="1.000000"/>
	</g>
	<g style="mix-blend-mode:normal">
		<path id="Path 13498" d="M62.09 42.62L53.29 43.46C53.29 43.46 48.68 53.52 62.93 54.35L62.09 42.62Z" fill="#FF9688" fill-opacity="1.000000" fill-rule="nonzero"/>
		<path id="Path 13498" d="M53.29 43.46C53.29 43.46 48.68 53.52 62.93 54.35L62.09 42.62L53.29 43.46Z" stroke="#707070" stroke-opacity="0" stroke-width="1.000000"/>
	</g>
	<g style="mix-blend-mode:normal">
		<path id="Path 13499" d="M62.09 58.12L53.29 58.96C53.29 58.96 48.68 69.01 62.93 69.85L62.09 58.12Z" fill="#FF9688" fill-opacity="1.000000" fill-rule="nonzero"/>
		<path id="Path 13499" d="M53.29 58.96C53.29 58.96 48.68 69.01 62.93 69.85L62.09 58.12L53.29 58.96Z" stroke="#707070" stroke-opacity="0" stroke-width="1.000000"/>
	</g>
	<g style="mix-blend-mode:normal">
		<path id="Path 13500" d="M62.09 74.88L53.29 75.72C53.29 75.72 48.68 85.77 62.93 86.61L62.09 74.88Z" fill="#FF9688" fill-opacity="1.000000" fill-rule="nonzero"/>
		<path id="Path 13500" d="M53.29 75.72C53.29 75.72 48.68 85.77 62.93 86.61L62.09 74.88L53.29 75.72Z" stroke="#707070" stroke-opacity="0" stroke-width="1.000000"/>
	</g>
	<g style="mix-blend-mode:normal">
		<path id="Path 13501" d="M64.6 91.63L55.81 92.47C55.81 92.47 51.2 102.52 65.44 103.36L64.6 91.63Z" fill="#FF9688" fill-opacity="1.000000" fill-rule="nonzero"/>
		<path id="Path 13501" d="M55.81 92.47C55.81 92.47 51.2 102.52 65.44 103.36L64.6 91.63L55.81 92.47Z" stroke="#707070" stroke-opacity="0" stroke-width="1.000000"/>
	</g>
	<g style="mix-blend-mode:normal">
		<path id="Path 13502" d="M57.81 46.66L58.47 46.66L58.47 28.38C58.47 22.54 63.21 17.8 69.06 17.8L107.79 17.8C113.64 17.8 118.38 22.54 118.38 28.38L118.38 128.69C118.38 134.53 113.64 139.27 107.79 139.27L69.06 139.27C63.21 139.27 58.47 134.53 58.47 128.69L58.47 59.68L57.81 59.68L57.81 46.66Z" fill="#203052" fill-opacity="1.000000" fill-rule="nonzero"/>
		<path id="Path 13502" d="M58.47 46.66L58.47 28.38C58.47 22.54 63.21 17.8 69.06 17.8L107.79 17.8C113.64 17.8 118.38 22.54 118.38 28.38L118.38 128.69C118.38 134.53 113.64 139.27 107.79 139.27L69.06 139.27C63.21 139.27 58.47 134.53 58.47 128.69L58.47 59.68L57.81 59.68L57.81 46.66L58.47 46.66Z" stroke="#707070" stroke-opacity="0" stroke-width="1.000000"/>
	</g>
	<g style="mix-blend-mode:normal">
		<path id="Path 13503" d="M68.63 20.55L73.68 20.55C73.21 21.71 73.35 23.02 74.05 24.06C74.74 25.1 75.91 25.72 77.16 25.72L99.35 25.72C100.6 25.72 101.77 25.1 102.47 24.06C103.17 23.02 103.3 21.71 102.83 20.55L107.55 20.55C111.92 20.55 115.46 24.09 115.46 28.45L115.46 128.62C115.46 132.98 111.92 136.52 107.55 136.52L68.63 136.52C64.26 136.52 60.73 132.98 60.73 128.62L60.73 28.45C60.73 24.09 64.26 20.55 68.63 20.55Z" fill="url(#paint_linear_1_3858_0)" fill-opacity="1.000000" fill-rule="nonzero"/>
		<path id="Path 13503" d="M73.68 20.55C73.21 21.71 73.35 23.02 74.05 24.06C74.74 25.1 75.91 25.72 77.16 25.72L99.35 25.72C100.6 25.72 101.77 25.1 102.47 24.06C103.17 23.02 103.3 21.71 102.83 20.55L107.55 20.55C111.92 20.55 115.46 24.09 115.46 28.45L115.46 128.62C115.46 132.98 111.92 136.52 107.55 136.52L68.63 136.52C64.26 136.52 60.73 132.98 60.73 128.62L60.73 28.45C60.73 24.09 64.26 20.55 68.63 20.55L73.68 20.55Z" stroke="#707070" stroke-opacity="0" stroke-width="1.000000"/>
	</g>
	<g style="mix-blend-mode:normal">
		<rect id="Rectangle 1116" x="79.755859" y="48.615234" width="16.679300" height="4.024877" fill="#203052" fill-opacity="1.000000"/>
		<rect id="Rectangle 1116" x="79.755859" y="48.615234" width="16.679300" height="4.024877" stroke="#707070" stroke-opacity="0" stroke-width="1.000000"/>
	</g>
	<g style="mix-blend-mode:normal">
		<rect id="Rectangle 1117" x="78.962891" y="65.910156" width="18.267437" height="4.024877" fill="#FFFFFF" fill-opacity="1.000000"/>
		<rect id="Rectangle 1117" x="78.962891" y="65.910156" width="18.267437" height="4.024877" stroke="#707070" stroke-opacity="0" stroke-width="1.000000"/>
	</g>
	<g style="mix-blend-mode:normal">
		<rect id="Rectangle 1118" x="67.710938" y="74.556641" width="40.771183" height="4.024877" fill="#FFFFFF" fill-opacity="1.000000"/>
		<rect id="Rectangle 1118" x="67.710938" y="74.556641" width="40.771183" height="4.024877" stroke="#707070" stroke-opacity="0" stroke-width="1.000000"/>
	</g>
	<g style="mix-blend-mode:normal">
		<rect id="Rectangle 1119" x="67.710938" y="83.202148" width="40.771183" height="4.024877" fill="#FFFFFF" fill-opacity="1.000000"/>
		<rect id="Rectangle 1119" x="67.710938" y="83.202148" width="40.771183" height="4.024877" stroke="#707070" stroke-opacity="0" stroke-width="1.000000"/>
	</g>
	<g style="mix-blend-mode:normal">
		<path id="Path 13504" d="M162.03 143.17L142.3 113.21L140.63 78.86L123.04 49.54L118.01 36.97C118.01 36.97 106.28 38.23 115.92 62.1L119.9 74.88C116.31 82.61 114.45 91.02 114.45 99.54L114.45 128.82C114.45 135.71 135.21 160.09 139.03 165.83C158.75 160.95 162.03 143.17 162.03 143.17Z" fill="#FF9688" fill-opacity="1.000000" fill-rule="nonzero"/>
		<path id="Path 13504" d="M142.3 113.21L140.63 78.86L123.04 49.54L118.01 36.97C118.01 36.97 106.28 38.23 115.92 62.1L119.9 74.88C116.31 82.61 114.45 91.02 114.45 99.54L114.45 128.82C114.45 135.71 135.21 160.09 139.03 165.83C158.75 160.95 162.03 143.17 162.03 143.17L142.3 113.21Z" stroke="#707070" stroke-opacity="0" stroke-width="1.000000"/>
	</g>
	<g opacity="0.200000" style="mix-blend-mode:normal">
		<path id="Path 13505" d="M119.39 52.02L122.88 50.3L122.77 50.06L119.53 51.65L114.66 38.86L114.4 38.96L119.39 52.02Z" fill="#000000" fill-opacity="1.000000" fill-rule="nonzero"/>
		<path id="Path 13505" d="M122.88 50.3L122.77 50.06L119.53 51.65L114.66 38.86L114.4 38.96L119.39 52.02L122.88 50.3Z" stroke="#707070" stroke-opacity="0" stroke-width="1.000000"/>
	</g>
	<g opacity="0.200000" style="mix-blend-mode:normal">
		<rect id="Rectangle 1120" x="53.250000" y="43.593750" width="0.270294" height="5.521506" transform="rotate(-69.7779 53.250000 43.593750)" fill="#000000" fill-opacity="1.000000"/>
		<rect id="Rectangle 1120" x="53.250000" y="43.593750" width="0.270294" height="5.521506" transform="rotate(-69.7779 53.250000 43.593750)" stroke="#707070" stroke-opacity="0" stroke-width="1.000000"/>
	</g>
	<g opacity="0.200000" style="mix-blend-mode:normal">
		<rect id="Rectangle 1121" x="53.250000" y="59.269531" width="0.270294" height="5.521506" transform="rotate(-69.7779 53.250000 59.269531)" fill="#000000" fill-opacity="1.000000"/>
		<rect id="Rectangle 1121" x="53.250000" y="59.269531" width="0.270294" height="5.521506" transform="rotate(-69.7779 53.250000 59.269531)" stroke="#707070" stroke-opacity="0" stroke-width="1.000000"/>
	</g>
	<g opacity="0.200000" style="mix-blend-mode:normal">
		<rect id="Rectangle 1122" x="53.250000" y="76.025391" width="0.270294" height="5.521506" transform="rotate(-69.7779 53.250000 76.025391)" fill="#000000" fill-opacity="1.000000"/>
		<rect id="Rectangle 1122" x="53.250000" y="76.025391" width="0.270294" height="5.521506" transform="rotate(-69.7779 53.250000 76.025391)" stroke="#707070" stroke-opacity="0" stroke-width="1.000000"/>
	</g>
	<g opacity="0.200000" style="mix-blend-mode:normal">
		<rect id="Rectangle 1123" x="55.941406" y="92.776367" width="0.270211" height="2.797968" transform="rotate(-64.361 55.941406 92.776367)" fill="#000000" fill-opacity="1.000000"/>
		<rect id="Rectangle 1123" x="55.941406" y="92.776367" width="0.270211" height="2.797968" transform="rotate(-64.361 55.941406 92.776367)" stroke="#707070" stroke-opacity="0" stroke-width="1.000000"/>
	</g>
	<g style="mix-blend-mode:normal">
		<circle id="Ellipse 324" cx="88.117188" cy="110.278320" r="11.683424" fill="#FFFFFF" fill-opacity="1.000000"/>
		<circle id="Ellipse 324" cx="88.117188" cy="110.278320" r="11.683424" stroke="#707070" stroke-opacity="0" stroke-width="1.000000"/>
	</g>
	<g style="mix-blend-mode:normal">
		<path id="Path 13506" d="M86.03 115.2L82.54 110.7L84.57 109.12L86.23 111.25L91.82 105.35L93.69 107.12L86.03 115.2Z" fill="#203052" fill-opacity="1.000000" fill-rule="nonzero"/>
		<path id="Path 13506" d="M82.54 110.7L84.57 109.12L86.23 111.25L91.82 105.35L93.69 107.12L86.03 115.2L82.54 110.7Z" stroke="#707070" stroke-opacity="0" stroke-width="1.000000"/>
	</g>
</svg>
