<svg width="80.000000" height="73.000000" viewBox="0 0 80 73" fill="none" xmlns="http://www.w3.org/2000/svg" xmlns:xlink="http://www.w3.org/1999/xlink">
	<desc>
			Created with Pixso.
	</desc>
	<defs/>
	<g style="mix-blend-mode:normal">
		<rect id="Rectangle 1942" rx="10.000000" width="80.000000" height="73.000000" fill="#000000" fill-opacity="0"/>
		<rect id="Rectangle 1942" x="0.500000" y="0.500000" rx="10.000000" width="79.000000" height="72.000000" stroke="#203052" stroke-opacity="1.000000" stroke-width="1.000000"/>
	</g>
	<g style="mix-blend-mode:normal">
		<path id="Create" d="M23.32 47.67C25.37 47.67 27.04 48.91 27.42 51L26.19 51C25.89 49.58 24.68 48.83 23.32 48.83C21.47 48.83 20.02 50.26 20.02 52.91C20.02 55.55 21.47 56.98 23.32 56.98C24.68 56.98 25.89 56.22 26.19 54.81L27.42 54.81C27.04 56.9 25.37 58.14 23.32 58.14C20.72 58.14 18.83 56.13 18.83 52.91C18.83 49.68 20.72 47.67 23.32 47.67ZM51.96 50.36L53.59 50.36L53.59 51.35L51.96 51.35L51.96 55.81C51.96 56.8 52.46 56.96 52.97 56.96C53.23 56.96 53.39 56.92 53.49 56.9L53.73 57.95C53.57 58.02 53.29 58.09 52.86 58.09C51.86 58.09 50.79 57.46 50.79 56.13L50.79 51.35L49.63 51.35L49.63 50.36L50.79 50.36L50.79 48.53L51.96 48.53L51.96 50.36ZM30.42 58L29.25 58L29.25 50.36L30.38 50.36L30.38 51.51L30.46 51.51C30.74 50.76 31.54 50.24 32.45 50.24C32.63 50.24 32.93 50.25 33.07 50.26L33.07 51.45C32.99 51.43 32.66 51.37 32.35 51.37C31.24 51.37 30.42 52.13 30.42 53.16L30.42 58ZM40.47 56.22C40.11 57.38 38.98 58.16 37.42 58.16C35.22 58.16 33.86 56.58 33.86 54.24C33.86 51.89 35.24 50.26 37.3 50.26C38.89 50.26 40.59 51.23 40.59 54.08L40.59 54.57L35.04 54.57C35.1 56.21 36.05 57.1 37.42 57.1C38.34 57.1 39.03 56.7 39.33 55.91L40.47 56.22ZM46.89 56.96C46.65 57.46 45.95 58.17 44.62 58.17C43.17 58.17 42.02 57.32 42.02 55.83C42.02 54.08 43.56 53.76 44.98 53.58C46.37 53.4 46.95 53.45 46.95 52.89L46.95 52.84C46.95 51.87 46.42 51.29 45.34 51.29C44.22 51.29 43.61 51.89 43.35 52.45L42.23 52.05C42.83 50.66 44.15 50.26 45.3 50.26C46.28 50.26 48.12 50.54 48.12 52.96L48.12 58L46.95 58L46.95 56.96L46.89 56.96ZM61.53 56.22C61.17 57.38 60.04 58.16 58.48 58.16C56.28 58.16 54.92 56.58 54.92 54.24C54.92 51.89 56.3 50.26 58.36 50.26C59.95 50.26 61.65 51.23 61.65 54.08L61.65 54.57L56.1 54.57C56.16 56.21 57.11 57.1 58.48 57.1C59.4 57.1 60.09 56.7 60.39 55.91L61.53 56.22ZM37.3 51.31C35.96 51.31 35.12 52.37 35.04 53.56L39.39 53.56C39.39 52.27 38.58 51.31 37.3 51.31ZM58.36 51.31C57.02 51.31 56.18 52.37 56.1 53.56L60.45 53.56C60.45 52.27 59.64 51.31 58.36 51.31ZM43.19 55.89C43.19 56.7 43.87 57.12 44.8 57.12C46.19 57.12 46.95 56.19 46.95 55.23L46.95 54.16C46.75 54.4 45.42 54.54 44.92 54.59C44.01 54.71 43.19 54.99 43.19 55.89Z" fill="#203052" fill-opacity="1.000000" fill-rule="evenodd"/>
		<path id="Create" d="M27.42 51C27.04 48.91 25.37 47.67 23.32 47.67C20.72 47.67 18.83 49.68 18.83 52.91C18.83 56.13 20.72 58.14 23.32 58.14C25.37 58.14 27.04 56.9 27.42 54.81L26.19 54.81C25.89 56.22 24.68 56.98 23.32 56.98C21.47 56.98 20.02 55.55 20.02 52.91C20.02 50.26 21.47 48.83 23.32 48.83C24.68 48.83 25.89 49.58 26.19 51L27.42 51ZM29.25 58L30.42 58L30.42 53.16C30.42 52.13 31.24 51.37 32.35 51.37C32.66 51.37 32.99 51.43 33.07 51.45L33.07 50.26C32.93 50.25 32.63 50.24 32.45 50.24C31.54 50.24 30.74 50.76 30.46 51.51L30.38 51.51L30.38 50.36L29.25 50.36L29.25 58ZM37.42 58.16C38.98 58.16 40.11 57.38 40.47 56.22L39.33 55.91C39.03 56.7 38.34 57.1 37.42 57.1C36.05 57.1 35.1 56.21 35.04 54.57L40.59 54.57L40.59 54.08C40.59 51.23 38.89 50.26 37.3 50.26C35.24 50.26 33.86 51.89 33.86 54.24C33.86 56.58 35.22 58.16 37.42 58.16ZM35.04 53.56C35.12 52.37 35.96 51.31 37.3 51.31C38.58 51.31 39.39 52.27 39.39 53.56L35.04 53.56ZM44.62 58.17C45.95 58.17 46.65 57.46 46.89 56.96L46.95 56.96L46.95 58L48.12 58L48.12 52.96C48.12 50.54 46.28 50.26 45.3 50.26C44.15 50.26 42.83 50.66 42.23 52.05L43.35 52.45C43.61 51.89 44.22 51.29 45.34 51.29C46.42 51.29 46.95 51.87 46.95 52.84L46.95 52.89C46.95 53.45 46.37 53.4 44.98 53.58C43.56 53.76 42.02 54.08 42.02 55.83C42.02 57.32 43.17 58.17 44.62 58.17ZM44.8 57.12C43.87 57.12 43.19 56.7 43.19 55.89C43.19 54.99 44.01 54.71 44.92 54.59C45.42 54.54 46.75 54.4 46.95 54.16L46.95 55.23C46.95 56.19 46.19 57.12 44.8 57.12ZM53.59 50.36L51.96 50.36L51.96 48.53L50.79 48.53L50.79 50.36L49.63 50.36L49.63 51.35L50.79 51.35L50.79 56.13C50.79 57.46 51.86 58.09 52.86 58.09C53.29 58.09 53.57 58.02 53.73 57.95L53.49 56.9C53.39 56.92 53.23 56.96 52.97 56.96C52.46 56.96 51.96 56.8 51.96 55.81L51.96 51.35L53.59 51.35L53.59 50.36ZM58.48 58.16C60.04 58.16 61.17 57.38 61.53 56.22L60.39 55.91C60.09 56.7 59.4 57.1 58.48 57.1C57.11 57.1 56.16 56.21 56.1 54.57L61.65 54.57L61.65 54.08C61.65 51.23 59.95 50.26 58.36 50.26C56.3 50.26 54.92 51.89 54.92 54.24C54.92 56.58 56.28 58.16 58.48 58.16ZM56.1 53.56C56.18 52.37 57.02 51.31 58.36 51.31C59.64 51.31 60.45 52.27 60.45 53.56L56.1 53.56Z" stroke="#707070" stroke-opacity="0" stroke-width="1.000000"/>
	</g>
	<g style="mix-blend-mode:normal">
		<rect id="Rectangle 522" x="40.095703" y="9.498047" rx="10.396343" width="20.792686" height="20.792686" transform="rotate(45 40.095703 9.498047)" stroke="#203052" stroke-opacity="1.000000" stroke-width="1.000000" stroke-linejoin="round"/>
	</g>
	<g style="mix-blend-mode:normal">
		<line id="Line 758" x1="40.089844" y1="19.441406" x2="40.089844" y2="28.971680" stroke="#203052" stroke-opacity="1.000000" stroke-width="1.000000"/>
	</g>
	<g style="mix-blend-mode:normal">
		<line id="Line 759" x1="35.325195" y1="24.206055" x2="44.855469" y2="24.206055" stroke="#203052" stroke-opacity="1.000000" stroke-width="1.000000"/>
	</g>
	<g style="mix-blend-mode:normal"/>
</svg>
