<svg width="24.000000" height="24.000000" viewBox="0 0 24 24" fill="none" xmlns="http://www.w3.org/2000/svg" xmlns:xlink="http://www.w3.org/1999/xlink">
	<desc>
			Created with Pixso.
	</desc>
	<defs/>
	<g style="mix-blend-mode:normal">
		<path id="Path 22612" d="M12 2C12.9 2 13.53 2.22 14.37 2.94L20.4 7.75C21.34 8.43 22 9.37 22 10.53L22 19.76C22 21.54 20.54 22.99 18.76 22.99L16.36 22.99C15.62 22.99 15.02 22.39 15.02 21.65L15.02 18.43C15.02 17.66 14.4 17.04 13.64 17.04L10.35 17.04C9.59 17.04 8.97 17.66 8.97 18.43L8.97 21.65C8.97 22.39 8.37 22.99 7.63 22.99L5.23 22.99C3.45 22.99 2 21.54 2 19.76L2 10.53C2 9.37 2.65 8.43 3.59 7.75L9.62 2.94C10.46 2.22 11.09 2 12 2Z" fill="#FE4E00" fill-opacity="0" fill-rule="nonzero"/>
		<path id="Path 22612" d="M14.37 2.94L20.4 7.75C21.34 8.43 22 9.37 22 10.53L22 19.76C22 21.54 20.54 22.99 18.76 22.99L16.36 22.99C15.62 22.99 15.02 22.39 15.02 21.65L15.02 18.43C15.02 17.66 14.4 17.04 13.64 17.04L10.35 17.04C9.59 17.04 8.97 17.66 8.97 18.43L8.97 21.65C8.97 22.39 8.37 22.99 7.63 22.99L5.23 22.99C3.45 22.99 2 21.54 2 19.76L2 10.53C2 9.37 2.65 8.43 3.59 7.75L9.62 2.94C10.46 2.22 11.09 2 12 2C12.9 2 13.53 2.22 14.37 2.94Z" stroke="#000000" stroke-opacity="1.000000" stroke-width="1.000000"/>
	</g>
	<g style="mix-blend-mode:normal">
		<rect id="Rectangle 1397" width="24.000000" height="24.000000" fill="#FFFFFF" fill-opacity="0"/>
		<rect id="Rectangle 1397" x="0.500000" y="0.500000" width="23.000000" height="23.000000" stroke="#707070" stroke-opacity="0" stroke-width="1.000000"/>
	</g>
</svg>
