<svg width="252.949219" height="87.005859" viewBox="0 0 252.949 87.0059" fill="none" xmlns="http://www.w3.org/2000/svg" xmlns:xlink="http://www.w3.org/1999/xlink">
	<desc>
			Created with Pixso.
	</desc>
	<defs>
		<linearGradient x1="104.539070" y1="3.896361" x2="120.262222" y2="34.500854" id="paint_linear_1_2516_0" gradientUnits="userSpaceOnUse">
			<stop stop-color="#FF402D"/>
			<stop offset="1.000000" stop-color="#FE4E00"/>
		</linearGradient>
		<linearGradient x1="108.478653" y1="-2.379183" x2="118.334244" y2="18.947634" id="paint_linear_1_2517_0" gradientUnits="userSpaceOnUse">
			<stop stop-color="#FF402D"/>
			<stop offset="1.000000" stop-color="#FE4E00"/>
		</linearGradient>
	</defs>
	<g style="mix-blend-mode:normal">
		<path id="Path 13353" d="M26.71 26.14C26.71 23.84 26.11 22.43 24.92 21.92C23.72 21.41 22.23 21.16 20.45 21.16C16.78 21.16 13.44 21.88 10.46 23.33C7.47 24.77 5.97 26.51 5.97 28.54C5.97 29.99 6.63 31.26 7.96 32.34C9.29 33.43 12.17 34.62 16.63 35.92C20.94 37.16 24.01 38.45 25.84 39.78C27.67 41.1 28.58 42.7 28.58 44.57C28.58 46.46 27.31 48.5 24.76 50.69C22.22 52.88 19.14 54.55 15.55 55.69C11.95 56.84 8.9 57.41 6.39 57.41C4.29 57.41 2.7 57.16 1.62 56.67C0.54 56.17 0 55.55 0 54.81C0 54.29 0.16 53.65 0.48 52.9C0.8 52.15 1.12 51.77 1.45 51.77C1.8 51.77 2.15 51.83 2.52 51.95C4.37 52.64 6.21 52.99 8.03 52.99C11.3 52.99 14.77 52.03 18.45 50.12C22.12 48.2 23.96 46.41 23.96 44.75C23.96 44.04 23.4 43.36 22.28 42.71C21.16 42.06 18.33 41.02 13.79 39.58C8.16 37.8 4.7 36.06 3.41 34.37C2.12 32.68 1.48 30.9 1.48 29.03C1.48 25.43 3.55 22.52 7.69 20.31C11.83 18.1 16.16 17 20.68 17C23.68 17 25.98 17.5 27.59 18.52C29.21 19.53 30.01 20.65 30.01 21.88C30.01 22.47 29.83 23.33 29.47 24.46C29.1 25.58 28.18 26.14 26.71 26.14Z" fill="#FFFFFF" fill-opacity="1.000000" fill-rule="nonzero"/>
	</g>
	<g style="mix-blend-mode:normal">
		<path id="Path 13354" d="M46.72 29.4C48.51 29.26 50.19 29.1 51.76 28.91C53.32 28.74 54.62 28.65 55.66 28.65C56.98 28.65 57.81 28.77 58.16 29.01C58.5 29.26 58.68 29.68 58.68 30.29C58.68 31.69 57.7 32.45 55.74 32.57C53.23 32.73 50.91 32.95 48.8 33.22C46.69 33.5 45.55 33.73 45.38 33.91C45.22 34.09 44.69 36.16 43.81 40.1C42.93 44.04 42.49 46.6 42.49 47.78C42.49 49.68 42.74 50.95 43.24 51.58C43.74 52.22 44.5 52.53 45.5 52.53C46.99 52.53 49.06 51.41 51.71 49.18C52.73 48.26 53.52 47.8 54.08 47.8C54.82 47.8 55.19 48.2 55.19 49C55.19 50.25 54 51.86 51.59 53.84C49.2 55.83 46.74 56.82 44.23 56.82C40.03 56.82 37.94 54.35 37.94 49.41C37.94 47.63 38.37 44.87 39.24 41.12C40.09 37.4 40.51 35.16 40.51 34.42C40.51 34.16 40.3 34.03 39.89 34.03L37.18 34.26C34.97 34.26 33.86 33.38 33.86 31.61C33.86 30.61 34.37 30.11 35.39 30.11L40.75 30.11C41.11 30.11 41.43 29.94 41.71 29.61C41.98 29.28 42.39 28.18 42.93 26.3C43.46 24.42 43.94 22.56 44.36 20.72C44.77 18.9 45.59 18 46.8 18C47.54 18 48.13 18.25 48.54 18.77C48.96 19.29 49.16 19.78 49.16 20.23C49.16 20.47 48.85 21.71 48.23 23.95L46.72 29.4Z" fill="#FFFFFF" fill-opacity="1.000000" fill-rule="nonzero"/>
	</g>
	<g style="mix-blend-mode:normal">
		<path id="Path 13355" d="M80.3 54.18C77.11 56.95 74.31 58.97 71.89 60.22C69.47 61.48 67.62 62.1 66.34 62.1C64.63 62.1 63.31 61.39 62.41 59.96C61.5 58.53 61.04 56.86 61.04 54.96C61.04 52.29 61.58 48.99 62.66 45.07C63.75 41.15 64.55 38.81 65.08 38.08C65.61 37.34 66.45 36.97 67.62 36.97C68.1 36.97 68.5 37.26 68.81 37.83C69.12 38.4 69.28 39.05 69.28 39.78C69.28 40.21 69.08 40.78 68.68 41.47C67.75 43.1 67.26 44 67.21 44.17C67.17 44.35 66.84 45.39 66.21 47.31C65.59 49.22 65.28 51.02 65.28 52.7C65.28 53.29 65.42 54.21 65.71 55.45C65.99 56.7 66.58 57.32 67.49 57.32C68.44 57.32 69.61 57.03 71.01 56.45C72.4 55.87 73.98 54.92 75.72 53.61C77.48 52.29 78.65 51.23 79.26 50.41C79.87 49.6 80.29 48.67 80.55 47.63C80.8 46.59 80.98 44.34 81.08 40.87C81.18 37.41 82.02 35.67 83.6 35.67C84.54 35.67 85.14 35.92 85.42 36.42C85.7 36.91 85.83 37.85 85.83 39.23C85.83 40.38 85.76 41.81 85.6 43.52C85.41 45.69 85.29 47.23 85.24 48.15C84.99 52.91 84.38 57.7 83.38 62.51C82.38 67.32 80.93 71.34 79.02 74.57C77.12 77.8 74.49 79.41 71.15 79.41C67.75 79.41 64.74 78.53 62.09 76.75C59.45 74.97 58.13 73.47 58.13 72.24C58.13 71.67 58.26 71.11 58.53 70.55C58.8 70 59.15 69.72 59.56 69.72C59.77 69.72 59.99 69.88 60.24 70.21C62.5 73.7 66.07 75.44 70.94 75.44C73.46 75.44 75.56 73.23 77.27 68.82C78.98 64.41 79.92 60.28 80.09 56.41C80.13 55.67 80.19 54.92 80.3 54.18Z" fill="#FFFFFF" fill-opacity="1.000000" fill-rule="nonzero"/>
	</g>
	<g style="mix-blend-mode:normal">
		<path id="Path 13356" d="M183.8 49.06C184.86 44.94 185.89 39.87 186.91 33.85C187.92 27.83 188.43 23.62 188.43 21.23C188.43 19.97 188.53 19.11 188.73 18.66C188.93 18.21 189.34 17.82 189.97 17.49C190.61 17.16 191.29 17 192.04 17C192.52 17 192.94 17.34 193.29 18.03C193.63 18.73 193.81 19.55 193.81 20.5C193.81 21.25 193.53 22.57 192.98 24.45C191.88 28.75 190.81 33.85 189.75 39.75C188.7 45.65 188.17 49.06 188.17 49.97C188.17 51.83 188.19 53 188.25 53.48C188.31 54.38 188.02 55.09 187.38 55.61C186.73 56.13 185.87 56.4 184.82 56.4C184.19 56.4 183.77 56.31 183.55 56.15C183.34 55.98 182.89 55.52 182.2 54.76C181.52 53.99 181.09 53.26 180.92 52.55C180.78 51.89 180.25 51.02 179.33 49.95C174.34 43.57 169.85 36.61 165.87 29.05C164.74 33.05 163.69 38.61 162.73 45.71L162.08 50.05C162.01 50.49 161.98 51.36 161.98 52.66C161.99 53.97 161.92 54.85 161.78 55.3C161.63 55.75 161.28 56.27 160.74 56.85C160.19 57.43 159.67 57.72 159.17 57.72C158 57.72 157.32 57.22 157.11 56.22C156.9 55.23 156.8 54.46 156.8 53.92C156.8 52.66 157.18 50.6 157.94 47.74C158.71 44.9 159.64 40.52 160.76 34.62C161.88 28.71 162.44 24.96 162.44 23.36L162.41 21.93C162.43 21.43 162.53 20.98 162.71 20.59C162.89 20.2 163.24 19.87 163.75 19.59C164.26 19.32 164.77 19.18 165.27 19.18C165.74 19.18 166.17 19.28 166.57 19.48C166.97 19.68 167.26 19.98 167.43 20.39C167.6 20.79 167.81 21.55 168.05 22.66C168.75 26.02 170.89 30.51 174.49 36.14C178.08 41.76 181.18 46.07 183.8 49.06Z" fill="#FFFFFF" fill-opacity="1.000000" fill-rule="nonzero"/>
	</g>
	<g style="mix-blend-mode:normal">
		<path id="Path 13357" d="M120.26 61.69C105.27 61.69 93.07 49.49 93.07 34.5C93.07 19.5 105.27 7.31 120.26 7.31C135.25 7.31 147.45 19.5 147.45 34.5C147.45 49.49 135.25 61.69 120.26 61.69ZM120.26 10.75C107.16 10.75 96.51 21.4 96.51 34.5C96.51 47.59 107.16 58.25 120.26 58.25C133.35 58.25 144.01 47.59 144.01 34.5C144.01 21.4 133.35 10.75 120.26 10.75Z" fill="url(#paint_linear_1_2516_0)" fill-opacity="1.000000" fill-rule="nonzero"/>
	</g>
	<g style="mix-blend-mode:normal">
		<path id="Path 13358" d="M117.81 37.89C117.61 37.89 117.42 37.86 117.23 37.79C116.78 37.63 116.42 37.29 116.23 36.85L101.43 2.4C101.05 1.52 101.45 0.51 102.33 0.13C103.2 -0.24 104.21 0.16 104.59 1.04L118.66 33.8L132.86 26.5C133.71 26.07 134.75 26.4 135.18 27.25C135.62 28.09 135.28 29.13 134.44 29.56L118.6 37.7C118.35 37.83 118.08 37.89 117.81 37.89Z" fill="url(#paint_linear_1_2517_0)" fill-opacity="1.000000" fill-rule="nonzero"/>
	</g>
	<g style="mix-blend-mode:normal">
		<path id="Path 13359" d="M211.28 17.06L208.52 11.15C207.11 8.15 208.41 4.57 211.4 3.17L216.96 0.56C219.95 -0.84 223.54 0.45 224.94 3.45L227.71 9.36L211.28 17.06ZM219.5 2.73C219.04 2.73 218.57 2.83 218.12 3.04L212.56 5.64C210.93 6.41 210.23 8.36 211 9.99L212.6 13.42L224.07 8.04L222.46 4.61C221.91 3.43 220.73 2.73 219.5 2.73Z" fill="#F9F9F9" fill-opacity="1.000000" fill-rule="nonzero"/>
	</g>
	<g style="mix-blend-mode:normal">
		<rect id="Rectangle 1258" x="217.683594" y="12.553711" width="2.737721" height="5.091150" transform="rotate(-25.1253 217.683594 12.553711)" fill="#F9F9F9" fill-opacity="1.000000"/>
	</g>
	<g style="mix-blend-mode:normal">
		<path id="Path 13360" d="M218.53 43.72L213.89 33.83C212.31 30.46 212.13 26.67 213.4 23.17C214.66 19.67 217.22 16.88 220.59 15.3C223.95 13.72 227.74 13.54 231.24 14.81C234.74 16.08 237.54 18.63 239.12 22L243.76 31.89L218.53 43.72ZM226.49 16.71C224.87 16.71 223.26 17.07 221.75 17.78C219.04 19.04 216.99 21.29 215.97 24.11C214.95 26.92 215.09 29.96 216.36 32.66L219.84 40.08L240.11 30.58L236.64 23.16C235.37 20.45 233.12 18.4 230.31 17.38C229.07 16.93 227.78 16.71 226.49 16.71Z" fill="#F9F9F9" fill-opacity="1.000000" fill-rule="nonzero"/>
	</g>
	<g style="mix-blend-mode:normal">
		<path id="Path 13361" d="M219.02 52.93L218.44 51.69C217.32 49.3 217.19 46.6 218.1 44.11C219 41.62 220.81 39.63 223.21 38.5L236.33 32.35C238.73 31.23 241.42 31.1 243.92 32C246.41 32.91 248.4 34.72 249.52 37.12L250.1 38.36L219.02 52.93ZM240.54 34.15C239.5 34.15 238.46 34.37 237.49 34.83L224.37 40.98C222.64 41.79 221.32 43.24 220.67 45.04C220.18 46.41 220.11 47.86 220.46 49.24L246.35 37.1C245.51 35.95 244.35 35.07 242.98 34.58C242.19 34.29 241.36 34.15 240.54 34.15Z" fill="#F9F9F9" fill-opacity="1.000000" fill-rule="nonzero"/>
	</g>
	<g style="mix-blend-mode:normal">
		<path id="Path 13362" d="M235.98 60.43L228.88 45.29L238.19 40.92L245.28 56.07L235.98 60.43ZM232.52 46.6L237.3 56.79L241.64 54.75L236.87 44.57L232.52 46.6Z" fill="#F9F9F9" fill-opacity="1.000000" fill-rule="nonzero"/>
	</g>
	<g style="mix-blend-mode:normal">
		<rect id="Rectangle 1259" x="228.617188" y="60.863281" width="23.791185" height="2.737720" transform="rotate(-25.1138 228.617188 60.863281)" fill="#F9F9F9" fill-opacity="1.000000"/>
	</g>
	<g style="mix-blend-mode:normal">
		<rect id="Rectangle 1260" x="203.259766" y="39.529297" width="9.105250" height="2.737722" transform="rotate(-25.1138 203.259766 39.529297)" fill="#F9F9F9" fill-opacity="1.000000"/>
	</g>
	<g style="mix-blend-mode:normal">
		<path id="Path 13363" d="M214.87 51.08C213.29 51.08 211.77 50.18 211.05 48.65L206.72 39.41L209.2 38.25L213.53 47.49C213.7 47.85 213.99 48.12 214.36 48.25C214.73 48.38 215.13 48.37 215.49 48.2L217.81 47.11L218.97 49.59L216.65 50.68C216.07 50.95 215.46 51.08 214.87 51.08Z" fill="#F9F9F9" fill-opacity="1.000000" fill-rule="nonzero"/>
	</g>
	<g style="mix-blend-mode:normal">
		<rect id="Rectangle 1261" x="242.224609" y="21.260742" width="9.105250" height="2.737722" transform="rotate(-25.1138 242.224609 21.260742)" fill="#F9F9F9" fill-opacity="1.000000"/>
	</g>
	<g style="mix-blend-mode:normal">
		<path id="Path 13364" d="M247.57 36.18L246.41 33.7L249.31 32.34C249.67 32.17 249.93 31.88 250.07 31.51C250.2 31.14 250.18 30.74 250.02 30.38L245.68 21.14L248.16 19.98L252.5 29.22C253.48 31.32 252.57 33.83 250.47 34.82L247.57 36.18Z" fill="#F9F9F9" fill-opacity="1.000000" fill-rule="nonzero"/>
	</g>
	<g style="mix-blend-mode:normal">
		<path id="Path 13365" d="M99.88 80.72C99.88 81.25 99.78 81.71 99.59 82.12C99.39 82.53 99.13 82.88 98.78 83.16C98.44 83.45 98.04 83.66 97.58 83.8C97.11 83.95 96.61 84.02 96.08 84.02C95.7 84.02 95.36 83.99 95.04 83.93C94.72 83.86 94.43 83.79 94.18 83.69C93.93 83.6 93.72 83.51 93.55 83.41C93.38 83.31 93.26 83.23 93.2 83.16C93.13 83.09 93.08 83 93.05 82.89C93.02 82.79 93 82.65 93 82.47C93 82.34 93.01 82.23 93.02 82.15C93.03 82.07 93.05 82 93.07 81.95C93.1 81.9 93.13 81.86 93.16 81.84C93.19 81.82 93.23 81.81 93.28 81.81C93.36 81.81 93.47 81.86 93.62 81.96C93.77 82.06 93.96 82.16 94.19 82.28C94.42 82.39 94.69 82.5 95.02 82.6C95.34 82.7 95.72 82.75 96.15 82.75C96.47 82.75 96.76 82.71 97.03 82.62C97.3 82.54 97.53 82.41 97.72 82.25C97.91 82.1 98.06 81.9 98.17 81.67C98.27 81.44 98.32 81.18 98.32 80.89C98.32 80.57 98.25 80.3 98.11 80.08C97.96 79.85 97.77 79.65 97.54 79.48C97.3 79.31 97.03 79.16 96.73 79.02C96.43 78.88 96.12 78.73 95.8 78.59C95.49 78.44 95.17 78.28 94.88 78.1C94.58 77.92 94.31 77.71 94.08 77.47C93.84 77.23 93.65 76.94 93.5 76.62C93.35 76.29 93.28 75.9 93.28 75.45C93.28 74.98 93.36 74.56 93.53 74.2C93.7 73.83 93.94 73.53 94.24 73.28C94.54 73.03 94.9 72.84 95.32 72.71C95.74 72.58 96.19 72.52 96.67 72.52C96.92 72.52 97.17 72.54 97.42 72.58C97.67 72.63 97.91 72.69 98.13 72.76C98.35 72.83 98.55 72.91 98.72 73C98.89 73.09 99 73.16 99.06 73.21C99.12 73.27 99.15 73.31 99.17 73.35C99.19 73.38 99.2 73.42 99.21 73.47C99.22 73.52 99.23 73.57 99.24 73.64C99.24 73.71 99.25 73.8 99.25 73.91C99.25 74.01 99.24 74.11 99.23 74.19C99.22 74.27 99.21 74.33 99.19 74.39C99.18 74.44 99.15 74.48 99.12 74.51C99.09 74.54 99.05 74.55 99.01 74.55C98.95 74.55 98.85 74.51 98.72 74.43C98.58 74.35 98.41 74.26 98.22 74.16C98.02 74.06 97.79 73.96 97.52 73.88C97.25 73.8 96.96 73.76 96.62 73.76C96.31 73.76 96.04 73.8 95.81 73.88C95.58 73.96 95.39 74.07 95.24 74.21C95.09 74.35 94.98 74.51 94.9 74.7C94.83 74.9 94.79 75.1 94.79 75.31C94.79 75.62 94.86 75.89 95.01 76.11C95.15 76.34 95.34 76.54 95.58 76.71C95.82 76.88 96.09 77.04 96.4 77.18C96.7 77.33 97.01 77.47 97.33 77.62C97.65 77.77 97.96 77.93 98.26 78.1C98.57 78.28 98.84 78.49 99.08 78.72C99.32 78.96 99.51 79.25 99.66 79.57C99.8 79.9 99.88 80.28 99.88 80.72Z" fill="#FE4E00" fill-opacity="1.000000" fill-rule="nonzero"/>
	</g>
	<g style="mix-blend-mode:normal">
		<path id="Path 13366" d="M105.88 83.07C105.88 83.24 105.86 83.37 105.84 83.47C105.82 83.57 105.78 83.64 105.74 83.68C105.69 83.73 105.62 83.77 105.53 83.81C105.44 83.85 105.33 83.89 105.22 83.91C105.1 83.94 104.97 83.96 104.84 83.98C104.71 84 104.58 84 104.44 84C104.04 84 103.7 83.95 103.41 83.84C103.12 83.74 102.88 83.58 102.7 83.36C102.52 83.15 102.38 82.87 102.3 82.54C102.22 82.21 102.17 81.82 102.17 81.37L102.17 76.83L101.09 76.83C101 76.83 100.93 76.78 100.88 76.69C100.83 76.6 100.8 76.45 100.8 76.24C100.8 76.13 100.81 76.04 100.82 75.97C100.84 75.89 100.85 75.83 100.88 75.78C100.9 75.73 100.93 75.7 100.97 75.68C101.01 75.66 101.05 75.65 101.1 75.65L102.17 75.65L102.17 73.8C102.17 73.76 102.18 73.72 102.2 73.69C102.22 73.65 102.26 73.62 102.32 73.6C102.37 73.57 102.44 73.55 102.53 73.54C102.63 73.53 102.74 73.52 102.88 73.52C103.02 73.52 103.14 73.53 103.24 73.54C103.33 73.55 103.4 73.57 103.45 73.6C103.5 73.62 103.54 73.65 103.56 73.69C103.59 73.72 103.6 73.76 103.6 73.8L103.6 75.65L105.59 75.65C105.64 75.65 105.68 75.66 105.71 75.68C105.75 75.7 105.78 75.73 105.8 75.78C105.83 75.83 105.85 75.89 105.86 75.97C105.87 76.04 105.88 76.13 105.88 76.24C105.88 76.45 105.85 76.6 105.8 76.69C105.75 76.78 105.68 76.83 105.59 76.83L103.6 76.83L103.6 81.16C103.6 81.7 103.68 82.1 103.84 82.37C103.99 82.65 104.28 82.79 104.68 82.79C104.82 82.79 104.94 82.77 105.04 82.75C105.14 82.72 105.24 82.7 105.32 82.67C105.4 82.64 105.46 82.61 105.52 82.58C105.58 82.56 105.63 82.55 105.68 82.55C105.7 82.56 105.81 82.61 105.82 82.65C105.84 82.69 105.85 82.74 105.86 82.81C105.87 82.88 105.88 82.97 105.88 83.07Z" fill="#FE4E00" fill-opacity="1.000000" fill-rule="nonzero"/>
	</g>
	<g style="mix-blend-mode:normal">
		<path id="Path 13367" d="M111.3 83.86L110.26 86.71C110.23 86.81 110.14 86.88 110 86.93C109.86 86.97 109.65 87 109.36 87C109.21 87 109.09 86.99 108.99 86.98C108.9 86.96 108.83 86.94 108.78 86.91C108.73 86.87 108.71 86.83 108.7 86.77C108.69 86.71 108.71 86.64 108.74 86.56L109.81 83.86C109.76 83.83 109.71 83.8 109.67 83.74C109.62 83.69 109.59 83.64 109.57 83.58L106.8 76.16C106.75 76.04 106.73 75.94 106.73 75.87C106.73 75.8 106.75 75.75 106.8 75.71C106.85 75.67 106.92 75.64 107.03 75.62C107.13 75.61 107.27 75.6 107.44 75.6C107.61 75.6 107.75 75.61 107.85 75.62C107.94 75.62 108.02 75.64 108.08 75.66C108.14 75.69 108.18 75.72 108.2 75.76C108.23 75.81 108.26 75.87 108.29 75.94L110.51 82.17L112.67 75.91C112.71 75.8 112.75 75.73 112.8 75.69C112.85 75.66 112.92 75.64 113.02 75.62C113.11 75.61 113.26 75.6 113.44 75.6C113.6 75.6 113.73 75.61 113.84 75.62C113.94 75.64 114.02 75.67 114.07 75.71C114.12 75.75 114.14 75.8 114.14 75.87C114.14 75.94 114.12 76.03 114.09 76.13L111.3 83.86Z" fill="#FE4E00" fill-opacity="1.000000" fill-rule="nonzero"/>
	</g>
	<g style="mix-blend-mode:normal">
		<path id="Path 13368" d="M117.19 83.64C117.19 83.69 117.18 83.73 117.15 83.76C117.13 83.79 117.09 83.82 117.04 83.84C116.99 83.86 116.92 83.88 116.82 83.89C116.73 83.9 116.61 83.91 116.47 83.91C116.33 83.91 116.22 83.9 116.13 83.89C116.03 83.88 115.96 83.86 115.91 83.84C115.85 83.82 115.81 83.79 115.79 83.76C115.77 83.73 115.76 83.69 115.76 83.64L115.76 72.11C115.76 72.06 115.77 72.02 115.79 71.98C115.81 71.95 115.85 71.92 115.91 71.9C115.96 71.88 116.03 71.86 116.13 71.85C116.22 71.83 116.33 71.83 116.47 71.83C116.61 71.83 116.73 71.83 116.82 71.85C116.92 71.86 116.99 71.88 117.04 71.9C117.09 71.92 117.13 71.95 117.15 71.98C117.18 72.02 117.19 72.06 117.19 72.11L117.19 83.64Z" fill="#FE4E00" fill-opacity="1.000000" fill-rule="nonzero"/>
	</g>
	<g style="mix-blend-mode:normal">
		<path id="Path 13369" d="M126.45 79.42C126.45 79.64 126.39 79.8 126.28 79.9C126.17 80 126.04 80.04 125.9 80.04L120.78 80.04C120.78 80.47 120.82 80.86 120.91 81.21C121 81.55 121.14 81.85 121.34 82.09C121.54 82.34 121.81 82.53 122.13 82.67C122.45 82.8 122.85 82.86 123.32 82.86C123.69 82.86 124.02 82.83 124.31 82.77C124.6 82.71 124.85 82.65 125.06 82.57C125.27 82.5 125.44 82.43 125.58 82.37C125.72 82.31 125.82 82.28 125.89 82.28C125.93 82.28 125.97 82.29 126 82.31C126.01 82.35 126.1 82.5 126.11 82.57C126.12 82.64 126.12 82.73 126.12 82.83C126.12 82.91 126.12 82.97 126.11 83.02C126.11 83.08 126.1 83.13 126.09 83.17C126.08 83.21 126.07 83.25 126.05 83.29C126.02 83.32 125.85 83.47 125.69 83.54C125.53 83.61 125.34 83.68 125.09 83.75C124.84 83.82 124.55 83.88 124.23 83.94C123.9 83.99 123.56 84.02 123.19 84.02C122.55 84.02 121.99 83.93 121.51 83.75C121.03 83.58 120.62 83.31 120.29 82.96C119.97 82.61 119.72 82.17 119.55 81.64C119.38 81.11 119.3 80.49 119.3 79.79C119.3 79.12 119.39 78.52 119.56 77.99C119.73 77.46 119.98 77.01 120.31 76.63C120.63 76.26 121.02 75.98 121.49 75.78C121.95 75.58 122.46 75.48 123.03 75.48C123.64 75.48 124.16 75.58 124.59 75.78C125.02 75.97 125.37 76.23 125.65 76.57C125.93 76.9 126.13 77.28 126.26 77.73C126.39 78.18 126.45 78.65 126.45 79.16L126.45 79.42ZM125.02 79C125.03 78.25 124.87 77.66 124.52 77.23C124.17 76.81 123.65 76.6 122.96 76.6C122.61 76.6 122.3 76.66 122.03 76.79C121.76 76.93 121.54 77.1 121.36 77.32C121.18 77.54 121.04 77.79 120.94 78.09C120.85 78.38 120.79 78.68 120.78 79L125.02 79Z" fill="#FE4E00" fill-opacity="1.000000" fill-rule="nonzero"/>
	</g>
	<g style="mix-blend-mode:normal">
		<path id="Path 13370" d="M132.23 80.91C132.23 80.6 132.27 80.3 132.36 80.01C132.44 79.72 132.58 79.45 132.77 79.18C132.95 78.91 133.19 78.66 133.49 78.41C133.78 78.15 134.14 77.9 134.56 77.65C134.33 77.34 134.13 77.06 133.97 76.8C133.81 76.55 133.67 76.31 133.56 76.1C133.46 75.88 133.38 75.67 133.33 75.47C133.29 75.27 133.27 75.07 133.27 74.87C133.27 74.51 133.33 74.17 133.45 73.85C133.57 73.52 133.76 73.23 134.03 72.98C134.3 72.73 134.64 72.53 135.06 72.39C135.48 72.24 135.99 72.17 136.59 72.17C137.1 72.17 137.53 72.22 137.91 72.33C138.28 72.44 138.59 72.6 138.83 72.8C139.07 73 139.26 73.24 139.38 73.53C139.5 73.81 139.57 74.13 139.57 74.48C139.57 74.82 139.51 75.13 139.4 75.41C139.29 75.7 139.12 75.97 138.88 76.23C138.64 76.5 138.33 76.76 137.95 77.02C137.57 77.28 137.12 77.56 136.58 77.85C136.78 78.08 136.99 78.33 137.22 78.59C137.45 78.84 137.69 79.1 137.94 79.36C138.19 79.62 138.45 79.87 138.71 80.12C138.97 80.37 139.23 80.61 139.48 80.84C139.6 80.69 139.7 80.51 139.79 80.31C139.89 80.12 139.97 79.91 140.03 79.68C140.1 79.46 140.16 79.23 140.19 79C140.22 78.78 140.24 78.54 140.24 78.31L140.24 77.99C140.24 77.94 140.25 77.89 140.27 77.85C140.32 77.83 140.48 77.71 140.58 77.7C140.66 77.69 140.78 77.68 140.92 77.68C141.05 77.68 141.16 77.69 141.25 77.69C141.34 77.7 141.41 77.71 141.47 77.73C141.52 77.75 141.57 77.78 141.59 77.83C141.62 77.87 141.63 77.93 141.63 78L141.63 78.22C141.63 78.54 141.6 78.86 141.55 79.17C141.5 79.48 141.42 79.78 141.33 80.08C141.23 80.38 141.11 80.66 140.97 80.93C140.83 81.2 140.67 81.45 140.5 81.68C140.76 81.89 140.99 82.06 141.18 82.2C141.37 82.34 141.53 82.45 141.67 82.54C141.8 82.62 141.92 82.68 142.01 82.72C142.1 82.75 142.17 82.77 142.23 82.77C142.28 82.77 142.34 82.77 142.39 82.76C142.44 82.75 142.48 82.76 142.52 82.79C142.55 82.81 142.57 82.86 142.59 82.93C142.61 82.99 142.62 83.1 142.62 83.24C142.62 83.39 142.61 83.5 142.61 83.59C142.6 83.68 142.59 83.74 142.58 83.78C142.56 83.83 142.54 83.86 142.5 83.89C142.47 83.92 142.41 83.95 142.31 83.97C142.22 83.99 142.1 84 141.95 84C141.84 84 141.71 83.98 141.57 83.94C141.43 83.9 141.27 83.83 141.09 83.73C140.9 83.63 140.69 83.5 140.44 83.32C140.2 83.15 139.91 82.93 139.59 82.67C139.34 82.86 139.09 83.04 138.82 83.21C138.55 83.38 138.27 83.52 137.97 83.64C137.67 83.75 137.35 83.85 137.02 83.91C136.69 83.98 136.33 84.01 135.94 84.01C135.58 84.01 135.24 83.98 134.91 83.92C134.58 83.85 134.28 83.76 134.01 83.65C133.73 83.53 133.48 83.38 133.27 83.2C133.05 83.02 132.86 82.82 132.71 82.59C132.55 82.37 132.44 82.11 132.35 81.83C132.27 81.55 132.23 81.24 132.23 80.91ZM133.77 80.77C133.77 81.07 133.82 81.34 133.92 81.59C134.02 81.83 134.17 82.05 134.37 82.23C134.57 82.41 134.81 82.55 135.1 82.65C135.4 82.75 135.74 82.8 136.12 82.8C136.36 82.8 136.59 82.78 136.81 82.73C137.04 82.68 137.25 82.62 137.46 82.53C137.66 82.45 137.85 82.35 138.04 82.23C138.22 82.11 138.39 81.99 138.55 81.85C138.25 81.59 137.95 81.33 137.66 81.05C137.36 80.77 137.07 80.49 136.8 80.21C136.52 79.92 136.25 79.64 136 79.36C135.74 79.08 135.51 78.81 135.29 78.55C135 78.73 134.77 78.91 134.57 79.1C134.38 79.28 134.22 79.46 134.11 79.64C133.99 79.82 133.91 80 133.85 80.19C133.8 80.37 133.77 80.57 133.77 80.77ZM134.77 74.76C134.77 74.91 134.8 75.07 134.84 75.23C134.88 75.39 134.95 75.56 135.04 75.74C135.13 75.91 135.24 76.1 135.37 76.3C135.5 76.5 135.65 76.73 135.83 76.98C136.25 76.74 136.6 76.52 136.89 76.32C137.17 76.13 137.4 75.93 137.57 75.75C137.75 75.57 137.87 75.38 137.95 75.2C138.03 75.01 138.07 74.82 138.07 74.61C138.07 74.44 138.03 74.28 137.97 74.13C137.91 73.98 137.82 73.84 137.68 73.73C137.55 73.61 137.39 73.51 137.18 73.45C136.98 73.38 136.74 73.34 136.46 73.34C136.16 73.34 135.89 73.38 135.69 73.46C135.48 73.54 135.3 73.64 135.17 73.77C135.03 73.9 134.93 74.05 134.87 74.22C134.81 74.39 134.77 74.57 134.77 74.76Z" fill="#FE4E00" fill-opacity="1.000000" fill-rule="nonzero"/>
	</g>
	<g style="mix-blend-mode:normal">
		<path id="Path 13371" d="M154.84 80.72C154.84 81.25 154.75 81.71 154.55 82.12C154.36 82.53 154.09 82.88 153.75 83.16C153.41 83.45 153 83.66 152.54 83.8C152.08 83.95 151.58 84.02 151.04 84.02C150.67 84.02 150.32 83.99 150 83.93C149.68 83.86 149.39 83.79 149.14 83.69C148.89 83.6 148.68 83.51 148.52 83.41C148.35 83.31 148.23 83.23 148.16 83.16C148.1 83.09 148.05 83 148.02 82.89C147.98 82.79 147.97 82.65 147.97 82.47C147.97 82.34 147.97 82.23 147.99 82.15C148 82.07 148.02 82 148.04 81.95C148.06 81.9 148.09 81.86 148.12 81.84C148.16 81.82 148.2 81.81 148.24 81.81C148.32 81.81 148.44 81.86 148.59 81.96C148.73 82.06 148.92 82.16 149.15 82.28C149.38 82.39 149.66 82.5 149.98 82.6C150.31 82.7 150.68 82.75 151.11 82.75C151.43 82.75 151.73 82.71 152 82.62C152.26 82.54 152.49 82.41 152.69 82.25C152.88 82.1 153.03 81.9 153.13 81.67C153.23 81.44 153.29 81.18 153.29 80.89C153.29 80.57 153.21 80.3 153.07 80.08C152.93 79.85 152.74 79.65 152.5 79.48C152.27 79.31 152 79.16 151.69 79.02C151.39 78.88 151.08 78.73 150.77 78.59C150.45 78.44 150.14 78.28 149.84 78.1C149.54 77.92 149.27 77.71 149.04 77.47C148.8 77.23 148.61 76.94 148.46 76.62C148.32 76.29 148.24 75.9 148.24 75.45C148.24 74.98 148.33 74.56 148.5 74.2C148.67 73.83 148.9 73.53 149.21 73.28C149.51 73.03 149.87 72.84 150.28 72.71C150.7 72.58 151.15 72.52 151.64 72.52C151.88 72.52 152.13 72.54 152.39 72.58C152.63 72.63 152.87 72.69 153.09 72.76C153.31 72.83 153.51 72.91 153.68 73C153.85 73.09 153.97 73.16 154.02 73.21C154.08 73.27 154.11 73.31 154.13 73.35C154.15 73.38 154.16 73.42 154.17 73.47C154.19 73.52 154.2 73.57 154.2 73.64C154.21 73.71 154.21 73.8 154.21 73.91C154.21 74.01 154.21 74.11 154.2 74.19C154.19 74.27 154.17 74.33 154.16 74.39C154.14 74.44 154.12 74.48 154.09 74.51C154.05 74.54 154.02 74.55 153.98 74.55C153.91 74.55 153.81 74.51 153.68 74.43C153.54 74.35 153.38 74.26 153.18 74.16C152.99 74.06 152.76 73.96 152.49 73.88C152.22 73.8 151.92 73.76 151.59 73.76C151.27 73.76 151 73.8 150.77 73.88C150.54 73.96 150.35 74.07 150.2 74.21C150.05 74.35 149.94 74.51 149.87 74.7C149.79 74.9 149.75 75.1 149.75 75.31C149.75 75.62 149.83 75.89 149.97 76.11C150.11 76.34 150.31 76.54 150.54 76.71C150.78 76.88 151.06 77.04 151.36 77.18C151.67 77.33 151.98 77.47 152.29 77.62C152.61 77.77 152.92 77.93 153.23 78.1C153.53 78.28 153.8 78.49 154.04 78.72C154.28 78.96 154.47 79.25 154.62 79.57C154.77 79.9 154.84 80.28 154.84 80.72Z" fill="#FE4E00" fill-opacity="1.000000" fill-rule="nonzero"/>
	</g>
	<g style="mix-blend-mode:normal">
		<path id="Path 13372" d="M162.65 83.65C162.65 83.72 162.63 83.77 162.59 83.8C162.54 83.84 162.48 83.87 162.39 83.88C162.32 83.9 162.2 83.91 162.04 83.91C161.89 83.91 161.77 83.9 161.68 83.88C161.6 83.87 161.53 83.84 161.49 83.8C161.45 83.77 161.43 83.72 161.43 83.65L161.43 82.87C161.09 83.24 160.71 83.52 160.29 83.72C159.88 83.92 159.43 84.02 158.97 84.02C158.56 84.02 158.19 83.97 157.86 83.86C157.53 83.75 157.25 83.6 157.01 83.4C156.78 83.2 156.6 82.95 156.47 82.66C156.34 82.36 156.27 82.03 156.27 81.65C156.27 81.22 156.36 80.84 156.54 80.52C156.72 80.19 156.98 79.92 157.31 79.71C157.64 79.5 158.05 79.34 158.54 79.23C159.02 79.13 159.57 79.07 160.17 79.07L161.24 79.07L161.24 78.47C161.24 78.17 161.21 77.91 161.14 77.67C161.08 77.44 160.98 77.25 160.84 77.1C160.7 76.95 160.52 76.83 160.29 76.76C160.07 76.68 159.79 76.64 159.46 76.64C159.11 76.64 158.79 76.68 158.52 76.76C158.24 76.85 157.99 76.94 157.78 77.04C157.57 77.14 157.39 77.23 157.25 77.32C157.11 77.4 157.01 77.44 156.94 77.44C156.89 77.44 156.85 77.43 156.82 77.41C156.78 77.38 156.75 77.35 156.73 77.3C156.7 77.26 156.68 77.2 156.67 77.13C156.66 77.06 156.66 76.98 156.66 76.89C156.66 76.75 156.66 76.63 156.68 76.55C156.7 76.46 156.75 76.39 156.83 76.31C156.91 76.24 157.04 76.15 157.23 76.05C157.42 75.95 157.64 75.85 157.89 75.77C158.14 75.69 158.41 75.62 158.7 75.56C158.99 75.51 159.29 75.48 159.59 75.48C160.15 75.48 160.62 75.55 161.02 75.67C161.41 75.8 161.72 75.98 161.96 76.23C162.21 76.47 162.38 76.78 162.49 77.14C162.6 77.5 162.65 77.93 162.65 78.41L162.65 83.65ZM161.24 80.1L160.02 80.1C159.63 80.1 159.29 80.14 159 80.2C158.72 80.27 158.48 80.36 158.28 80.5C158.1 80.62 157.96 80.78 157.87 80.96C157.78 81.14 157.73 81.35 157.73 81.59C157.73 81.99 157.86 82.31 158.12 82.55C158.37 82.79 158.73 82.91 159.19 82.91C159.57 82.91 159.91 82.81 160.23 82.62C160.55 82.43 160.89 82.14 161.24 81.75L161.24 80.1Z" fill="#FE4E00" fill-opacity="1.000000" fill-rule="nonzero"/>
	</g>
	<g style="mix-blend-mode:normal">
		<path id="Path 13373" d="M166.69 83.64C166.69 83.69 166.68 83.73 166.66 83.76C166.64 83.79 166.6 83.82 166.55 83.84C166.5 83.86 166.43 83.88 166.33 83.89C166.24 83.9 166.12 83.91 165.98 83.91C165.84 83.91 165.72 83.9 165.63 83.89C165.54 83.88 165.47 83.86 165.41 83.84C165.36 83.82 165.32 83.79 165.3 83.76C165.28 83.73 165.27 83.69 165.27 83.64L165.27 72.11C165.27 72.06 165.28 72.02 165.3 71.98C165.32 71.95 165.36 71.92 165.41 71.9C165.47 71.88 165.54 71.86 165.63 71.85C165.72 71.83 165.84 71.83 165.98 71.83C166.12 71.83 166.24 71.83 166.33 71.85C166.43 71.86 166.5 71.88 166.55 71.9C166.6 71.92 166.64 71.95 166.66 71.98C166.68 72.02 166.69 72.06 166.69 72.11L166.69 83.64Z" fill="#FE4E00" fill-opacity="1.000000" fill-rule="nonzero"/>
	</g>
	<g style="mix-blend-mode:normal">
		<path id="Path 13374" d="M176.56 79.67C176.56 80.3 176.48 80.89 176.31 81.42C176.14 81.95 175.89 82.41 175.56 82.79C175.23 83.18 174.82 83.48 174.32 83.7C173.82 83.91 173.24 84.02 172.59 84.02C171.95 84.02 171.39 83.93 170.91 83.74C170.44 83.55 170.04 83.27 169.73 82.91C169.41 82.55 169.18 82.11 169.02 81.59C168.86 81.07 168.79 80.48 168.79 79.82C168.79 79.19 168.87 78.61 169.03 78.08C169.2 77.55 169.44 77.08 169.77 76.7C170.1 76.31 170.52 76.01 171.01 75.8C171.51 75.59 172.09 75.48 172.75 75.48C173.39 75.48 173.94 75.58 174.42 75.77C174.9 75.96 175.29 76.23 175.61 76.6C175.93 76.96 176.16 77.4 176.32 77.92C176.48 78.43 176.56 79.02 176.56 79.67ZM175.08 79.76C175.08 79.34 175.04 78.95 174.96 78.57C174.88 78.2 174.76 77.87 174.58 77.59C174.4 77.31 174.15 77.08 173.84 76.92C173.53 76.76 173.15 76.67 172.69 76.67C172.27 76.67 171.91 76.75 171.6 76.9C171.29 77.05 171.04 77.26 170.85 77.53C170.65 77.8 170.5 78.13 170.41 78.5C170.31 78.88 170.26 79.29 170.26 79.73C170.26 80.16 170.3 80.56 170.38 80.93C170.46 81.3 170.59 81.63 170.77 81.91C170.95 82.19 171.2 82.41 171.51 82.58C171.82 82.74 172.2 82.82 172.66 82.82C173.08 82.82 173.44 82.75 173.75 82.6C174.05 82.45 174.31 82.24 174.51 81.97C174.7 81.7 174.85 81.37 174.94 81C175.03 80.63 175.08 80.21 175.08 79.76Z" fill="#FE4E00" fill-opacity="1.000000" fill-rule="nonzero"/>
	</g>
	<g style="mix-blend-mode:normal">
		<path id="Path 13375" d="M185.35 83.64C185.35 83.69 185.34 83.73 185.31 83.76C185.29 83.79 185.25 83.82 185.2 83.84C185.15 83.86 185.08 83.88 184.98 83.89C184.89 83.9 184.78 83.91 184.64 83.91C184.5 83.91 184.38 83.9 184.28 83.89C184.19 83.88 184.12 83.86 184.07 83.84C184.02 83.82 183.98 83.79 183.96 83.76C183.93 83.73 183.92 83.69 183.92 83.64L183.92 79.09C183.92 78.65 183.89 78.29 183.82 78.02C183.75 77.75 183.65 77.52 183.52 77.32C183.38 77.13 183.21 76.98 183 76.87C182.79 76.77 182.55 76.72 182.27 76.72C181.92 76.72 181.56 76.84 181.2 77.1C180.85 77.35 180.47 77.72 180.08 78.21L180.08 83.64C180.08 83.69 180.07 83.73 180.05 83.76C180.02 83.79 179.99 83.82 179.93 83.84C179.88 83.86 179.81 83.88 179.72 83.89C179.63 83.9 179.51 83.91 179.36 83.91C179.22 83.91 179.11 83.9 179.02 83.89C178.93 83.88 178.85 83.86 178.8 83.84C178.74 83.82 178.71 83.79 178.68 83.76C178.67 83.73 178.66 83.69 178.66 83.64L178.66 75.87C178.66 75.83 178.66 75.79 178.68 75.75C178.7 75.72 178.73 75.69 178.78 75.67C178.84 75.64 178.9 75.62 178.98 75.62C179.06 75.61 179.17 75.6 179.3 75.6C179.43 75.6 179.53 75.61 179.62 75.62C179.7 75.62 179.77 75.64 179.81 75.67C179.83 75.7 179.94 75.83 179.94 75.87L179.94 76.9C180.38 76.41 180.82 76.05 181.25 75.82C181.68 75.6 182.12 75.48 182.57 75.48C183.09 75.48 183.52 75.57 183.87 75.75C184.23 75.92 184.51 76.16 184.73 76.45C184.95 76.74 185.11 77.09 185.2 77.48C185.3 77.88 185.35 78.35 185.35 78.9L185.35 83.64Z" fill="#FE4E00" fill-opacity="1.000000" fill-rule="nonzero"/>
	</g>
	<g style="mix-blend-mode:normal">
		<path id="Path 13376" d="M199.17 79.67C199.17 80.3 199.09 80.89 198.92 81.42C198.75 81.95 198.5 82.41 198.17 82.79C197.84 83.18 197.43 83.48 196.93 83.7C196.43 83.91 195.85 84.02 195.2 84.02C194.56 84.02 194 83.93 193.52 83.74C193.05 83.55 192.66 83.27 192.34 82.91C192.02 82.55 191.79 82.11 191.63 81.59C191.48 81.07 191.4 80.48 191.4 79.82C191.4 79.19 191.48 78.61 191.64 78.08C191.81 77.55 192.05 77.08 192.39 76.7C192.72 76.31 193.13 76.01 193.62 75.8C194.12 75.59 194.7 75.48 195.36 75.48C196 75.48 196.56 75.58 197.03 75.77C197.51 75.96 197.9 76.23 198.22 76.6C198.54 76.96 198.77 77.4 198.93 77.92C199.09 78.43 199.17 79.02 199.17 79.67ZM197.69 79.76C197.69 79.34 197.65 78.95 197.57 78.57C197.5 78.2 197.37 77.87 197.19 77.59C197.01 77.31 196.76 77.08 196.45 76.92C196.15 76.76 195.76 76.67 195.3 76.67C194.88 76.67 194.52 76.75 194.21 76.9C193.91 77.05 193.65 77.26 193.46 77.53C193.26 77.8 193.11 78.13 193.02 78.5C192.92 78.88 192.87 79.29 192.87 79.73C192.87 80.16 192.91 80.56 192.99 80.93C193.07 81.3 193.2 81.63 193.38 81.91C193.57 82.19 193.81 82.41 194.12 82.58C194.43 82.74 194.81 82.82 195.27 82.82C195.69 82.82 196.05 82.75 196.36 82.6C196.67 82.45 196.92 82.24 197.12 81.97C197.31 81.7 197.46 81.37 197.55 81C197.65 80.63 197.69 80.21 197.69 79.76Z" fill="#FE4E00" fill-opacity="1.000000" fill-rule="nonzero"/>
	</g>
	<g style="mix-blend-mode:normal">
		<path id="Path 13377" d="M207.96 83.64C207.96 83.69 207.95 83.73 207.93 83.76C207.9 83.79 207.86 83.82 207.81 83.84C207.76 83.86 207.69 83.88 207.6 83.89C207.51 83.9 207.39 83.91 207.25 83.91C207.11 83.91 206.99 83.9 206.9 83.89C206.81 83.88 206.73 83.86 206.68 83.84C206.63 83.82 206.59 83.79 206.57 83.76C206.55 83.73 206.54 83.69 206.54 83.64L206.54 79.09C206.54 78.65 206.5 78.29 206.43 78.02C206.36 77.75 206.26 77.52 206.13 77.32C206 77.13 205.83 76.98 205.61 76.87C205.41 76.77 205.16 76.72 204.89 76.72C204.53 76.72 204.17 76.84 203.82 77.1C203.46 77.35 203.08 77.72 202.69 78.21L202.69 83.64C202.69 83.69 202.68 83.73 202.66 83.76C202.64 83.79 202.6 83.82 202.55 83.84C202.5 83.86 202.42 83.88 202.33 83.89C202.24 83.9 202.12 83.91 201.98 83.91C201.84 83.91 201.72 83.9 201.63 83.89C201.54 83.88 201.46 83.86 201.41 83.84C201.35 83.82 201.32 83.79 201.3 83.76C201.28 83.73 201.27 83.69 201.27 83.64L201.27 75.87C201.27 75.83 201.28 75.79 201.29 75.75C201.31 75.72 201.35 75.69 201.4 75.67C201.45 75.64 201.52 75.62 201.6 75.62C201.68 75.61 201.78 75.6 201.92 75.6C202.04 75.6 202.15 75.61 202.23 75.62C202.31 75.62 202.38 75.64 202.43 75.67C202.44 75.7 202.56 75.83 202.56 75.87L202.56 76.9C202.99 76.41 203.43 76.05 203.86 75.82C204.3 75.6 204.74 75.48 205.18 75.48C205.7 75.48 206.13 75.57 206.49 75.75C206.84 75.92 207.13 76.16 207.35 76.45C207.57 76.74 207.72 77.09 207.82 77.48C207.91 77.88 207.96 78.35 207.96 78.9L207.96 83.64Z" fill="#FE4E00" fill-opacity="1.000000" fill-rule="nonzero"/>
	</g>
	<g style="mix-blend-mode:normal">
		<path id="Path 13378" d="M221.72 73.33C221.72 73.43 221.71 73.53 221.7 73.61C221.69 73.69 221.67 73.75 221.65 73.8C221.62 73.85 221.59 73.89 221.55 73.91C221.52 73.93 221.47 73.95 221.43 73.95L218.28 73.95L218.28 83.63C218.28 83.68 218.27 83.72 218.25 83.75C218.23 83.79 218.19 83.82 218.13 83.84C218.07 83.86 218 83.87 217.9 83.89C217.81 83.9 217.69 83.91 217.54 83.91C217.41 83.91 217.29 83.9 217.19 83.89C217.09 83.87 217.01 83.86 216.96 83.84C216.9 83.82 216.86 83.79 216.83 83.75C216.81 83.72 216.8 83.68 216.8 83.63L216.8 73.95L213.66 73.95C213.61 73.95 213.57 73.93 213.53 73.91C213.5 73.89 213.46 73.85 213.44 73.8C213.42 73.75 213.4 73.69 213.38 73.61C213.37 73.53 213.36 73.43 213.36 73.33C213.36 73.21 213.37 73.12 213.38 73.04C213.4 72.95 213.42 72.88 213.44 72.83C213.46 72.78 213.5 72.74 213.53 72.72C213.57 72.7 213.61 72.69 213.66 72.69L221.43 72.69C221.47 72.69 221.52 72.7 221.55 72.72C221.59 72.74 221.62 72.78 221.65 72.83C221.67 72.88 221.69 72.95 221.7 73.04C221.71 73.12 221.72 73.21 221.72 73.33Z" fill="#FE4E00" fill-opacity="1.000000" fill-rule="nonzero"/>
	</g>
	<g style="mix-blend-mode:normal">
		<path id="Path 13379" d="M224.76 73.25C224.76 73.58 224.7 73.81 224.57 73.93C224.44 74.05 224.21 74.11 223.87 74.11C223.54 74.11 223.31 74.05 223.18 73.93C223.06 73.82 223 73.59 223 73.26C223 72.93 223.06 72.7 223.19 72.58C223.32 72.46 223.55 72.4 223.89 72.4C224.22 72.4 224.45 72.46 224.58 72.58C224.7 72.69 224.76 72.92 224.76 73.25ZM224.6 83.64C224.6 83.69 224.59 83.73 224.56 83.76C224.54 83.79 224.5 83.82 224.45 83.84C224.4 83.86 224.33 83.88 224.23 83.89C224.14 83.9 224.02 83.91 223.88 83.91C223.74 83.91 223.63 83.9 223.53 83.89C223.44 83.88 223.37 83.86 223.31 83.84C223.26 83.82 223.22 83.79 223.2 83.76C223.18 83.73 223.17 83.69 223.17 83.64L223.17 75.87C223.17 75.83 223.18 75.79 223.2 75.76C223.22 75.72 223.26 75.7 223.31 75.67C223.37 75.65 223.44 75.63 223.53 75.62C223.63 75.61 223.74 75.6 223.88 75.6C224.02 75.6 224.14 75.61 224.23 75.62C224.33 75.63 224.4 75.65 224.45 75.67C224.5 75.7 224.54 75.72 224.56 75.76C224.59 75.79 224.6 75.83 224.6 75.87L224.6 83.64Z" fill="#FE4E00" fill-opacity="1.000000" fill-rule="nonzero"/>
	</g>
	<g style="mix-blend-mode:normal">
		<path id="Path 13380" d="M238.76 83.64C238.76 83.69 238.75 83.73 238.72 83.76C238.7 83.79 238.66 83.82 238.61 83.84C238.56 83.86 238.49 83.88 238.39 83.89C238.3 83.9 238.19 83.91 238.05 83.91C237.9 83.91 237.79 83.9 237.69 83.89C237.6 83.88 237.53 83.86 237.47 83.84C237.42 83.82 237.38 83.79 237.36 83.76C237.34 83.73 237.33 83.69 237.33 83.64L237.33 78.92C237.33 78.59 237.3 78.29 237.24 78.02C237.18 77.75 237.09 77.52 236.96 77.32C236.84 77.13 236.68 76.98 236.48 76.87C236.28 76.77 236.05 76.72 235.79 76.72C235.46 76.72 235.13 76.84 234.8 77.1C234.47 77.35 234.1 77.72 233.71 78.21L233.71 83.64C233.71 83.69 233.69 83.73 233.67 83.76C233.65 83.79 233.61 83.82 233.56 83.84C233.5 83.86 233.43 83.88 233.33 83.89C233.24 83.9 233.13 83.91 232.99 83.91C232.86 83.91 232.74 83.9 232.65 83.89C232.55 83.88 232.48 83.86 232.43 83.84C232.37 83.82 232.33 83.79 232.31 83.76C232.29 83.73 232.28 83.69 232.28 83.64L232.28 78.92C232.28 78.59 232.25 78.29 232.19 78.02C232.12 77.75 232.03 77.52 231.9 77.32C231.77 77.13 231.62 76.98 231.42 76.87C231.23 76.77 231 76.72 230.74 76.72C230.41 76.72 230.08 76.84 229.74 77.1C229.41 77.35 229.05 77.72 228.65 78.21L228.65 83.64C228.65 83.69 228.64 83.73 228.62 83.76C228.6 83.79 228.56 83.82 228.51 83.84C228.46 83.86 228.38 83.88 228.29 83.89C228.2 83.9 228.08 83.91 227.94 83.91C227.8 83.91 227.68 83.9 227.59 83.89C227.5 83.88 227.43 83.86 227.37 83.84C227.32 83.82 227.28 83.79 227.26 83.76C227.24 83.73 227.23 83.69 227.23 83.64L227.23 75.87C227.23 75.83 227.24 75.79 227.26 75.75C227.27 75.72 227.31 75.69 227.36 75.67C227.41 75.64 227.48 75.62 227.56 75.62C227.64 75.61 227.75 75.6 227.88 75.6C228.01 75.6 228.11 75.61 228.19 75.62C228.28 75.62 228.34 75.64 228.39 75.67C228.41 75.7 228.52 75.83 228.52 75.87L228.52 76.9C228.95 76.41 229.38 76.05 229.79 75.82C230.2 75.6 230.62 75.48 231.04 75.48C231.36 75.48 231.65 75.52 231.91 75.59C232.16 75.67 232.39 75.77 232.58 75.91C232.78 76.05 232.95 76.21 233.09 76.39C233.22 76.58 233.34 76.79 233.43 77.02C233.69 76.74 233.93 76.5 234.17 76.3C234.4 76.11 234.63 75.95 234.84 75.83C235.06 75.71 235.27 75.62 235.47 75.56C235.68 75.51 235.88 75.48 236.09 75.48C236.59 75.48 237.01 75.57 237.35 75.75C237.69 75.92 237.96 76.16 238.18 76.45C238.38 76.74 238.53 77.09 238.62 77.48C238.71 77.88 238.76 78.29 238.76 78.73L238.76 83.64Z" fill="#FE4E00" fill-opacity="1.000000" fill-rule="nonzero"/>
	</g>
	<g style="mix-blend-mode:normal">
		<path id="Path 13381" d="M247.99 79.42C247.99 79.64 247.93 79.8 247.82 79.9C247.71 80 247.58 80.04 247.43 80.04L242.32 80.04C242.32 80.47 242.36 80.86 242.45 81.21C242.53 81.55 242.68 81.85 242.88 82.09C243.08 82.34 243.35 82.53 243.67 82.67C243.99 82.8 244.39 82.86 244.86 82.86C245.23 82.86 245.56 82.83 245.85 82.77C246.14 82.71 246.39 82.65 246.6 82.57C246.81 82.5 246.98 82.43 247.12 82.37C247.25 82.31 247.36 82.28 247.43 82.28C247.47 82.28 247.5 82.29 247.53 82.31C247.55 82.35 247.64 82.5 247.65 82.57C247.66 82.64 247.66 82.73 247.66 82.83C247.66 82.91 247.66 82.97 247.65 83.02C247.65 83.08 247.64 83.13 247.63 83.17C247.62 83.21 247.61 83.25 247.59 83.29C247.55 83.32 247.38 83.47 247.23 83.54C247.07 83.61 246.87 83.68 246.62 83.75C246.38 83.82 246.09 83.88 245.77 83.94C245.44 83.99 245.09 84.02 244.72 84.02C244.09 84.02 243.53 83.93 243.05 83.75C242.56 83.58 242.16 83.31 241.83 82.96C241.51 82.61 241.26 82.17 241.09 81.64C240.92 81.11 240.84 80.49 240.84 79.79C240.84 79.12 240.93 78.52 241.1 77.99C241.27 77.46 241.52 77.01 241.85 76.63C242.17 76.26 242.56 75.98 243.02 75.78C243.48 75.58 244 75.48 244.57 75.48C245.18 75.48 245.7 75.58 246.13 75.78C246.56 75.97 246.91 76.23 247.18 76.57C247.46 76.9 247.66 77.28 247.79 77.73C247.92 78.18 247.99 78.65 247.99 79.16L247.99 79.42ZM246.55 79C246.57 78.25 246.41 77.66 246.06 77.23C245.7 76.81 245.18 76.6 244.5 76.6C244.14 76.6 243.83 76.66 243.57 76.79C243.3 76.93 243.08 77.1 242.9 77.32C242.72 77.54 242.58 77.79 242.48 78.09C242.38 78.38 242.33 78.68 242.32 79L246.55 79Z" fill="#FE4E00" fill-opacity="1.000000" fill-rule="nonzero"/>
	</g>
	<g style="mix-blend-mode:normal">
		<path id="Path 13382" d="M252.94 82.96C252.94 83.15 252.93 83.31 252.9 83.43C252.88 83.55 252.83 83.65 252.76 83.73C252.68 83.81 252.59 83.86 252.48 83.9C252.36 83.93 252.22 83.94 252.04 83.94C251.86 83.94 251.71 83.93 251.59 83.9C251.47 83.86 251.38 83.81 251.31 83.73C251.24 83.65 251.19 83.55 251.17 83.43C251.14 83.31 251.13 83.15 251.13 82.96C251.13 82.77 251.14 82.61 251.17 82.48C251.19 82.35 251.24 82.25 251.31 82.18C251.38 82.11 251.47 82.06 251.59 82.02C251.71 81.99 251.86 81.97 252.04 81.97C252.22 81.97 252.36 81.99 252.48 82.02C252.59 82.06 252.68 82.11 252.76 82.18C252.83 82.25 252.88 82.35 252.9 82.48C252.93 82.61 252.94 82.77 252.94 82.96ZM252.68 80.64C252.68 80.68 252.67 80.72 252.65 80.76C252.62 80.79 252.59 80.82 252.54 80.84C252.49 80.87 252.42 80.88 252.34 80.9C252.26 80.91 252.16 80.91 252.04 80.91C251.92 80.91 251.82 80.91 251.73 80.9C251.65 80.88 251.59 80.87 251.54 80.84C251.48 80.82 251.45 80.79 251.43 80.76C251.41 80.72 251.4 80.68 251.4 80.64L251.25 72.4C251.25 72.33 251.25 72.27 251.28 72.22C251.3 72.17 251.34 72.12 251.4 72.09C251.46 72.05 251.54 72.03 251.64 72.02C251.74 72 251.87 71.99 252.04 71.99C252.19 71.99 252.32 72 252.42 72.02C252.52 72.04 252.6 72.06 252.66 72.1C252.72 72.13 252.77 72.17 252.79 72.22C252.81 72.27 252.82 72.33 252.82 72.4L252.68 80.64Z" fill="#FE4E00" fill-opacity="1.000000" fill-rule="nonzero"/>
	</g>
</svg>
