<svg width="123.323242" height="35.774414" viewBox="0 0 123.323 35.7744" fill="none" xmlns="http://www.w3.org/2000/svg" xmlns:xlink="http://www.w3.org/1999/xlink">
	<desc>
			Created with Pixso.
	</desc>
	<defs/>
	<g style="mix-blend-mode:normal">
		<path id="Path 13353" d="M13.02 8.79C13.02 7.67 12.73 6.98 12.15 6.73C11.57 6.49 10.84 6.36 9.97 6.36C8.18 6.36 6.55 6.71 5.1 7.42C3.64 8.12 2.91 8.97 2.91 9.96C2.91 10.67 3.23 11.29 3.88 11.82C4.53 12.35 5.93 12.93 8.11 13.56C10.21 14.17 11.71 14.8 12.6 15.44C13.49 16.09 13.94 16.87 13.94 17.78C13.94 18.7 13.31 19.7 12.07 20.76C10.83 21.83 9.33 22.65 7.58 23.2C5.83 23.76 4.34 24.04 3.11 24.04C2.09 24.04 1.32 23.92 0.79 23.68C0.26 23.44 0 23.14 0 22.77C0 22.52 0.07 22.21 0.23 21.84C0.39 21.47 0.54 21.29 0.7 21.29C0.87 21.29 1.05 21.32 1.22 21.38C2.13 21.72 3.02 21.89 3.91 21.89C5.51 21.89 7.2 21.42 8.99 20.49C10.78 19.55 11.68 18.68 11.68 17.87C11.68 17.52 11.41 17.19 10.86 16.87C10.32 16.56 8.94 16.05 6.72 15.35C3.98 14.48 2.29 13.63 1.66 12.8C1.03 11.98 0.72 11.11 0.72 10.2C0.72 8.44 1.73 7.03 3.75 5.95C5.77 4.87 7.88 4.33 10.08 4.33C11.54 4.33 12.67 4.58 13.45 5.08C14.24 5.57 14.63 6.12 14.63 6.72C14.63 7 14.54 7.42 14.37 7.97C14.19 8.52 13.74 8.79 13.02 8.79Z" fill="#FFFFFF" fill-opacity="1.000000" fill-rule="nonzero"/>
	</g>
	<g style="mix-blend-mode:normal">
		<path id="Path 13354" d="M22.78 10.15C23.65 10.08 24.47 10 25.24 9.91C26 9.83 26.63 9.78 27.14 9.78C27.78 9.78 28.19 9.84 28.36 9.96C28.53 10.08 28.61 10.29 28.61 10.58C28.61 11.27 28.13 11.64 27.18 11.7C25.95 11.77 24.83 11.88 23.8 12.01C22.76 12.15 22.21 12.26 22.13 12.35C22.05 12.44 21.79 13.44 21.36 15.37C20.93 17.29 20.72 18.54 20.72 19.11C20.72 20.04 20.84 20.66 21.08 20.97C21.33 21.28 21.7 21.43 22.19 21.43C22.91 21.43 23.92 20.88 25.21 19.79C25.71 19.35 26.1 19.12 26.37 19.12C26.73 19.12 26.91 19.32 26.91 19.71C26.91 20.32 26.33 21.1 25.16 22.07C23.99 23.04 22.79 23.52 21.56 23.52C19.52 23.52 18.5 22.32 18.5 19.91C18.5 19.04 18.71 17.69 19.13 15.87C19.55 14.05 19.75 12.96 19.75 12.6C19.75 12.47 19.65 12.41 19.45 12.41L18.13 12.52C17.05 12.52 16.51 12.09 16.51 11.23C16.51 10.74 16.76 10.49 17.26 10.49L19.87 10.49C20.04 10.49 20.2 10.41 20.34 10.25C20.47 10.09 20.67 9.55 20.93 8.64C21.19 7.72 21.43 6.81 21.63 5.92C21.83 5.03 22.23 4.59 22.82 4.59C23.18 4.59 23.47 4.71 23.67 4.97C23.87 5.22 23.97 5.46 23.97 5.68C23.97 5.8 23.82 6.4 23.52 7.49L22.78 10.15Z" fill="#FFFFFF" fill-opacity="1.000000" fill-rule="nonzero"/>
	</g>
	<g style="mix-blend-mode:normal">
		<path id="Path 13355" d="M39.16 23.46C37.6 24.81 36.23 25.8 35.06 26.41C33.88 27.02 32.97 27.33 32.35 27.33C31.51 27.33 30.87 26.98 30.43 26.28C29.99 25.59 29.76 24.77 29.76 23.84C29.76 22.54 30.03 20.93 30.56 19.02C31.08 17.11 31.48 15.97 31.74 15.61C31.99 15.25 32.4 15.07 32.97 15.07C33.21 15.07 33.4 15.21 33.55 15.49C33.71 15.77 33.78 16.09 33.78 16.44C33.78 16.65 33.68 16.93 33.49 17.27C33.03 18.06 32.79 18.5 32.77 18.58C32.75 18.67 32.59 19.18 32.29 20.11C31.98 21.04 31.83 21.92 31.83 22.74C31.83 23.03 31.9 23.48 32.04 24.08C32.18 24.69 32.47 25 32.91 25C33.37 25 33.94 24.86 34.62 24.57C35.3 24.29 36.07 23.83 36.92 23.18C37.78 22.54 38.35 22.02 38.65 21.63C38.94 21.23 39.15 20.78 39.28 20.27C39.4 19.76 39.49 18.66 39.54 16.97C39.59 15.28 40 14.44 40.76 14.44C41.22 14.44 41.52 14.56 41.65 14.8C41.79 15.04 41.85 15.5 41.85 16.17C41.85 16.73 41.82 17.43 41.74 18.27C41.65 19.32 41.59 20.08 41.56 20.52C41.44 22.85 41.14 25.18 40.66 27.52C40.17 29.87 39.46 31.83 38.53 33.4C37.6 34.98 36.32 35.77 34.69 35.77C33.04 35.77 31.57 35.33 30.28 34.47C28.99 33.6 28.34 32.87 28.34 32.27C28.34 31.99 28.41 31.72 28.54 31.45C28.67 31.18 28.84 31.04 29.04 31.04C29.14 31.04 29.25 31.12 29.37 31.28C30.48 32.98 32.22 33.83 34.59 33.83C35.82 33.83 36.85 32.75 37.68 30.6C38.51 28.45 38.97 26.44 39.05 24.55C39.07 24.19 39.1 23.83 39.16 23.46Z" fill="#FFFFFF" fill-opacity="1.000000" fill-rule="nonzero"/>
	</g>
	<g style="mix-blend-mode:normal">
		<path id="Path 13356" d="M89.63 23.84C90.14 21.83 90.65 19.35 91.14 16.42C91.64 13.48 91.88 11.43 91.88 10.26C91.88 9.65 91.93 9.23 92.03 9.01C92.13 8.79 92.33 8.6 92.64 8.44C92.95 8.28 93.28 8.2 93.65 8.2C93.88 8.2 94.08 8.37 94.25 8.71C94.42 9.04 94.51 9.45 94.51 9.91C94.51 10.27 94.37 10.92 94.1 11.84C93.57 13.93 93.04 16.42 92.53 19.29C92.01 22.17 91.76 23.83 91.76 24.28C91.76 25.19 91.77 25.76 91.79 25.99C91.83 26.43 91.69 26.78 91.37 27.03C91.05 27.29 90.64 27.41 90.12 27.41C89.82 27.41 89.61 27.37 89.51 27.29C89.4 27.21 89.18 26.99 88.85 26.61C88.51 26.24 88.3 25.88 88.22 25.54C88.15 25.22 87.9 24.79 87.45 24.27C85.01 21.16 82.83 17.76 80.88 14.08C80.33 16.03 79.82 18.74 79.35 22.2L79.03 24.32C79 24.53 78.98 24.96 78.99 25.59C78.99 26.23 78.96 26.66 78.89 26.88C78.82 27.1 78.65 27.35 78.38 27.63C78.11 27.92 77.86 28.06 77.61 28.06C77.05 28.06 76.71 27.82 76.61 27.33C76.51 26.84 76.46 26.47 76.46 26.21C76.46 25.59 76.65 24.59 77.02 23.19C77.39 21.81 77.85 19.67 78.39 16.79C78.94 13.91 79.21 12.08 79.21 11.3L79.2 10.61C79.21 10.36 79.25 10.14 79.34 9.95C79.43 9.76 79.6 9.6 79.85 9.47C80.1 9.33 80.35 9.26 80.59 9.26C80.82 9.26 81.03 9.31 81.22 9.41C81.42 9.51 81.56 9.65 81.64 9.85C81.73 10.05 81.83 10.42 81.95 10.96C82.29 12.6 83.33 14.79 85.08 17.53C86.84 20.27 88.35 22.38 89.63 23.84Z" fill="#FFFFFF" fill-opacity="1.000000" fill-rule="nonzero"/>
	</g>
	<g style="mix-blend-mode:normal">
		<path id="Path 13357" d="M58.64 30.08C51.33 30.08 45.38 24.13 45.38 16.82C45.38 9.51 51.33 3.56 58.64 3.56C65.95 3.56 71.9 9.51 71.9 16.82C71.9 24.13 65.95 30.08 58.64 30.08ZM58.64 5.24C52.25 5.24 47.06 10.43 47.06 16.82C47.06 23.21 52.25 28.4 58.64 28.4C65.03 28.4 70.22 23.21 70.22 16.82C70.22 10.43 65.03 5.24 58.64 5.24Z" fill="#FE4E00" fill-opacity="1.000000" fill-rule="nonzero"/>
	</g>
	<g style="mix-blend-mode:normal">
		<path id="Path 13358" d="M57.45 18.47C57.35 18.47 57.25 18.46 57.16 18.42C56.94 18.35 56.77 18.18 56.67 17.97L49.46 1.17C49.27 0.74 49.47 0.25 49.9 0.06C50.32 -0.12 50.82 0.08 51 0.5L57.86 16.48L64.79 12.92C65.2 12.71 65.71 12.87 65.92 13.28C66.13 13.7 65.97 14.2 65.55 14.41L57.83 18.38C57.71 18.44 57.58 18.47 57.45 18.47Z" fill="#FE4E00" fill-opacity="1.000000" fill-rule="nonzero"/>
	</g>
	<g style="mix-blend-mode:normal">
		<path id="Path 13359" d="M103.03 8.32L101.68 5.43C100.99 3.97 101.63 2.23 103.09 1.54L105.8 0.27C107.26 -0.41 109 0.22 109.69 1.68L111.04 4.56L103.03 8.32ZM107.04 1.33C106.81 1.33 106.58 1.38 106.36 1.48L103.65 2.75C102.86 3.12 102.52 4.07 102.89 4.87L103.67 6.54L109.26 3.92L108.48 2.25C108.21 1.67 107.64 1.33 107.04 1.33Z" fill="#F9F9F9" fill-opacity="1.000000" fill-rule="nonzero"/>
	</g>
	<g style="mix-blend-mode:normal">
		<rect id="Rectangle 1258" x="106.151367" y="6.122070" width="1.335028" height="2.482658" transform="rotate(-25.1253 106.151367 6.122070)" fill="#F9F9F9" fill-opacity="1.000000"/>
	</g>
	<g style="mix-blend-mode:normal">
		<path id="Path 13360" d="M106.56 21.32L104.3 16.49C103.53 14.85 103.44 13.01 104.06 11.3C104.68 9.59 105.92 8.23 107.57 7.46C109.21 6.69 111.05 6.6 112.76 7.22C114.47 7.84 115.83 9.08 116.6 10.72L118.86 15.55L106.56 21.32ZM110.45 8.15C109.66 8.15 108.87 8.32 108.13 8.67C106.81 9.29 105.81 10.38 105.31 11.75C104.82 13.12 104.89 14.61 105.51 15.93L107.2 19.54L117.09 14.91L115.39 11.29C114.77 9.97 113.68 8.97 112.31 8.47C111.7 8.26 111.07 8.15 110.45 8.15Z" fill="#F9F9F9" fill-opacity="1.000000" fill-rule="nonzero"/>
	</g>
	<g style="mix-blend-mode:normal">
		<path id="Path 13361" d="M106.8 25.81L106.52 25.21C105.97 24.04 105.91 22.72 106.35 21.51C106.79 20.29 107.68 19.32 108.85 18.77L115.24 15.77C116.41 15.23 117.73 15.16 118.94 15.6C120.16 16.04 121.13 16.93 121.68 18.1L121.96 18.7L106.8 25.81ZM117.29 16.65C116.79 16.65 116.28 16.76 115.81 16.98L109.41 19.98C108.57 20.38 107.92 21.08 107.61 21.96C107.36 22.63 107.33 23.34 107.5 24.01L120.13 18.09C119.72 17.53 119.15 17.1 118.49 16.86C118.1 16.72 117.7 16.65 117.29 16.65Z" fill="#F9F9F9" fill-opacity="1.000000" fill-rule="nonzero"/>
	</g>
	<g style="mix-blend-mode:normal">
		<path id="Path 13362" d="M115.07 29.46L111.61 22.08L116.15 19.95L119.61 27.34L115.07 29.46ZM113.39 22.72L115.71 27.69L117.83 26.7L115.51 21.73L113.39 22.72Z" fill="#F9F9F9" fill-opacity="1.000000" fill-rule="nonzero"/>
	</g>
	<g style="mix-blend-mode:normal">
		<rect id="Rectangle 1259" x="111.483398" y="29.679688" width="11.601578" height="1.335027" transform="rotate(-25.1138 111.483398 29.679688)" fill="#F9F9F9" fill-opacity="1.000000"/>
	</g>
	<g style="mix-blend-mode:normal">
		<rect id="Rectangle 1260" x="99.118164" y="19.276367" width="4.440101" height="1.335028" transform="rotate(-25.1138 99.118164 19.276367)" fill="#F9F9F9" fill-opacity="1.000000"/>
	</g>
	<g style="mix-blend-mode:normal">
		<path id="Path 13363" d="M104.78 24.9C104.01 24.9 103.27 24.47 102.92 23.72L100.8 19.22L102.01 18.65L104.12 23.16C104.21 23.33 104.35 23.46 104.53 23.53C104.71 23.59 104.9 23.58 105.08 23.5L106.21 22.97L106.77 24.18L105.64 24.71C105.36 24.84 105.07 24.9 104.78 24.9Z" fill="#F9F9F9" fill-opacity="1.000000" fill-rule="nonzero"/>
	</g>
	<g style="mix-blend-mode:normal">
		<rect id="Rectangle 1261" x="118.118164" y="10.367188" width="4.440101" height="1.335028" transform="rotate(-25.1138 118.118164 10.367188)" fill="#F9F9F9" fill-opacity="1.000000"/>
	</g>
	<g style="mix-blend-mode:normal">
		<path id="Path 13364" d="M120.72 17.64L120.16 16.43L121.57 15.77C121.74 15.69 121.88 15.54 121.94 15.36C122.01 15.18 122 14.99 121.92 14.81L119.8 10.31L121.01 9.74L123.13 14.25C123.6 15.27 123.16 16.5 122.14 16.98L120.72 17.64Z" fill="#F9F9F9" fill-opacity="1.000000" fill-rule="nonzero"/>
	</g>
</svg>
