<svg width="24.000000" height="24.082031" viewBox="0 0 24 24.082" fill="none" xmlns="http://www.w3.org/2000/svg" xmlns:xlink="http://www.w3.org/1999/xlink">
	<desc>
			Created with Pixso.
	</desc>
	<defs/>
	<g style="mix-blend-mode:normal">
		<rect id="Rectangle 823" y="0.040039" width="24.000000" height="24.000000" fill="#FFFFFF" fill-opacity="0"/>
		<rect id="Rectangle 823" x="0.500000" y="0.540039" width="23.000000" height="23.000000" stroke="#707070" stroke-opacity="0" stroke-width="1.000000"/>
	</g>
	<g style="mix-blend-mode:normal">
		<path id="Path 4" d="M20.53 17.09C19.07 15.85 18.23 14.05 18.23 12.14L18.23 9.44C18.23 6.04 15.7 3.23 12.43 2.75L12.43 1.71C12.43 1.18 12 0.75 11.46 0.75C10.93 0.75 10.5 1.18 10.5 1.71L10.5 2.75C7.22 3.23 4.7 6.04 4.7 9.44L4.7 12.14C4.7 14.05 3.86 15.85 2.39 17.1C2.02 17.42 1.8 17.89 1.8 18.38C1.8 19.31 2.56 20.07 3.49 20.07L19.44 20.07C20.37 20.07 21.13 19.31 21.13 18.38C21.13 17.89 20.91 17.42 20.53 17.09Z" fill="#FFFFFF" fill-opacity="0" fill-rule="nonzero"/>
		<path id="Path 4" d="M18.23 12.14L18.23 9.44C18.23 6.04 15.7 3.23 12.43 2.75L12.43 1.71C12.43 1.18 12 0.75 11.46 0.75C10.93 0.75 10.5 1.18 10.5 1.71L10.5 2.75C7.22 3.23 4.7 6.04 4.7 9.44L4.7 12.14C4.7 14.05 3.86 15.85 2.39 17.1C2.02 17.42 1.8 17.89 1.8 18.38C1.8 19.31 2.56 20.07 3.49 20.07L19.44 20.07C20.37 20.07 21.13 19.31 21.13 18.38C21.13 17.89 20.91 17.42 20.53 17.09C19.07 15.85 18.23 14.05 18.23 12.14Z" stroke="#FFFFFF" stroke-opacity="1.000000" stroke-width="1.500000"/>
	</g>
	<g style="mix-blend-mode:normal">
		<path id="Path 5" d="M11.46 23.33C13.21 23.33 14.68 22.08 15.01 20.43L7.91 20.43C8.25 22.08 9.71 23.33 11.46 23.33Z" fill="#FFFFFF" fill-opacity="0" fill-rule="nonzero"/>
		<path id="Path 5" d="M15.01 20.43L7.91 20.43C8.25 22.08 9.71 23.33 11.46 23.33C13.21 23.33 14.68 22.08 15.01 20.43Z" stroke="#FFFFFF" stroke-opacity="1.000000" stroke-width="1.500000"/>
	</g>
</svg>
