<svg width="24.000000" height="24.000000" viewBox="0 0 24 24" fill="none" xmlns="http://www.w3.org/2000/svg" xmlns:xlink="http://www.w3.org/1999/xlink">
	<desc>
			Created with Pixso.
	</desc>
	<defs/>
	<g style="mix-blend-mode:normal">
		<path id="Path 11971" d="M19.09 20.8C17.15 22.37 14.68 23.31 12 23.31C9.31 23.31 6.84 22.37 4.9 20.8C2.33 18.73 0.68 15.56 0.68 12C0.68 5.75 5.75 0.68 12 0.68C18.24 0.68 23.31 5.75 23.31 12C23.31 15.56 21.66 18.73 19.09 20.8Z" stroke="#000000" stroke-opacity="1.000000" stroke-width="1.000000"/>
	</g>
	<g style="mix-blend-mode:normal">
		<path id="Path 11972" d="M12 23.31C9.31 23.31 6.84 22.37 4.9 20.8C5.3 17.23 8.32 14.45 12 14.45C13.97 14.45 15.75 15.25 17.04 16.54C18.16 17.66 18.91 19.15 19.09 20.8C17.15 22.37 14.68 23.31 12 23.31Z" stroke="#050505" stroke-opacity="1.000000" stroke-width="1.000000"/>
	</g>
	<g style="mix-blend-mode:normal">
		<path id="Path 11973" d="M12 12.98C10.09 12.98 8.55 11.44 8.55 9.54C8.55 7.63 10.09 6.09 12 6.09C13.9 6.09 15.44 7.63 15.44 9.54C15.44 11.44 13.9 12.98 12 12.98Z" stroke="#050505" stroke-opacity="1.000000" stroke-width="1.000000"/>
	</g>
	<g style="mix-blend-mode:normal"/>
</svg>
