<svg width="332.000000" height="193.666504" viewBox="0 0 332 193.667" fill="none" xmlns="http://www.w3.org/2000/svg" xmlns:xlink="http://www.w3.org/1999/xlink">
	<desc>
			Created with Pixso.
	</desc>
	<defs/>
	<g opacity="0.200000" style="mix-blend-mode:normal">
		<path id="Rectangle 999" d="M10 0L322 0C327.52 0 332 4.47 332 10L332 193.66L0 193.66L0 10C0 4.47 4.47 0 10 0Z" fill="#000000" fill-opacity="1.000000" fill-rule="evenodd"/>
		<path id="Rectangle 999" d="M322 0C327.52 0 332 4.47 332 10L332 193.66L0 193.66L0 10C0 4.47 4.47 0 10 0L322 0ZM322 1C326.97 1 331 5.02 331 10L331 192.66L1 192.66L1 10C1 5.02 5.02 1 10 1L322 1Z" fill="#707070" fill-opacity="0" fill-rule="evenodd"/>
	</g>
</svg>
