<svg width="80.000000" height="73.000000" viewBox="0 0 80 73" fill="none" xmlns="http://www.w3.org/2000/svg" xmlns:xlink="http://www.w3.org/1999/xlink">
	<desc>
			Created with Pixso.
	</desc>
	<defs/>
	<g style="mix-blend-mode:normal">
		<rect id="Rectangle 1942" rx="10.000000" width="80.000000" height="73.000000" fill="#000000" fill-opacity="0"/>
		<rect id="Rectangle 1942" x="0.500000" y="0.500000" rx="10.000000" width="79.000000" height="72.000000" stroke="#203052" stroke-opacity="1.000000" stroke-width="1.000000"/>
	</g>
	<g style="mix-blend-mode:normal">
		<path id="Share" d="M28.99 50.36L27.8 50.36C27.68 49.35 26.74 48.77 25.51 48.77C24.16 48.77 23.26 49.48 23.26 50.46C23.26 51.55 24.47 51.95 25.23 52.15L26.27 52.43C27.32 52.7 29.13 53.32 29.13 55.23C29.13 56.88 27.8 58.17 25.45 58.17C23.26 58.17 21.91 57.04 21.79 55.37L23.06 55.37C23.16 56.52 24.24 57.06 25.45 57.06C26.86 57.06 27.94 56.32 27.94 55.21C27.94 54.2 26.98 53.82 25.91 53.52L24.66 53.16C23.06 52.7 22.07 51.89 22.07 50.52C22.07 48.81 23.6 47.67 25.55 47.67C27.52 47.67 28.93 48.82 28.99 50.36ZM34.18 51.31C33.02 51.31 32.17 52.07 32.17 53.4L32.17 58L31 58L31 47.81L32.17 47.81L32.17 51.55L32.27 51.55C32.63 50.76 33.31 50.26 34.52 50.26C36.08 50.26 37.12 51.18 37.12 53.14L37.12 58L35.95 58L35.95 53.22C35.95 52.01 35.28 51.31 34.18 51.31ZM48.34 58L47.16 58L47.16 50.36L48.3 50.36L48.3 51.51L48.38 51.51C48.66 50.76 49.45 50.24 50.37 50.24C50.54 50.24 50.85 50.25 50.98 50.26L50.98 51.45C50.9 51.43 50.58 51.37 50.27 51.37C49.15 51.37 48.34 52.13 48.34 53.16L48.34 58ZM43.79 56.96C43.55 57.46 42.85 58.17 41.52 58.17C40.07 58.17 38.91 57.32 38.91 55.83C38.91 54.08 40.46 53.76 41.87 53.58C43.27 53.4 43.84 53.45 43.84 52.89L43.84 52.84C43.84 51.87 43.31 51.29 42.23 51.29C41.12 51.29 40.5 51.89 40.24 52.45L39.13 52.05C39.73 50.66 41.04 50.26 42.19 50.26C43.17 50.26 45.02 50.54 45.02 52.96L45.02 58L43.84 58L43.84 56.96L43.79 56.96ZM58.38 56.22C58.02 57.38 56.89 58.16 55.34 58.16C53.13 58.16 51.78 56.58 51.78 54.24C51.78 51.89 53.15 50.26 55.22 50.26C56.81 50.26 58.5 51.23 58.5 54.08L58.5 54.57L52.96 54.57C53.01 56.21 53.96 57.1 55.34 57.1C56.26 57.1 56.95 56.7 57.25 55.91L58.38 56.22ZM55.22 51.31C53.88 51.31 53.04 52.37 52.96 53.56L57.31 53.56C57.31 52.27 56.49 51.31 55.22 51.31ZM40.09 55.89C40.09 56.7 40.76 57.12 41.7 57.12C43.09 57.12 43.84 56.19 43.84 55.23L43.84 54.16C43.64 54.4 42.31 54.54 41.82 54.59C40.9 54.71 40.09 54.99 40.09 55.89Z" fill="#203052" fill-opacity="1.000000" fill-rule="evenodd"/>
		<path id="Share" d="M27.8 50.36L28.99 50.36C28.93 48.82 27.52 47.67 25.55 47.67C23.6 47.67 22.07 48.81 22.07 50.52C22.07 51.89 23.06 52.7 24.66 53.16L25.91 53.52C26.98 53.82 27.94 54.2 27.94 55.21C27.94 56.32 26.86 57.06 25.45 57.06C24.24 57.06 23.16 56.52 23.06 55.37L21.79 55.37C21.91 57.04 23.26 58.17 25.45 58.17C27.8 58.17 29.13 56.88 29.13 55.23C29.13 53.32 27.32 52.7 26.27 52.43L25.23 52.15C24.47 51.95 23.26 51.55 23.26 50.46C23.26 49.48 24.16 48.77 25.51 48.77C26.74 48.77 27.68 49.35 27.8 50.36ZM32.17 53.4C32.17 52.07 33.02 51.31 34.18 51.31C35.28 51.31 35.95 52.01 35.95 53.22L35.95 58L37.12 58L37.12 53.14C37.12 51.18 36.08 50.26 34.52 50.26C33.31 50.26 32.63 50.76 32.27 51.55L32.17 51.55L32.17 47.81L31 47.81L31 58L32.17 58L32.17 53.4ZM41.52 58.17C42.85 58.17 43.55 57.46 43.79 56.96L43.84 56.96L43.84 58L45.02 58L45.02 52.96C45.02 50.54 43.17 50.26 42.19 50.26C41.04 50.26 39.73 50.66 39.13 52.05L40.24 52.45C40.5 51.89 41.12 51.29 42.23 51.29C43.31 51.29 43.84 51.87 43.84 52.84L43.84 52.89C43.84 53.45 43.27 53.4 41.87 53.58C40.46 53.76 38.91 54.08 38.91 55.83C38.91 57.32 40.07 58.17 41.52 58.17ZM41.7 57.12C40.76 57.12 40.09 56.7 40.09 55.89C40.09 54.99 40.9 54.71 41.82 54.59C42.31 54.54 43.64 54.4 43.84 54.16L43.84 55.23C43.84 56.19 43.09 57.12 41.7 57.12ZM47.16 58L48.34 58L48.34 53.16C48.34 52.13 49.15 51.37 50.27 51.37C50.58 51.37 50.9 51.43 50.98 51.45L50.98 50.26C50.85 50.25 50.54 50.24 50.37 50.24C49.45 50.24 48.66 50.76 48.38 51.51L48.3 51.51L48.3 50.36L47.16 50.36L47.16 58ZM55.34 58.16C56.89 58.16 58.02 57.38 58.38 56.22L57.25 55.91C56.95 56.7 56.26 57.1 55.34 57.1C53.96 57.1 53.01 56.21 52.96 54.57L58.5 54.57L58.5 54.08C58.5 51.23 56.81 50.26 55.22 50.26C53.15 50.26 51.78 51.89 51.78 54.24C51.78 56.58 53.13 58.16 55.34 58.16ZM52.96 53.56C53.04 52.37 53.88 51.31 55.22 51.31C56.49 51.31 57.31 52.27 57.31 53.56L52.96 53.56Z" stroke="#707070" stroke-opacity="0" stroke-width="1.000000"/>
	</g>
	<g style="mix-blend-mode:normal">
		<path id="Path 11987" d="M29.18 33.88C30.22 17.11 41.75 20.18 41.75 20.18L41.75 12.92L51.18 24.45L41.75 34.4L41.75 28.64C35.46 26.99 29.18 33.88 29.18 33.88Z" stroke="#203052" stroke-opacity="1.000000" stroke-width="1.000000" stroke-linejoin="round"/>
	</g>
	<g style="mix-blend-mode:normal"/>
</svg>
