<svg width="24.000000" height="24.000000" viewBox="0 0 24 24" fill="none" xmlns="http://www.w3.org/2000/svg" xmlns:xlink="http://www.w3.org/1999/xlink">
	<desc>
			Created with Pixso.
	</desc>
	<defs/>
	<g style="mix-blend-mode:normal">
		<path id="Rectangle 1395" d="M10.64 0.83L13.33 0.83C15.08 0.83 16.49 2.24 16.49 3.98L16.49 7C16.49 9.48 14.47 11.5 11.99 11.5C9.5 11.5 7.49 9.48 7.49 7L7.49 3.98C7.49 2.24 8.9 0.83 10.64 0.83Z" fill="#FE4E00" fill-opacity="1.000000" fill-rule="evenodd"/>
		<path id="Rectangle 1395" d="M13.33 0.83C15.08 0.83 16.49 2.24 16.49 3.98L16.49 7C16.49 9.48 14.47 11.5 11.99 11.5C9.5 11.5 7.49 9.48 7.49 7L7.49 3.98C7.49 2.24 8.9 0.83 10.64 0.83L13.33 0.83Z" stroke="#000000" stroke-opacity="0" stroke-width="1.000000"/>
	</g>
	<g style="mix-blend-mode:normal">
		<path id="Path 22610" d="M8.41 13.5L9.36 17.39C9.73 18.93 10.8 19.98 11.99 19.98C13.18 19.98 14.24 18.93 14.62 17.39L15.66 13.13C15.84 12.39 16.43 11.99 16.97 12.23L20.51 13.84C21.42 14.26 22.11 15.31 22.3 16.61L22.8 20.04C22.91 20.79 22.57 21.52 22.03 21.71C19.47 22.58 12 24.52 2 21.65C1.44 21.49 1.08 20.73 1.19 19.96L1.68 16.61C1.87 15.31 2.55 14.26 3.47 13.84L6.74 12.36C7.43 12.04 8.18 12.55 8.41 13.5Z" fill="#FE4E00" fill-opacity="1.000000" fill-rule="nonzero"/>
		<path id="Path 22610" d="M9.36 17.39C9.73 18.93 10.8 19.98 11.99 19.98C13.18 19.98 14.24 18.93 14.62 17.39L15.66 13.13C15.84 12.39 16.43 11.99 16.97 12.23L20.51 13.84C21.42 14.26 22.11 15.31 22.3 16.61L22.8 20.04C22.91 20.79 22.57 21.52 22.03 21.71C19.47 22.58 12 24.52 2 21.65C1.44 21.49 1.08 20.73 1.19 19.96L1.68 16.61C1.87 15.31 2.55 14.26 3.47 13.84L6.74 12.36C7.43 12.04 8.18 12.55 8.41 13.5L9.36 17.39Z" stroke="#FE4E00" stroke-opacity="0" stroke-width="1.000000"/>
	</g>
	<g style="mix-blend-mode:normal">
		<path id="Path 22611" d="" stroke="#000000" stroke-opacity="1.000000" stroke-width="1.000000"/>
	</g>
	<g style="mix-blend-mode:normal"/>
</svg>
