<svg width="22.647461" height="23.333984" viewBox="0 0 22.6475 23.334" fill="none" xmlns="http://www.w3.org/2000/svg" xmlns:xlink="http://www.w3.org/1999/xlink">
	<desc>
			Created with Pixso.
	</desc>
	<defs/>
	<g style="mix-blend-mode:normal">
		<path id="Rectangle 1395" d="M12.66 0.5C14.4 0.5 15.81 1.91 15.81 3.65L15.81 6.66C15.81 9.15 13.8 11.16 11.31 11.16C8.83 11.16 6.81 9.15 6.81 6.66L6.81 3.65C6.81 1.91 8.22 0.5 9.97 0.5L12.66 0.5Z" stroke="#000000" stroke-opacity="1.000000" stroke-width="1.000000"/>
	</g>
	<g style="mix-blend-mode:normal">
		<path id="Path 22610" d="M8.68 17.05C9.06 18.6 10.12 19.64 11.31 19.64C12.51 19.64 13.57 18.6 13.95 17.05L14.99 12.79C15.17 12.05 15.75 11.65 16.29 11.9L19.83 13.51C20.75 13.93 21.43 14.98 21.62 16.27L22.12 19.7C22.23 20.46 21.9 21.19 21.35 21.37C18.79 22.25 11.32 24.19 1.33 21.31C0.76 21.15 0.4 20.39 0.52 19.63L1.01 16.27C1.2 14.98 1.88 13.93 2.79 13.51L6.06 12.03C6.75 11.71 7.5 12.22 7.73 13.17L8.68 17.05Z" stroke="#000000" stroke-opacity="1.000000" stroke-width="1.000000"/>
	</g>
	<g style="mix-blend-mode:normal">
		<path id="Path 22611" d="" stroke="#000000" stroke-opacity="1.000000" stroke-width="1.000000"/>
	</g>
</svg>
