<svg width="18.000000" height="18.000000" viewBox="0 0 18 18" fill="none" xmlns="http://www.w3.org/2000/svg" xmlns:xlink="http://www.w3.org/1999/xlink">
	<desc>
			Created with Pixso.
	</desc>
	<defs/>
	<g style="mix-blend-mode:normal">
		<rect id="Rectangle 1333" x="3.000000" y="1.000000" rx="0.500000" width="12.000000" height="1.000000" stroke="#727272" stroke-opacity="1.000000" stroke-width="0.700000"/>
	</g>
	<g style="mix-blend-mode:normal">
		<rect id="Rectangle 1334" x="3.000000" y="16.000000" rx="0.500000" width="12.000000" height="1.000000" stroke="#727272" stroke-opacity="1.000000" stroke-width="0.700000"/>
	</g>
	<g style="mix-blend-mode:normal">
		<path id="Path 15924" d="M3.78 2.23C3.78 2.23 3.08 4.77 5.87 7.42C6.69 8.2 6.7 9.32 5.95 10.14C4.92 11.28 3.78 13.11 3.78 15.64" stroke="#727272" stroke-opacity="1.000000" stroke-width="1.000000"/>
	</g>
	<g style="mix-blend-mode:normal">
		<path id="Path 15925" d="M14 2.23C14 2.23 14.69 4.77 11.9 7.42C11.09 8.2 11.08 9.32 11.82 10.14C12.85 11.28 14 13.11 14 15.64" stroke="#727272" stroke-opacity="1.000000" stroke-width="1.000000"/>
	</g>
	<g style="mix-blend-mode:normal">
		<path id="Path 15926" d="M7.09 6.33L10.68 6.33C10.88 6.33 11 6.46 10.9 6.57L9.74 7.78C9.27 8.27 8.5 8.27 8.03 7.78L6.88 6.57C6.78 6.46 6.9 6.33 7.09 6.33Z" fill="#727272" fill-opacity="1.000000" fill-rule="nonzero"/>
	</g>
	<g style="mix-blend-mode:normal">
		<path id="Path 15927" d="M11.86 14.65L5.91 14.65C5.59 14.65 5.39 14.36 5.56 14.13L7.06 12.05C7.96 10.8 9.82 10.8 10.72 12.05L12.22 14.13C12.38 14.36 12.19 14.65 11.86 14.65Z" fill="#727272" fill-opacity="1.000000" fill-rule="nonzero"/>
	</g>
	<g style="mix-blend-mode:normal">
		<rect id="Rectangle 1335" x="8.707031" y="8.151367" width="0.370504" height="2.964030" fill="#727272" fill-opacity="1.000000"/>
	</g>
	<g style="mix-blend-mode:normal"/>
</svg>
