<svg width="335.000000" height="188.000000" viewBox="0 0 335 188" fill="none" xmlns="http://www.w3.org/2000/svg" xmlns:xlink="http://www.w3.org/1999/xlink">
	<desc>
			Created with Pixso.
	</desc>
	<defs/>
	<g style="mix-blend-mode:normal">
		<rect id="Rectangle 1927" width="335.000000" height="145.000000" fill="#FFFFFF" fill-opacity="0"/>
		<rect id="Rectangle 1927" x="0.500000" y="0.500000" width="334.000000" height="144.000000" stroke="#707070" stroke-opacity="1.000000" stroke-width="1.000000" stroke-dasharray="4 4"/>
	</g>
	<g style="mix-blend-mode:normal">
		<rect id="Rectangle 1377" x="125.000000" y="102.000000" rx="4.000000" width="86.000000" height="86.000000" fill="#FFFFFF" fill-opacity="1.000000"/>
		<rect id="Rectangle 1377" x="125.500000" y="102.500000" rx="4.000000" width="85.000000" height="85.000000" stroke="#707070" stroke-opacity="1.000000" stroke-width="1.000000" stroke-dasharray="5 5"/>
	</g>
	<g style="mix-blend-mode:normal">
		<rect id="Rectangle 484" x="156.000000" y="133.000977" width="24.000000" height="24.000000" fill="#FFFFFF" fill-opacity="0"/>
		<rect id="Rectangle 484" x="156.500000" y="133.500977" width="23.000000" height="23.000000" stroke="#707070" stroke-opacity="0" stroke-width="1.000000"/>
	</g>
	<g style="mix-blend-mode:normal">
		<path id="Path 11824" d="" fill="#000000" fill-opacity="0" fill-rule="nonzero"/>
		<path id="Path 11824" d="M158.64 144.59L158.64 153.06C158.64 154.23 159.68 155.17 160.95 155.17L174.81 155.17C176.09 155.17 177.12 154.23 177.12 153.06L177.12 144.59" stroke="#707070" stroke-opacity="1.000000" stroke-width="1.000000" stroke-linejoin="round"/>
	</g>
	<g style="mix-blend-mode:normal">
		<path id="Path 11825" d="" fill="#000000" fill-opacity="0" fill-rule="nonzero"/>
		<path id="Path 11825" d="M172.12 139.22L167.88 134.98L163.65 139.22" stroke="#707070" stroke-opacity="1.000000" stroke-width="1.000000" stroke-linejoin="round"/>
	</g>
	<g style="mix-blend-mode:normal">
		<path id="Path 11826" d="" fill="#000000" fill-opacity="0" fill-rule="nonzero"/>
		<path id="Path 11826" d="M167.88 134.98L167.88 148.75" stroke="#707070" stroke-opacity="1.000000" stroke-width="1.000000" stroke-linejoin="round"/>
	</g>
	<g style="mix-blend-mode:normal">
		<rect id="Rectangle 484" x="155.000000" y="48.000977" width="24.000000" height="24.000000" fill="#FFFFFF" fill-opacity="0"/>
		<rect id="Rectangle 484" x="155.500000" y="48.500977" width="23.000000" height="23.000000" stroke="#707070" stroke-opacity="0" stroke-width="1.000000"/>
	</g>
	<g style="mix-blend-mode:normal">
		<path id="Path 11824" d="" fill="#000000" fill-opacity="0" fill-rule="nonzero"/>
		<path id="Path 11824" d="M157.64 59.59L157.64 68.06C157.64 69.23 158.68 70.17 159.95 70.17L173.81 70.17C175.09 70.17 176.12 69.23 176.12 68.06L176.12 59.59" stroke="#707070" stroke-opacity="1.000000" stroke-width="1.000000" stroke-linejoin="round"/>
	</g>
	<g style="mix-blend-mode:normal">
		<path id="Path 11825" d="" fill="#000000" fill-opacity="0" fill-rule="nonzero"/>
		<path id="Path 11825" d="M171.12 54.22L166.88 49.98L162.65 54.22" stroke="#707070" stroke-opacity="1.000000" stroke-width="1.000000" stroke-linejoin="round"/>
	</g>
	<g style="mix-blend-mode:normal">
		<path id="Path 11826" d="" fill="#000000" fill-opacity="0" fill-rule="nonzero"/>
		<path id="Path 11826" d="M166.88 49.98L166.88 63.75" stroke="#707070" stroke-opacity="1.000000" stroke-width="1.000000" stroke-linejoin="round"/>
	</g>
</svg>
