<svg width="18.000000" height="18.000000" viewBox="0 0 18 18" fill="none" xmlns="http://www.w3.org/2000/svg" xmlns:xlink="http://www.w3.org/1999/xlink">
	<desc>
			Created with Pixso.
	</desc>
	<defs/>
	<g style="mix-blend-mode:normal">
		<path id="Rectangle 1395" d="M9.2 0.66C10.94 0.66 12.35 2.07 12.35 3.81L12.35 5.26C12.35 7.12 10.85 8.62 8.99 8.62C7.14 8.62 5.63 7.12 5.63 5.26L5.63 3.81C5.63 2.07 7.04 0.66 8.79 0.66L9.2 0.66Z" stroke="#737373" stroke-opacity="1.000000" stroke-width="1.000000"/>
	</g>
	<g style="mix-blend-mode:normal">
		<path id="Path 22610" d="M7.03 13.02C7.31 14.18 8.1 14.96 8.99 14.96C9.88 14.96 10.67 14.18 10.96 13.02L11.73 9.84C11.87 9.29 12.31 8.99 12.71 9.17L15.35 10.38C16.04 10.69 16.54 11.47 16.69 12.44L17.06 15C17.14 15.56 16.89 16.11 16.49 16.25C14.58 16.9 9 18.35 1.53 16.2C1.11 16.08 0.84 15.52 0.93 14.94L1.29 12.44C1.44 11.47 1.95 10.69 2.63 10.38L5.07 9.27C5.58 9.03 6.14 9.41 6.32 10.12L7.03 13.02Z" stroke="#737373" stroke-opacity="1.000000" stroke-width="1.000000"/>
	</g>
	<g style="mix-blend-mode:normal">
		<path id="Path 22611" d="" stroke="#737373" stroke-opacity="1.000000" stroke-width="1.000000"/>
	</g>
	<g style="mix-blend-mode:normal"/>
</svg>
